<ttFont>
<head>
    <!-- Most of this table will be recalculated by the compiler -->
    <tableVersion value="1.0"/>
    <fontRevision value="1.002"/>
    <checkSumAdjustment value="0x2875b0a"/>
    <magicNumber value="0x5f0f3cf5"/>
    <flags value="00000000 00001111"/>
    <unitsPerEm value="1000"/>
    <created value="Sun Jun 13 15:20:27 2021"/>
    <modified value="Mon Jun 14 15:25:28 2021"/>
    <xMin value="-142"/>
    <yMin value="-265"/>
    <xMax value="1192"/>
    <yMax value="1215"/>
    <macStyle value="00000000 00000000"/>
    <lowestRecPPEM value="6"/>
    <fontDirectionHint value="2"/>
    <indexToLocFormat value="0"/>
    <glyphDataFormat value="0"/>
  </head>
    <TTGlyph name=".notdef" xMin="50" yMin="-265" xMax="450" yMax="1000">
      <contour>
        <pt x="50" y="-265" on="1"/>
        <pt x="50" y="1000" on="1"/>
        <pt x="450" y="1000" on="1"/>
        <pt x="450" y="-265" on="1"/>
      </contour>
      <contour>
        <pt x="100" y="-215" on="1"/>
        <pt x="400" y="-215" on="1"/>
        <pt x="400" y="950" on="1"/>
        <pt x="100" y="950" on="1"/>
      </contour>
    </TTGlyph>
    <TTGlyph name="A" xMin="35" yMin="0" xMax="723" yMax="740">
      <contour>
        <pt x="35" y="0" on="1"/>
        <pt x="290" y="740" on="1"/>
        <pt x="467" y="740" on="1"/>
        <pt x="723" y="0" on="1"/>
        <pt x="581" y="0" on="1"/>
        <pt x="528" y="156" on="1"/>
        <pt x="230" y="156" on="1"/>
        <pt x="177" y="0" on="1"/>
      </contour>
      <contour>
        <pt x="269" y="274" on="1"/>
        <pt x="489" y="274" on="1"/>
        <pt x="379" y="601" on="1"/>
      </contour>
    </TTGlyph>
    <TTGlyph name="AE" xMin="35" yMin="0" xMax="973" yMax="740">
      <contour>
        <pt x="35" y="0" on="1"/>
        <pt x="386" y="740" on="1"/>
        <pt x="968" y="740" on="1"/>
        <pt x="968" y="622" on="1"/>
        <pt x="608" y="622" on="1"/>
        <pt x="608" y="434" on="1"/>
        <pt x="923" y="434" on="1"/>
        <pt x="923" y="319" on="1"/>
        <pt x="608" y="319" on="1"/>
        <pt x="608" y="118" on="1"/>
        <pt x="973" y="118" on="1"/>
        <pt x="973" y="0" on="1"/>
        <pt x="472" y="0" on="1"/>
        <pt x="472" y="156" on="1"/>
        <pt x="252" y="156" on="1"/>
        <pt x="177" y="0" on="1"/>
      </contour>
      <contour>
        <pt x="308" y="273" on="1"/>
        <pt x="472" y="273" on="1"/>
        <pt x="472" y="617" on="1"/>
      </contour>
    </TTGlyph>
    <TTGlyph name="Aacute" xMin="35" yMin="0" xMax="723" yMax="996">
      <contour>
        <pt x="430" y="816" on="1"/>
        <pt x="329" y="817" on="1"/>
        <pt x="411" y="996" on="1"/>
        <pt x="538" y="996" on="1"/>
      </contour>
      <contour>
        <pt x="35" y="0" on="1"/>
        <pt x="290" y="740" on="1"/>
        <pt x="467" y="740" on="1"/>
        <pt x="723" y="0" on="1"/>
        <pt x="581" y="0" on="1"/>
        <pt x="528" y="156" on="1"/>
        <pt x="230" y="156" on="1"/>
        <pt x="177" y="0" on="1"/>
      </contour>
      <contour>
        <pt x="269" y="274" on="1"/>
        <pt x="489" y="274" on="1"/>
        <pt x="379" y="601" on="1"/>
      </contour>
    </TTGlyph>
    <TTGlyph name="Abreve" xMin="35" yMin="0" xMax="723" yMax="961">
      <contour>
        <pt x="379" y="810" on="1"/>
        <pt x="327" y="810" on="0"/>
        <pt x="261" y="840" on="0"/>
        <pt x="224" y="886" on="0"/>
        <pt x="209" y="931" on="0"/>
        <pt x="206" y="961" on="0"/>
        <pt x="206" y="961" on="1"/>
        <pt x="296" y="961" on="1"/>
        <pt x="296" y="961" on="0"/>
        <pt x="300" y="939" on="0"/>
        <pt x="315" y="910" on="0"/>
        <pt x="349" y="888" on="0"/>
        <pt x="379" y="888" on="1"/>
        <pt x="409" y="888" on="0"/>
        <pt x="443" y="910" on="0"/>
        <pt x="459" y="939" on="0"/>
        <pt x="463" y="961" on="0"/>
        <pt x="463" y="961" on="1"/>
        <pt x="553" y="961" on="1"/>
        <pt x="553" y="961" on="0"/>
        <pt x="550" y="931" on="0"/>
        <pt x="534" y="886" on="0"/>
        <pt x="497" y="840" on="0"/>
        <pt x="431" y="810" on="0"/>
      </contour>
      <contour>
        <pt x="35" y="0" on="1"/>
        <pt x="290" y="740" on="1"/>
        <pt x="467" y="740" on="1"/>
        <pt x="723" y="0" on="1"/>
        <pt x="581" y="0" on="1"/>
        <pt x="528" y="156" on="1"/>
        <pt x="230" y="156" on="1"/>
        <pt x="177" y="0" on="1"/>
      </contour>
      <contour>
        <pt x="269" y="274" on="1"/>
        <pt x="489" y="274" on="1"/>
        <pt x="379" y="601" on="1"/>
      </contour>
    </TTGlyph>
    <TTGlyph name="Acircumflex" xMin="35" yMin="0" xMax="723" yMax="961">
      <contour>
        <pt x="199" y="809" on="1"/>
        <pt x="326" y="961" on="1"/>
        <pt x="433" y="961" on="1"/>
        <pt x="560" y="809" on="1"/>
        <pt x="452" y="809" on="1"/>
        <pt x="380" y="897" on="1"/>
        <pt x="307" y="809" on="1"/>
      </contour>
      <contour>
        <pt x="35" y="0" on="1"/>
        <pt x="290" y="740" on="1"/>
        <pt x="467" y="740" on="1"/>
        <pt x="723" y="0" on="1"/>
        <pt x="581" y="0" on="1"/>
        <pt x="528" y="156" on="1"/>
        <pt x="230" y="156" on="1"/>
        <pt x="177" y="0" on="1"/>
      </contour>
      <contour>
        <pt x="269" y="274" on="1"/>
        <pt x="489" y="274" on="1"/>
        <pt x="379" y="601" on="1"/>
      </contour>
    </TTGlyph>
    <TTGlyph name="Adieresis" xMin="35" yMin="0" xMax="723" yMax="960">
      <contour>
        <pt x="486" y="807" on="1"/>
        <pt x="452" y="807" on="0"/>
        <pt x="408" y="853" on="0"/>
        <pt x="408" y="883" on="1"/>
        <pt x="408" y="915" on="0"/>
        <pt x="452" y="960" on="0"/>
        <pt x="486" y="960" on="1"/>
        <pt x="520" y="960" on="0"/>
        <pt x="564" y="915" on="0"/>
        <pt x="564" y="883" on="1"/>
        <pt x="564" y="852" on="0"/>
        <pt x="520" y="807" on="0"/>
      </contour>
      <contour>
        <pt x="272" y="807" on="1"/>
        <pt x="237" y="807" on="0"/>
        <pt x="194" y="853" on="0"/>
        <pt x="194" y="883" on="1"/>
        <pt x="194" y="915" on="0"/>
        <pt x="237" y="960" on="0"/>
        <pt x="272" y="960" on="1"/>
        <pt x="305" y="960" on="0"/>
        <pt x="350" y="915" on="0"/>
        <pt x="350" y="883" on="1"/>
        <pt x="350" y="852" on="0"/>
        <pt x="305" y="807" on="0"/>
      </contour>
      <contour>
        <pt x="35" y="0" on="1"/>
        <pt x="290" y="740" on="1"/>
        <pt x="467" y="740" on="1"/>
        <pt x="723" y="0" on="1"/>
        <pt x="581" y="0" on="1"/>
        <pt x="528" y="156" on="1"/>
        <pt x="230" y="156" on="1"/>
        <pt x="177" y="0" on="1"/>
      </contour>
      <contour>
        <pt x="269" y="274" on="1"/>
        <pt x="489" y="274" on="1"/>
        <pt x="379" y="601" on="1"/>
      </contour>
    </TTGlyph>
    <TTGlyph name="Agrave" xMin="35" yMin="0" xMax="723" yMax="996">
      <contour>
        <pt x="332" y="816" on="1"/>
        <pt x="224" y="996" on="1"/>
        <pt x="351" y="996" on="1"/>
        <pt x="433" y="817" on="1"/>
      </contour>
      <contour>
        <pt x="35" y="0" on="1"/>
        <pt x="290" y="740" on="1"/>
        <pt x="467" y="740" on="1"/>
        <pt x="723" y="0" on="1"/>
        <pt x="581" y="0" on="1"/>
        <pt x="528" y="156" on="1"/>
        <pt x="230" y="156" on="1"/>
        <pt x="177" y="0" on="1"/>
      </contour>
      <contour>
        <pt x="269" y="274" on="1"/>
        <pt x="489" y="274" on="1"/>
        <pt x="379" y="601" on="1"/>
      </contour>
    </TTGlyph>
    <TTGlyph name="Amacron" xMin="35" yMin="0" xMax="723" yMax="913">
      <contour>
        <pt x="220" y="829" on="1"/>
        <pt x="220" y="913" on="1"/>
        <pt x="538" y="913" on="1"/>
        <pt x="538" y="829" on="1"/>
      </contour>
      <contour>
        <pt x="35" y="0" on="1"/>
        <pt x="290" y="740" on="1"/>
        <pt x="467" y="740" on="1"/>
        <pt x="723" y="0" on="1"/>
        <pt x="581" y="0" on="1"/>
        <pt x="528" y="156" on="1"/>
        <pt x="230" y="156" on="1"/>
        <pt x="177" y="0" on="1"/>
      </contour>
      <contour>
        <pt x="269" y="274" on="1"/>
        <pt x="489" y="274" on="1"/>
        <pt x="379" y="601" on="1"/>
      </contour>
    </TTGlyph>
    <TTGlyph name="Aogonek" xMin="35" yMin="-180" xMax="761" yMax="740">
      <contour>
        <pt x="35" y="0" on="1"/>
        <pt x="290" y="740" on="1"/>
        <pt x="467" y="740" on="1"/>
        <pt x="723" y="0" on="1"/>
        <pt x="723" y="0" on="0"/>
        <pt x="697" y="-13" on="0"/>
        <pt x="671" y="-40" on="0"/>
        <pt x="671" y="-60" on="1"/>
        <pt x="671" y="-76" on="0"/>
        <pt x="698" y="-100" on="0"/>
        <pt x="726" y="-100" on="1"/>
        <pt x="739" y="-100" on="0"/>
        <pt x="761" y="-95" on="0"/>
        <pt x="761" y="-95" on="1"/>
        <pt x="761" y="-174" on="1"/>
        <pt x="761" y="-174" on="0"/>
        <pt x="729" y="-180" on="0"/>
        <pt x="705" y="-180" on="1"/>
        <pt x="636" y="-180" on="0"/>
        <pt x="572" y="-122" on="0"/>
        <pt x="572" y="-83" on="1"/>
        <pt x="572" y="-53" on="0"/>
        <pt x="601" y="-12" on="0"/>
        <pt x="620" y="0" on="1"/>
        <pt x="581" y="0" on="1"/>
        <pt x="528" y="156" on="1"/>
        <pt x="230" y="156" on="1"/>
        <pt x="177" y="0" on="1"/>
      </contour>
      <contour>
        <pt x="269" y="274" on="1"/>
        <pt x="489" y="274" on="1"/>
        <pt x="379" y="601" on="1"/>
      </contour>
    </TTGlyph>
    <TTGlyph name="Aring" xMin="35" yMin="0" xMax="723" yMax="1068">
      <contour>
        <pt x="379" y="802" on="1"/>
        <pt x="342" y="802" on="0"/>
        <pt x="282" y="838" on="0"/>
        <pt x="245" y="899" on="0"/>
        <pt x="245" y="936" on="1"/>
        <pt x="245" y="972" on="0"/>
        <pt x="282" y="1033" on="0"/>
        <pt x="342" y="1068" on="0"/>
        <pt x="379" y="1068" on="1"/>
        <pt x="416" y="1068" on="0"/>
        <pt x="476" y="1033" on="0"/>
        <pt x="512" y="972" on="0"/>
        <pt x="512" y="936" on="1"/>
        <pt x="512" y="899" on="0"/>
        <pt x="476" y="838" on="0"/>
        <pt x="416" y="802" on="0"/>
      </contour>
      <contour>
        <pt x="379" y="879" on="1"/>
        <pt x="402" y="879" on="0"/>
        <pt x="436" y="912" on="0"/>
        <pt x="436" y="936" on="1"/>
        <pt x="436" y="959" on="0"/>
        <pt x="402" y="992" on="0"/>
        <pt x="379" y="992" on="1"/>
        <pt x="356" y="992" on="0"/>
        <pt x="322" y="959" on="0"/>
        <pt x="322" y="936" on="1"/>
        <pt x="322" y="912" on="0"/>
        <pt x="356" y="879" on="0"/>
      </contour>
      <contour>
        <pt x="35" y="0" on="1"/>
        <pt x="290" y="740" on="1"/>
        <pt x="467" y="740" on="1"/>
        <pt x="723" y="0" on="1"/>
        <pt x="581" y="0" on="1"/>
        <pt x="528" y="156" on="1"/>
        <pt x="230" y="156" on="1"/>
        <pt x="177" y="0" on="1"/>
      </contour>
      <contour>
        <pt x="269" y="274" on="1"/>
        <pt x="489" y="274" on="1"/>
        <pt x="379" y="601" on="1"/>
      </contour>
    </TTGlyph>
    <TTGlyph name="Atilde" xMin="35" yMin="0" xMax="723" yMax="972">
      <contour>
        <pt x="451" y="825" on="1"/>
        <pt x="424" y="825" on="0"/>
        <pt x="386" y="844" on="0"/>
        <pt x="357" y="869" on="0"/>
        <pt x="332" y="888" on="0"/>
        <pt x="319" y="888" on="1"/>
        <pt x="302" y="888" on="0"/>
        <pt x="289" y="857" on="0"/>
        <pt x="289" y="831" on="1"/>
        <pt x="213" y="831" on="1"/>
        <pt x="213" y="863" on="0"/>
        <pt x="229" y="929" on="0"/>
        <pt x="271" y="972" on="0"/>
        <pt x="311" y="972" on="1"/>
        <pt x="338" y="972" on="0"/>
        <pt x="377" y="953" on="0"/>
        <pt x="406" y="928" on="0"/>
        <pt x="430" y="909" on="0"/>
        <pt x="444" y="909" on="1"/>
        <pt x="459" y="909" on="0"/>
        <pt x="472" y="940" on="0"/>
        <pt x="472" y="967" on="1"/>
        <pt x="548" y="967" on="1"/>
        <pt x="548" y="934" on="0"/>
        <pt x="532" y="869" on="0"/>
        <pt x="490" y="825" on="0"/>
      </contour>
      <contour>
        <pt x="35" y="0" on="1"/>
        <pt x="290" y="740" on="1"/>
        <pt x="467" y="740" on="1"/>
        <pt x="723" y="0" on="1"/>
        <pt x="581" y="0" on="1"/>
        <pt x="528" y="156" on="1"/>
        <pt x="230" y="156" on="1"/>
        <pt x="177" y="0" on="1"/>
      </contour>
      <contour>
        <pt x="269" y="274" on="1"/>
        <pt x="489" y="274" on="1"/>
        <pt x="379" y="601" on="1"/>
      </contour>
    </TTGlyph>
    <TTGlyph name="B" xMin="72" yMin="0" xMax="649" yMax="740">
      <contour>
        <pt x="72" y="0" on="1"/>
        <pt x="72" y="740" on="1"/>
        <pt x="395" y="740" on="1"/>
        <pt x="466" y="740" on="0"/>
        <pt x="566" y="690" on="0"/>
        <pt x="619" y="606" on="0"/>
        <pt x="619" y="556" on="1"/>
        <pt x="619" y="505" on="0"/>
        <pt x="582" y="439" on="0"/>
        <pt x="531" y="402" on="0"/>
        <pt x="510" y="395" on="1"/>
        <pt x="510" y="388" on="1"/>
        <pt x="536" y="381" on="0"/>
        <pt x="601" y="341" on="0"/>
        <pt x="649" y="268" on="0"/>
        <pt x="649" y="210" on="1"/>
        <pt x="649" y="158" on="0"/>
        <pt x="599" y="61" on="0"/>
        <pt x="491" y="0" on="0"/>
        <pt x="402" y="0" on="1"/>
      </contour>
      <contour>
        <pt x="377" y="625" on="1"/>
        <pt x="208" y="625" on="1"/>
        <pt x="208" y="432" on="1"/>
        <pt x="377" y="432" on="1"/>
        <pt x="435" y="432" on="0"/>
        <pt x="487" y="490" on="0"/>
        <pt x="487" y="529" on="1"/>
        <pt x="487" y="567" on="0"/>
        <pt x="435" y="625" on="0"/>
      </contour>
      <contour>
        <pt x="387" y="328" on="1"/>
        <pt x="208" y="328" on="1"/>
        <pt x="208" y="115" on="1"/>
        <pt x="387" y="115" on="1"/>
        <pt x="453" y="115" on="0"/>
        <pt x="513" y="179" on="0"/>
        <pt x="513" y="222" on="1"/>
        <pt x="513" y="264" on="0"/>
        <pt x="453" y="328" on="0"/>
      </contour>
    </TTGlyph>
    <TTGlyph name="C" xMin="45" yMin="-10" xMax="733" yMax="750">
      <contour>
        <pt x="406" y="-10" on="1"/>
        <pt x="316" y="-10" on="0"/>
        <pt x="181" y="55" on="0"/>
        <pt x="90" y="164" on="0"/>
        <pt x="45" y="299" on="0"/>
        <pt x="45" y="370" on="1"/>
        <pt x="45" y="441" on="0"/>
        <pt x="90" y="577" on="0"/>
        <pt x="181" y="686" on="0"/>
        <pt x="316" y="750" on="0"/>
        <pt x="406" y="750" on="1"/>
        <pt x="481" y="750" on="0"/>
        <pt x="589" y="712" on="0"/>
        <pt x="661" y="652" on="0"/>
        <pt x="704" y="584" on="0"/>
        <pt x="726" y="524" on="0"/>
        <pt x="733" y="486" on="0"/>
        <pt x="733" y="486" on="1"/>
        <pt x="598" y="486" on="1"/>
        <pt x="598" y="486" on="0"/>
        <pt x="591" y="514" on="0"/>
        <pt x="570" y="557" on="0"/>
        <pt x="528" y="599" on="0"/>
        <pt x="459" y="627" on="0"/>
        <pt x="408" y="627" on="1"/>
        <pt x="352" y="627" on="0"/>
        <pt x="268" y="584" on="0"/>
        <pt x="212" y="510" on="0"/>
        <pt x="185" y="418" on="0"/>
        <pt x="185" y="370" on="1"/>
        <pt x="185" y="322" on="0"/>
        <pt x="212" y="231" on="0"/>
        <pt x="268" y="157" on="0"/>
        <pt x="352" y="113" on="0"/>
        <pt x="408" y="113" on="1"/>
        <pt x="459" y="113" on="0"/>
        <pt x="528" y="142" on="0"/>
        <pt x="570" y="184" on="0"/>
        <pt x="591" y="226" on="0"/>
        <pt x="598" y="255" on="0"/>
        <pt x="598" y="255" on="1"/>
        <pt x="733" y="255" on="1"/>
        <pt x="733" y="255" on="0"/>
        <pt x="726" y="217" on="0"/>
        <pt x="704" y="156" on="0"/>
        <pt x="661" y="89" on="0"/>
        <pt x="589" y="28" on="0"/>
        <pt x="481" y="-10" on="0"/>
      </contour>
    </TTGlyph>
    <TTGlyph name="Cacute" xMin="45" yMin="-10" xMax="733" yMax="995">
      <contour>
        <pt x="457" y="815" on="1"/>
        <pt x="356" y="816" on="1"/>
        <pt x="438" y="995" on="1"/>
        <pt x="565" y="995" on="1"/>
      </contour>
      <contour>
        <pt x="406" y="-10" on="1"/>
        <pt x="316" y="-10" on="0"/>
        <pt x="181" y="55" on="0"/>
        <pt x="90" y="164" on="0"/>
        <pt x="45" y="299" on="0"/>
        <pt x="45" y="370" on="1"/>
        <pt x="45" y="441" on="0"/>
        <pt x="90" y="577" on="0"/>
        <pt x="181" y="686" on="0"/>
        <pt x="316" y="750" on="0"/>
        <pt x="406" y="750" on="1"/>
        <pt x="481" y="750" on="0"/>
        <pt x="589" y="712" on="0"/>
        <pt x="661" y="652" on="0"/>
        <pt x="704" y="584" on="0"/>
        <pt x="726" y="524" on="0"/>
        <pt x="733" y="486" on="0"/>
        <pt x="733" y="486" on="1"/>
        <pt x="598" y="486" on="1"/>
        <pt x="598" y="486" on="0"/>
        <pt x="591" y="514" on="0"/>
        <pt x="570" y="557" on="0"/>
        <pt x="528" y="599" on="0"/>
        <pt x="459" y="627" on="0"/>
        <pt x="408" y="627" on="1"/>
        <pt x="352" y="627" on="0"/>
        <pt x="268" y="584" on="0"/>
        <pt x="212" y="510" on="0"/>
        <pt x="185" y="418" on="0"/>
        <pt x="185" y="370" on="1"/>
        <pt x="185" y="322" on="0"/>
        <pt x="212" y="231" on="0"/>
        <pt x="268" y="157" on="0"/>
        <pt x="352" y="113" on="0"/>
        <pt x="408" y="113" on="1"/>
        <pt x="459" y="113" on="0"/>
        <pt x="528" y="142" on="0"/>
        <pt x="570" y="184" on="0"/>
        <pt x="591" y="226" on="0"/>
        <pt x="598" y="255" on="0"/>
        <pt x="598" y="255" on="1"/>
        <pt x="733" y="255" on="1"/>
        <pt x="733" y="255" on="0"/>
        <pt x="726" y="217" on="0"/>
        <pt x="704" y="156" on="0"/>
        <pt x="661" y="89" on="0"/>
        <pt x="589" y="28" on="0"/>
        <pt x="481" y="-10" on="0"/>
      </contour>
    </TTGlyph>
    <TTGlyph name="Ccaron" xMin="45" yMin="-10" xMax="733" yMax="978">
      <contour>
        <pt x="353" y="802" on="1"/>
        <pt x="226" y="978" on="1"/>
        <pt x="334" y="978" on="1"/>
        <pt x="406" y="873" on="1"/>
        <pt x="479" y="978" on="1"/>
        <pt x="587" y="978" on="1"/>
        <pt x="460" y="802" on="1"/>
      </contour>
      <contour>
        <pt x="406" y="-10" on="1"/>
        <pt x="316" y="-10" on="0"/>
        <pt x="181" y="55" on="0"/>
        <pt x="90" y="164" on="0"/>
        <pt x="45" y="299" on="0"/>
        <pt x="45" y="370" on="1"/>
        <pt x="45" y="441" on="0"/>
        <pt x="90" y="577" on="0"/>
        <pt x="181" y="686" on="0"/>
        <pt x="316" y="750" on="0"/>
        <pt x="406" y="750" on="1"/>
        <pt x="481" y="750" on="0"/>
        <pt x="589" y="712" on="0"/>
        <pt x="661" y="652" on="0"/>
        <pt x="704" y="584" on="0"/>
        <pt x="726" y="524" on="0"/>
        <pt x="733" y="486" on="0"/>
        <pt x="733" y="486" on="1"/>
        <pt x="598" y="486" on="1"/>
        <pt x="598" y="486" on="0"/>
        <pt x="591" y="514" on="0"/>
        <pt x="570" y="557" on="0"/>
        <pt x="528" y="599" on="0"/>
        <pt x="459" y="627" on="0"/>
        <pt x="408" y="627" on="1"/>
        <pt x="352" y="627" on="0"/>
        <pt x="268" y="584" on="0"/>
        <pt x="212" y="510" on="0"/>
        <pt x="185" y="418" on="0"/>
        <pt x="185" y="370" on="1"/>
        <pt x="185" y="322" on="0"/>
        <pt x="212" y="231" on="0"/>
        <pt x="268" y="157" on="0"/>
        <pt x="352" y="113" on="0"/>
        <pt x="408" y="113" on="1"/>
        <pt x="459" y="113" on="0"/>
        <pt x="528" y="142" on="0"/>
        <pt x="570" y="184" on="0"/>
        <pt x="591" y="226" on="0"/>
        <pt x="598" y="255" on="0"/>
        <pt x="598" y="255" on="1"/>
        <pt x="733" y="255" on="1"/>
        <pt x="733" y="255" on="0"/>
        <pt x="726" y="217" on="0"/>
        <pt x="704" y="156" on="0"/>
        <pt x="661" y="89" on="0"/>
        <pt x="589" y="28" on="0"/>
        <pt x="481" y="-10" on="0"/>
      </contour>
    </TTGlyph>
    <TTGlyph name="Ccedilla" xMin="45" yMin="-261" xMax="733" yMax="750">
      <contour>
        <pt x="388" y="-261" on="1"/>
        <pt x="362" y="-261" on="0"/>
        <pt x="311" y="-254" on="0"/>
        <pt x="311" y="-254" on="1"/>
        <pt x="311" y="-182" on="1"/>
        <pt x="311" y="-182" on="0"/>
        <pt x="334" y="-185" on="0"/>
        <pt x="368" y="-188" on="0"/>
        <pt x="382" y="-188" on="1"/>
        <pt x="425" y="-188" on="0"/>
        <pt x="455" y="-159" on="0"/>
        <pt x="455" y="-144" on="1"/>
        <pt x="455" y="-128" on="0"/>
        <pt x="431" y="-107" on="0"/>
        <pt x="409" y="-107" on="1"/>
        <pt x="386" y="-107" on="0"/>
        <pt x="354" y="-126" on="0"/>
        <pt x="354" y="-126" on="1"/>
        <pt x="306" y="-78" on="1"/>
        <pt x="353" y="-7" on="1"/>
        <pt x="276" y="3" on="0"/>
        <pt x="161" y="73" on="0"/>
        <pt x="84" y="179" on="0"/>
        <pt x="45" y="305" on="0"/>
        <pt x="45" y="370" on="1"/>
        <pt x="45" y="441" on="0"/>
        <pt x="90" y="577" on="0"/>
        <pt x="181" y="686" on="0"/>
        <pt x="316" y="750" on="0"/>
        <pt x="406" y="750" on="1"/>
        <pt x="481" y="750" on="0"/>
        <pt x="589" y="712" on="0"/>
        <pt x="661" y="652" on="0"/>
        <pt x="704" y="584" on="0"/>
        <pt x="726" y="524" on="0"/>
        <pt x="733" y="486" on="0"/>
        <pt x="733" y="486" on="1"/>
        <pt x="598" y="486" on="1"/>
        <pt x="598" y="486" on="0"/>
        <pt x="591" y="514" on="0"/>
        <pt x="570" y="557" on="0"/>
        <pt x="528" y="599" on="0"/>
        <pt x="459" y="627" on="0"/>
        <pt x="408" y="627" on="1"/>
        <pt x="352" y="627" on="0"/>
        <pt x="268" y="584" on="0"/>
        <pt x="212" y="510" on="0"/>
        <pt x="185" y="418" on="0"/>
        <pt x="185" y="370" on="1"/>
        <pt x="185" y="322" on="0"/>
        <pt x="212" y="231" on="0"/>
        <pt x="268" y="157" on="0"/>
        <pt x="352" y="113" on="0"/>
        <pt x="408" y="113" on="1"/>
        <pt x="459" y="113" on="0"/>
        <pt x="528" y="142" on="0"/>
        <pt x="570" y="184" on="0"/>
        <pt x="591" y="226" on="0"/>
        <pt x="598" y="255" on="0"/>
        <pt x="598" y="255" on="1"/>
        <pt x="733" y="255" on="1"/>
        <pt x="733" y="255" on="0"/>
        <pt x="727" y="219" on="0"/>
        <pt x="707" y="162" on="0"/>
        <pt x="667" y="97" on="0"/>
        <pt x="602" y="37" on="0"/>
        <pt x="505" y="-5" on="0"/>
        <pt x="437" y="-9" on="1"/>
        <pt x="406" y="-55" on="1"/>
        <pt x="420" y="-51" on="0"/>
        <pt x="436" y="-51" on="1"/>
        <pt x="484" y="-51" on="0"/>
        <pt x="539" y="-103" on="0"/>
        <pt x="539" y="-144" on="1"/>
        <pt x="539" y="-173" on="0"/>
        <pt x="508" y="-227" on="0"/>
        <pt x="441" y="-261" on="0"/>
      </contour>
    </TTGlyph>
    <TTGlyph name="Cdotaccent" xMin="45" yMin="-10" xMax="733" yMax="978">
      <contour>
        <pt x="406" y="821" on="1"/>
        <pt x="371" y="821" on="0"/>
        <pt x="326" y="867" on="0"/>
        <pt x="326" y="899" on="1"/>
        <pt x="326" y="932" on="0"/>
        <pt x="371" y="978" on="0"/>
        <pt x="406" y="978" on="1"/>
        <pt x="441" y="978" on="0"/>
        <pt x="487" y="932" on="0"/>
        <pt x="487" y="899" on="1"/>
        <pt x="487" y="867" on="0"/>
        <pt x="441" y="821" on="0"/>
      </contour>
      <contour>
        <pt x="406" y="-10" on="1"/>
        <pt x="316" y="-10" on="0"/>
        <pt x="181" y="55" on="0"/>
        <pt x="90" y="164" on="0"/>
        <pt x="45" y="299" on="0"/>
        <pt x="45" y="370" on="1"/>
        <pt x="45" y="441" on="0"/>
        <pt x="90" y="577" on="0"/>
        <pt x="181" y="686" on="0"/>
        <pt x="316" y="750" on="0"/>
        <pt x="406" y="750" on="1"/>
        <pt x="481" y="750" on="0"/>
        <pt x="589" y="712" on="0"/>
        <pt x="661" y="652" on="0"/>
        <pt x="704" y="584" on="0"/>
        <pt x="726" y="524" on="0"/>
        <pt x="733" y="486" on="0"/>
        <pt x="733" y="486" on="1"/>
        <pt x="598" y="486" on="1"/>
        <pt x="598" y="486" on="0"/>
        <pt x="591" y="514" on="0"/>
        <pt x="570" y="557" on="0"/>
        <pt x="528" y="599" on="0"/>
        <pt x="459" y="627" on="0"/>
        <pt x="408" y="627" on="1"/>
        <pt x="352" y="627" on="0"/>
        <pt x="268" y="584" on="0"/>
        <pt x="212" y="510" on="0"/>
        <pt x="185" y="418" on="0"/>
        <pt x="185" y="370" on="1"/>
        <pt x="185" y="322" on="0"/>
        <pt x="212" y="231" on="0"/>
        <pt x="268" y="157" on="0"/>
        <pt x="352" y="113" on="0"/>
        <pt x="408" y="113" on="1"/>
        <pt x="459" y="113" on="0"/>
        <pt x="528" y="142" on="0"/>
        <pt x="570" y="184" on="0"/>
        <pt x="591" y="226" on="0"/>
        <pt x="598" y="255" on="0"/>
        <pt x="598" y="255" on="1"/>
        <pt x="733" y="255" on="1"/>
        <pt x="733" y="255" on="0"/>
        <pt x="726" y="217" on="0"/>
        <pt x="704" y="156" on="0"/>
        <pt x="661" y="89" on="0"/>
        <pt x="589" y="28" on="0"/>
        <pt x="481" y="-10" on="0"/>
      </contour>
    </TTGlyph>
    <TTGlyph name="D" xMin="72" yMin="0" xMax="698" yMax="740">
      <contour>
        <pt x="72" y="0" on="1"/>
        <pt x="72" y="740" on="1"/>
        <pt x="338" y="740" on="1"/>
        <pt x="428" y="740" on="0"/>
        <pt x="563" y="677" on="0"/>
        <pt x="653" y="571" on="0"/>
        <pt x="698" y="439" on="0"/>
        <pt x="698" y="370" on="1"/>
        <pt x="698" y="301" on="0"/>
        <pt x="653" y="169" on="0"/>
        <pt x="563" y="63" on="0"/>
        <pt x="428" y="0" on="0"/>
        <pt x="338" y="0" on="1"/>
      </contour>
      <contour>
        <pt x="332" y="621" on="1"/>
        <pt x="208" y="621" on="1"/>
        <pt x="208" y="120" on="1"/>
        <pt x="332" y="120" on="1"/>
        <pt x="410" y="120" on="0"/>
        <pt x="512" y="193" on="0"/>
        <pt x="562" y="308" on="0"/>
        <pt x="562" y="371" on="1"/>
        <pt x="562" y="433" on="0"/>
        <pt x="512" y="548" on="0"/>
        <pt x="410" y="621" on="0"/>
      </contour>
    </TTGlyph>
    <TTGlyph name="Dcaron" xMin="78" yMin="0" xMax="704" yMax="979">
      <contour>
        <pt x="291" y="803" on="1"/>
        <pt x="164" y="979" on="1"/>
        <pt x="272" y="979" on="1"/>
        <pt x="345" y="874" on="1"/>
        <pt x="417" y="979" on="1"/>
        <pt x="525" y="979" on="1"/>
        <pt x="398" y="803" on="1"/>
      </contour>
      <contour>
        <pt x="78" y="0" on="1"/>
        <pt x="78" y="740" on="1"/>
        <pt x="344" y="740" on="1"/>
        <pt x="434" y="740" on="0"/>
        <pt x="569" y="677" on="0"/>
        <pt x="659" y="571" on="0"/>
        <pt x="704" y="439" on="0"/>
        <pt x="704" y="370" on="1"/>
        <pt x="704" y="301" on="0"/>
        <pt x="659" y="169" on="0"/>
        <pt x="569" y="63" on="0"/>
        <pt x="434" y="0" on="0"/>
        <pt x="344" y="0" on="1"/>
      </contour>
      <contour>
        <pt x="338" y="621" on="1"/>
        <pt x="214" y="621" on="1"/>
        <pt x="214" y="120" on="1"/>
        <pt x="338" y="120" on="1"/>
        <pt x="416" y="120" on="0"/>
        <pt x="518" y="193" on="0"/>
        <pt x="568" y="308" on="0"/>
        <pt x="568" y="371" on="1"/>
        <pt x="568" y="433" on="0"/>
        <pt x="518" y="548" on="0"/>
        <pt x="416" y="621" on="0"/>
      </contour>
    </TTGlyph>
    <TTGlyph name="Dcroat" xMin="26" yMin="0" xMax="741" yMax="740">
      <contour>
        <pt x="114" y="0" on="1"/>
        <pt x="114" y="314" on="1"/>
        <pt x="26" y="314" on="1"/>
        <pt x="26" y="426" on="1"/>
        <pt x="114" y="426" on="1"/>
        <pt x="114" y="740" on="1"/>
        <pt x="381" y="740" on="1"/>
        <pt x="471" y="740" on="0"/>
        <pt x="606" y="677" on="0"/>
        <pt x="696" y="571" on="0"/>
        <pt x="741" y="439" on="0"/>
        <pt x="741" y="370" on="1"/>
        <pt x="741" y="301" on="0"/>
        <pt x="696" y="169" on="0"/>
        <pt x="606" y="63" on="0"/>
        <pt x="471" y="0" on="0"/>
        <pt x="381" y="0" on="1"/>
      </contour>
      <contour>
        <pt x="394" y="314" on="1"/>
        <pt x="250" y="314" on="1"/>
        <pt x="250" y="120" on="1"/>
        <pt x="375" y="120" on="1"/>
        <pt x="453" y="120" on="0"/>
        <pt x="554" y="193" on="0"/>
        <pt x="605" y="308" on="0"/>
        <pt x="605" y="371" on="1"/>
        <pt x="605" y="433" on="0"/>
        <pt x="554" y="548" on="0"/>
        <pt x="453" y="621" on="0"/>
        <pt x="375" y="621" on="1"/>
        <pt x="250" y="621" on="1"/>
        <pt x="250" y="426" on="1"/>
        <pt x="394" y="426" on="1"/>
      </contour>
    </TTGlyph>
    <TTGlyph name="E" xMin="72" yMin="0" xMax="573" yMax="740">
      <contour>
        <pt x="72" y="0" on="1"/>
        <pt x="72" y="740" on="1"/>
        <pt x="568" y="740" on="1"/>
        <pt x="568" y="622" on="1"/>
        <pt x="208" y="622" on="1"/>
        <pt x="208" y="434" on="1"/>
        <pt x="523" y="434" on="1"/>
        <pt x="523" y="319" on="1"/>
        <pt x="208" y="319" on="1"/>
        <pt x="208" y="118" on="1"/>
        <pt x="573" y="118" on="1"/>
        <pt x="573" y="0" on="1"/>
      </contour>
    </TTGlyph>
    <TTGlyph name="Eacute" xMin="78" yMin="0" xMax="579" yMax="996">
      <contour>
        <pt x="383" y="816" on="1"/>
        <pt x="282" y="817" on="1"/>
        <pt x="364" y="996" on="1"/>
        <pt x="491" y="996" on="1"/>
      </contour>
      <contour>
        <pt x="78" y="0" on="1"/>
        <pt x="78" y="740" on="1"/>
        <pt x="574" y="740" on="1"/>
        <pt x="574" y="622" on="1"/>
        <pt x="214" y="622" on="1"/>
        <pt x="214" y="434" on="1"/>
        <pt x="529" y="434" on="1"/>
        <pt x="529" y="319" on="1"/>
        <pt x="214" y="319" on="1"/>
        <pt x="214" y="118" on="1"/>
        <pt x="579" y="118" on="1"/>
        <pt x="579" y="0" on="1"/>
      </contour>
    </TTGlyph>
    <TTGlyph name="Ecaron" xMin="78" yMin="0" xMax="579" yMax="979">
      <contour>
        <pt x="279" y="803" on="1"/>
        <pt x="152" y="979" on="1"/>
        <pt x="260" y="979" on="1"/>
        <pt x="332" y="874" on="1"/>
        <pt x="405" y="979" on="1"/>
        <pt x="513" y="979" on="1"/>
        <pt x="386" y="803" on="1"/>
      </contour>
      <contour>
        <pt x="78" y="0" on="1"/>
        <pt x="78" y="740" on="1"/>
        <pt x="574" y="740" on="1"/>
        <pt x="574" y="622" on="1"/>
        <pt x="214" y="622" on="1"/>
        <pt x="214" y="434" on="1"/>
        <pt x="529" y="434" on="1"/>
        <pt x="529" y="319" on="1"/>
        <pt x="214" y="319" on="1"/>
        <pt x="214" y="118" on="1"/>
        <pt x="579" y="118" on="1"/>
        <pt x="579" y="0" on="1"/>
      </contour>
    </TTGlyph>
    <TTGlyph name="Ecircumflex" xMin="78" yMin="0" xMax="579" yMax="961">
      <contour>
        <pt x="152" y="809" on="1"/>
        <pt x="279" y="961" on="1"/>
        <pt x="386" y="961" on="1"/>
        <pt x="513" y="809" on="1"/>
        <pt x="405" y="809" on="1"/>
        <pt x="333" y="897" on="1"/>
        <pt x="260" y="809" on="1"/>
      </contour>
      <contour>
        <pt x="78" y="0" on="1"/>
        <pt x="78" y="740" on="1"/>
        <pt x="574" y="740" on="1"/>
        <pt x="574" y="622" on="1"/>
        <pt x="214" y="622" on="1"/>
        <pt x="214" y="434" on="1"/>
        <pt x="529" y="434" on="1"/>
        <pt x="529" y="319" on="1"/>
        <pt x="214" y="319" on="1"/>
        <pt x="214" y="118" on="1"/>
        <pt x="579" y="118" on="1"/>
        <pt x="579" y="0" on="1"/>
      </contour>
    </TTGlyph>
    <TTGlyph name="Edieresis" xMin="78" yMin="0" xMax="579" yMax="960">
      <contour>
        <pt x="439" y="807" on="1"/>
        <pt x="405" y="807" on="0"/>
        <pt x="361" y="853" on="0"/>
        <pt x="361" y="883" on="1"/>
        <pt x="361" y="915" on="0"/>
        <pt x="405" y="960" on="0"/>
        <pt x="439" y="960" on="1"/>
        <pt x="473" y="960" on="0"/>
        <pt x="517" y="915" on="0"/>
        <pt x="517" y="883" on="1"/>
        <pt x="517" y="852" on="0"/>
        <pt x="473" y="807" on="0"/>
      </contour>
      <contour>
        <pt x="225" y="807" on="1"/>
        <pt x="190" y="807" on="0"/>
        <pt x="147" y="853" on="0"/>
        <pt x="147" y="883" on="1"/>
        <pt x="147" y="915" on="0"/>
        <pt x="190" y="960" on="0"/>
        <pt x="225" y="960" on="1"/>
        <pt x="258" y="960" on="0"/>
        <pt x="303" y="915" on="0"/>
        <pt x="303" y="883" on="1"/>
        <pt x="303" y="852" on="0"/>
        <pt x="258" y="807" on="0"/>
      </contour>
      <contour>
        <pt x="78" y="0" on="1"/>
        <pt x="78" y="740" on="1"/>
        <pt x="574" y="740" on="1"/>
        <pt x="574" y="622" on="1"/>
        <pt x="214" y="622" on="1"/>
        <pt x="214" y="434" on="1"/>
        <pt x="529" y="434" on="1"/>
        <pt x="529" y="319" on="1"/>
        <pt x="214" y="319" on="1"/>
        <pt x="214" y="118" on="1"/>
        <pt x="579" y="118" on="1"/>
        <pt x="579" y="0" on="1"/>
      </contour>
    </TTGlyph>
    <TTGlyph name="Edotaccent" xMin="78" yMin="0" xMax="579" yMax="979">
      <contour>
        <pt x="332" y="821" on="1"/>
        <pt x="297" y="821" on="0"/>
        <pt x="252" y="868" on="0"/>
        <pt x="252" y="900" on="1"/>
        <pt x="252" y="933" on="0"/>
        <pt x="297" y="979" on="0"/>
        <pt x="332" y="979" on="1"/>
        <pt x="367" y="979" on="0"/>
        <pt x="413" y="933" on="0"/>
        <pt x="413" y="900" on="1"/>
        <pt x="413" y="868" on="0"/>
        <pt x="367" y="821" on="0"/>
      </contour>
      <contour>
        <pt x="78" y="0" on="1"/>
        <pt x="78" y="740" on="1"/>
        <pt x="574" y="740" on="1"/>
        <pt x="574" y="622" on="1"/>
        <pt x="214" y="622" on="1"/>
        <pt x="214" y="434" on="1"/>
        <pt x="529" y="434" on="1"/>
        <pt x="529" y="319" on="1"/>
        <pt x="214" y="319" on="1"/>
        <pt x="214" y="118" on="1"/>
        <pt x="579" y="118" on="1"/>
        <pt x="579" y="0" on="1"/>
      </contour>
    </TTGlyph>
    <TTGlyph name="Egrave" xMin="78" yMin="0" xMax="579" yMax="996">
      <contour>
        <pt x="285" y="816" on="1"/>
        <pt x="177" y="996" on="1"/>
        <pt x="304" y="996" on="1"/>
        <pt x="386" y="817" on="1"/>
      </contour>
      <contour>
        <pt x="78" y="0" on="1"/>
        <pt x="78" y="740" on="1"/>
        <pt x="574" y="740" on="1"/>
        <pt x="574" y="622" on="1"/>
        <pt x="214" y="622" on="1"/>
        <pt x="214" y="434" on="1"/>
        <pt x="529" y="434" on="1"/>
        <pt x="529" y="319" on="1"/>
        <pt x="214" y="319" on="1"/>
        <pt x="214" y="118" on="1"/>
        <pt x="579" y="118" on="1"/>
        <pt x="579" y="0" on="1"/>
      </contour>
    </TTGlyph>
    <TTGlyph name="Emacron" xMin="78" yMin="0" xMax="579" yMax="913">
      <contour>
        <pt x="173" y="829" on="1"/>
        <pt x="173" y="913" on="1"/>
        <pt x="491" y="913" on="1"/>
        <pt x="491" y="829" on="1"/>
      </contour>
      <contour>
        <pt x="78" y="0" on="1"/>
        <pt x="78" y="740" on="1"/>
        <pt x="574" y="740" on="1"/>
        <pt x="574" y="622" on="1"/>
        <pt x="214" y="622" on="1"/>
        <pt x="214" y="434" on="1"/>
        <pt x="529" y="434" on="1"/>
        <pt x="529" y="319" on="1"/>
        <pt x="214" y="319" on="1"/>
        <pt x="214" y="118" on="1"/>
        <pt x="579" y="118" on="1"/>
        <pt x="579" y="0" on="1"/>
      </contour>
    </TTGlyph>
    <TTGlyph name="Eogonek" xMin="78" yMin="-180" xMax="617" yMax="740">
      <contour>
        <pt x="78" y="0" on="1"/>
        <pt x="78" y="740" on="1"/>
        <pt x="574" y="740" on="1"/>
        <pt x="574" y="622" on="1"/>
        <pt x="214" y="622" on="1"/>
        <pt x="214" y="434" on="1"/>
        <pt x="529" y="434" on="1"/>
        <pt x="529" y="319" on="1"/>
        <pt x="214" y="319" on="1"/>
        <pt x="214" y="118" on="1"/>
        <pt x="579" y="118" on="1"/>
        <pt x="579" y="0" on="1"/>
        <pt x="579" y="0" on="0"/>
        <pt x="553" y="-13" on="0"/>
        <pt x="527" y="-40" on="0"/>
        <pt x="527" y="-60" on="1"/>
        <pt x="527" y="-76" on="0"/>
        <pt x="554" y="-100" on="0"/>
        <pt x="582" y="-100" on="1"/>
        <pt x="595" y="-100" on="0"/>
        <pt x="617" y="-95" on="0"/>
        <pt x="617" y="-95" on="1"/>
        <pt x="617" y="-174" on="1"/>
        <pt x="617" y="-174" on="0"/>
        <pt x="585" y="-180" on="0"/>
        <pt x="561" y="-180" on="1"/>
        <pt x="493" y="-180" on="0"/>
        <pt x="428" y="-122" on="0"/>
        <pt x="428" y="-83" on="1"/>
        <pt x="428" y="-53" on="0"/>
        <pt x="458" y="-12" on="0"/>
        <pt x="476" y="0" on="1"/>
      </contour>
    </TTGlyph>
    <TTGlyph name="Eth" xMin="26" yMin="0" xMax="741" yMax="740">
      <contour>
        <pt x="114" y="0" on="1"/>
        <pt x="114" y="314" on="1"/>
        <pt x="26" y="314" on="1"/>
        <pt x="26" y="426" on="1"/>
        <pt x="114" y="426" on="1"/>
        <pt x="114" y="740" on="1"/>
        <pt x="381" y="740" on="1"/>
        <pt x="471" y="740" on="0"/>
        <pt x="606" y="677" on="0"/>
        <pt x="696" y="571" on="0"/>
        <pt x="741" y="439" on="0"/>
        <pt x="741" y="370" on="1"/>
        <pt x="741" y="301" on="0"/>
        <pt x="696" y="169" on="0"/>
        <pt x="606" y="63" on="0"/>
        <pt x="471" y="0" on="0"/>
        <pt x="381" y="0" on="1"/>
      </contour>
      <contour>
        <pt x="394" y="314" on="1"/>
        <pt x="250" y="314" on="1"/>
        <pt x="250" y="120" on="1"/>
        <pt x="375" y="120" on="1"/>
        <pt x="453" y="120" on="0"/>
        <pt x="554" y="193" on="0"/>
        <pt x="605" y="308" on="0"/>
        <pt x="605" y="371" on="1"/>
        <pt x="605" y="433" on="0"/>
        <pt x="554" y="548" on="0"/>
        <pt x="453" y="621" on="0"/>
        <pt x="375" y="621" on="1"/>
        <pt x="250" y="621" on="1"/>
        <pt x="250" y="426" on="1"/>
        <pt x="394" y="426" on="1"/>
      </contour>
    </TTGlyph>
    <TTGlyph name="Euro" xMin="32" yMin="-10" xMax="657" yMax="750">
      <contour>
        <pt x="32" y="265" on="1"/>
        <pt x="32" y="340" on="1"/>
        <pt x="114" y="340" on="1"/>
        <pt x="113" y="355" on="0"/>
        <pt x="113" y="370" on="1"/>
        <pt x="113" y="385" on="0"/>
        <pt x="114" y="399" on="1"/>
        <pt x="32" y="399" on="1"/>
        <pt x="32" y="474" on="1"/>
        <pt x="126" y="474" on="1"/>
        <pt x="145" y="549" on="0"/>
        <pt x="241" y="674" on="0"/>
        <pt x="395" y="750" on="0"/>
        <pt x="503" y="750" on="1"/>
        <pt x="541" y="750" on="0"/>
        <pt x="611" y="741" on="0"/>
        <pt x="657" y="733" on="0"/>
        <pt x="657" y="733" on="1"/>
        <pt x="657" y="614" on="1"/>
        <pt x="657" y="614" on="0"/>
        <pt x="611" y="623" on="0"/>
        <pt x="543" y="632" on="0"/>
        <pt x="510" y="632" on="1"/>
        <pt x="412" y="632" on="0"/>
        <pt x="293" y="540" on="0"/>
        <pt x="269" y="474" on="1"/>
        <pt x="543" y="474" on="1"/>
        <pt x="543" y="399" on="1"/>
        <pt x="252" y="399" on="1"/>
        <pt x="250" y="385" on="0"/>
        <pt x="250" y="370" on="1"/>
        <pt x="250" y="355" on="0"/>
        <pt x="252" y="340" on="1"/>
        <pt x="543" y="340" on="1"/>
        <pt x="543" y="265" on="1"/>
        <pt x="269" y="265" on="1"/>
        <pt x="294" y="199" on="0"/>
        <pt x="413" y="108" on="0"/>
        <pt x="510" y="108" on="1"/>
        <pt x="543" y="108" on="0"/>
        <pt x="611" y="117" on="0"/>
        <pt x="657" y="125" on="0"/>
        <pt x="657" y="125" on="1"/>
        <pt x="657" y="7" on="1"/>
        <pt x="657" y="7" on="0"/>
        <pt x="611" y="-2" on="0"/>
        <pt x="541" y="-10" on="0"/>
        <pt x="503" y="-10" on="1"/>
        <pt x="395" y="-10" on="0"/>
        <pt x="241" y="65" on="0"/>
        <pt x="145" y="190" on="0"/>
        <pt x="126" y="265" on="1"/>
      </contour>
    </TTGlyph>
    <TTGlyph name="F" xMin="72" yMin="0" xMax="579" yMax="740">
      <contour>
        <pt x="72" y="0" on="1"/>
        <pt x="72" y="740" on="1"/>
        <pt x="579" y="740" on="1"/>
        <pt x="579" y="622" on="1"/>
        <pt x="208" y="622" on="1"/>
        <pt x="208" y="412" on="1"/>
        <pt x="534" y="412" on="1"/>
        <pt x="534" y="296" on="1"/>
        <pt x="208" y="296" on="1"/>
        <pt x="208" y="0" on="1"/>
      </contour>
    </TTGlyph>
    <TTGlyph name="G" xMin="45" yMin="-10" xMax="745" yMax="750">
      <contour>
        <pt x="412" y="-10" on="1"/>
        <pt x="319" y="-10" on="0"/>
        <pt x="181" y="54" on="0"/>
        <pt x="90" y="163" on="0"/>
        <pt x="45" y="298" on="0"/>
        <pt x="45" y="369" on="1"/>
        <pt x="45" y="440" on="0"/>
        <pt x="90" y="576" on="0"/>
        <pt x="182" y="685" on="0"/>
        <pt x="322" y="750" on="0"/>
        <pt x="415" y="750" on="1"/>
        <pt x="488" y="750" on="0"/>
        <pt x="593" y="713" on="0"/>
        <pt x="664" y="655" on="0"/>
        <pt x="707" y="590" on="0"/>
        <pt x="729" y="532" on="0"/>
        <pt x="737" y="495" on="0"/>
        <pt x="737" y="495" on="1"/>
        <pt x="601" y="495" on="1"/>
        <pt x="601" y="495" on="0"/>
        <pt x="594" y="522" on="0"/>
        <pt x="572" y="562" on="0"/>
        <pt x="531" y="602" on="0"/>
        <pt x="465" y="629" on="0"/>
        <pt x="416" y="629" on="1"/>
        <pt x="357" y="629" on="0"/>
        <pt x="270" y="585" on="0"/>
        <pt x="212" y="511" on="0"/>
        <pt x="184" y="419" on="0"/>
        <pt x="184" y="371" on="1"/>
        <pt x="184" y="306" on="0"/>
        <pt x="236" y="186" on="0"/>
        <pt x="339" y="110" on="0"/>
        <pt x="415" y="110" on="1"/>
        <pt x="503" y="110" on="0"/>
        <pt x="606" y="206" on="0"/>
        <pt x="613" y="286" on="1"/>
        <pt x="411" y="286" on="1"/>
        <pt x="411" y="394" on="1"/>
        <pt x="745" y="394" on="1"/>
        <pt x="745" y="339" on="1"/>
        <pt x="745" y="224" on="0"/>
        <pt x="657" y="69" on="0"/>
        <pt x="506" y="-10" on="0"/>
      </contour>
    </TTGlyph>
    <TTGlyph name="Gbreve" xMin="45" yMin="-10" xMax="745" yMax="975">
      <contour>
        <pt x="415" y="810" on="1"/>
        <pt x="362" y="810" on="0"/>
        <pt x="296" y="843" on="0"/>
        <pt x="260" y="893" on="0"/>
        <pt x="245" y="942" on="0"/>
        <pt x="242" y="975" on="0"/>
        <pt x="242" y="975" on="1"/>
        <pt x="332" y="975" on="1"/>
        <pt x="332" y="975" on="0"/>
        <pt x="335" y="950" on="0"/>
        <pt x="350" y="916" on="0"/>
        <pt x="384" y="890" on="0"/>
        <pt x="415" y="890" on="1"/>
        <pt x="446" y="890" on="0"/>
        <pt x="481" y="916" on="0"/>
        <pt x="495" y="950" on="0"/>
        <pt x="499" y="975" on="0"/>
        <pt x="499" y="975" on="1"/>
        <pt x="589" y="975" on="1"/>
        <pt x="589" y="975" on="0"/>
        <pt x="586" y="942" on="0"/>
        <pt x="571" y="893" on="0"/>
        <pt x="535" y="843" on="0"/>
        <pt x="468" y="810" on="0"/>
      </contour>
      <contour>
        <pt x="412" y="-10" on="1"/>
        <pt x="319" y="-10" on="0"/>
        <pt x="181" y="54" on="0"/>
        <pt x="90" y="163" on="0"/>
        <pt x="45" y="298" on="0"/>
        <pt x="45" y="369" on="1"/>
        <pt x="45" y="440" on="0"/>
        <pt x="90" y="576" on="0"/>
        <pt x="182" y="685" on="0"/>
        <pt x="322" y="750" on="0"/>
        <pt x="415" y="750" on="1"/>
        <pt x="488" y="750" on="0"/>
        <pt x="593" y="713" on="0"/>
        <pt x="664" y="655" on="0"/>
        <pt x="707" y="590" on="0"/>
        <pt x="729" y="532" on="0"/>
        <pt x="737" y="495" on="0"/>
        <pt x="737" y="495" on="1"/>
        <pt x="601" y="495" on="1"/>
        <pt x="601" y="495" on="0"/>
        <pt x="594" y="522" on="0"/>
        <pt x="572" y="562" on="0"/>
        <pt x="531" y="602" on="0"/>
        <pt x="465" y="629" on="0"/>
        <pt x="416" y="629" on="1"/>
        <pt x="357" y="629" on="0"/>
        <pt x="270" y="585" on="0"/>
        <pt x="212" y="511" on="0"/>
        <pt x="184" y="419" on="0"/>
        <pt x="184" y="371" on="1"/>
        <pt x="184" y="306" on="0"/>
        <pt x="236" y="186" on="0"/>
        <pt x="339" y="110" on="0"/>
        <pt x="415" y="110" on="1"/>
        <pt x="503" y="110" on="0"/>
        <pt x="606" y="206" on="0"/>
        <pt x="613" y="286" on="1"/>
        <pt x="411" y="286" on="1"/>
        <pt x="411" y="394" on="1"/>
        <pt x="745" y="394" on="1"/>
        <pt x="745" y="339" on="1"/>
        <pt x="745" y="224" on="0"/>
        <pt x="657" y="69" on="0"/>
        <pt x="506" y="-10" on="0"/>
      </contour>
    </TTGlyph>
    <TTGlyph name="Gcaron" xMin="45" yMin="-10" xMax="745" yMax="979">
      <contour>
        <pt x="362" y="803" on="1"/>
        <pt x="235" y="979" on="1"/>
        <pt x="343" y="979" on="1"/>
        <pt x="416" y="874" on="1"/>
        <pt x="488" y="979" on="1"/>
        <pt x="596" y="979" on="1"/>
        <pt x="469" y="803" on="1"/>
      </contour>
      <contour>
        <pt x="412" y="-10" on="1"/>
        <pt x="319" y="-10" on="0"/>
        <pt x="181" y="54" on="0"/>
        <pt x="90" y="163" on="0"/>
        <pt x="45" y="298" on="0"/>
        <pt x="45" y="369" on="1"/>
        <pt x="45" y="440" on="0"/>
        <pt x="90" y="576" on="0"/>
        <pt x="182" y="685" on="0"/>
        <pt x="322" y="750" on="0"/>
        <pt x="415" y="750" on="1"/>
        <pt x="488" y="750" on="0"/>
        <pt x="593" y="713" on="0"/>
        <pt x="664" y="655" on="0"/>
        <pt x="707" y="590" on="0"/>
        <pt x="729" y="532" on="0"/>
        <pt x="737" y="495" on="0"/>
        <pt x="737" y="495" on="1"/>
        <pt x="601" y="495" on="1"/>
        <pt x="601" y="495" on="0"/>
        <pt x="594" y="522" on="0"/>
        <pt x="572" y="562" on="0"/>
        <pt x="531" y="602" on="0"/>
        <pt x="465" y="629" on="0"/>
        <pt x="416" y="629" on="1"/>
        <pt x="357" y="629" on="0"/>
        <pt x="270" y="585" on="0"/>
        <pt x="212" y="511" on="0"/>
        <pt x="184" y="419" on="0"/>
        <pt x="184" y="371" on="1"/>
        <pt x="184" y="306" on="0"/>
        <pt x="236" y="186" on="0"/>
        <pt x="339" y="110" on="0"/>
        <pt x="415" y="110" on="1"/>
        <pt x="503" y="110" on="0"/>
        <pt x="606" y="206" on="0"/>
        <pt x="613" y="286" on="1"/>
        <pt x="411" y="286" on="1"/>
        <pt x="411" y="394" on="1"/>
        <pt x="745" y="394" on="1"/>
        <pt x="745" y="339" on="1"/>
        <pt x="745" y="224" on="0"/>
        <pt x="657" y="69" on="0"/>
        <pt x="506" y="-10" on="0"/>
      </contour>
    </TTGlyph>
    <TTGlyph name="Gdotaccent" xMin="45" yMin="-10" xMax="745" yMax="979">
      <contour>
        <pt x="415" y="821" on="1"/>
        <pt x="380" y="821" on="0"/>
        <pt x="335" y="868" on="0"/>
        <pt x="335" y="900" on="1"/>
        <pt x="335" y="933" on="0"/>
        <pt x="380" y="979" on="0"/>
        <pt x="415" y="979" on="1"/>
        <pt x="450" y="979" on="0"/>
        <pt x="496" y="933" on="0"/>
        <pt x="496" y="900" on="1"/>
        <pt x="496" y="868" on="0"/>
        <pt x="450" y="821" on="0"/>
      </contour>
      <contour>
        <pt x="412" y="-10" on="1"/>
        <pt x="319" y="-10" on="0"/>
        <pt x="181" y="54" on="0"/>
        <pt x="90" y="163" on="0"/>
        <pt x="45" y="298" on="0"/>
        <pt x="45" y="369" on="1"/>
        <pt x="45" y="440" on="0"/>
        <pt x="90" y="576" on="0"/>
        <pt x="182" y="685" on="0"/>
        <pt x="322" y="750" on="0"/>
        <pt x="415" y="750" on="1"/>
        <pt x="488" y="750" on="0"/>
        <pt x="593" y="713" on="0"/>
        <pt x="664" y="655" on="0"/>
        <pt x="707" y="590" on="0"/>
        <pt x="729" y="532" on="0"/>
        <pt x="737" y="495" on="0"/>
        <pt x="737" y="495" on="1"/>
        <pt x="601" y="495" on="1"/>
        <pt x="601" y="495" on="0"/>
        <pt x="594" y="522" on="0"/>
        <pt x="572" y="562" on="0"/>
        <pt x="531" y="602" on="0"/>
        <pt x="465" y="629" on="0"/>
        <pt x="416" y="629" on="1"/>
        <pt x="357" y="629" on="0"/>
        <pt x="270" y="585" on="0"/>
        <pt x="212" y="511" on="0"/>
        <pt x="184" y="419" on="0"/>
        <pt x="184" y="371" on="1"/>
        <pt x="184" y="306" on="0"/>
        <pt x="236" y="186" on="0"/>
        <pt x="339" y="110" on="0"/>
        <pt x="415" y="110" on="1"/>
        <pt x="503" y="110" on="0"/>
        <pt x="606" y="206" on="0"/>
        <pt x="613" y="286" on="1"/>
        <pt x="411" y="286" on="1"/>
        <pt x="411" y="394" on="1"/>
        <pt x="745" y="394" on="1"/>
        <pt x="745" y="339" on="1"/>
        <pt x="745" y="224" on="0"/>
        <pt x="657" y="69" on="0"/>
        <pt x="506" y="-10" on="0"/>
      </contour>
    </TTGlyph>
    <TTGlyph name="H" xMin="72" yMin="0" xMax="653" yMax="740">
      <contour>
        <pt x="72" y="0" on="1"/>
        <pt x="72" y="740" on="1"/>
        <pt x="208" y="740" on="1"/>
        <pt x="208" y="436" on="1"/>
        <pt x="517" y="436" on="1"/>
        <pt x="517" y="740" on="1"/>
        <pt x="653" y="740" on="1"/>
        <pt x="653" y="0" on="1"/>
        <pt x="517" y="0" on="1"/>
        <pt x="517" y="318" on="1"/>
        <pt x="208" y="318" on="1"/>
        <pt x="208" y="0" on="1"/>
      </contour>
    </TTGlyph>
    <TTGlyph name="Hbar" xMin="22" yMin="0" xMax="759" yMax="740">
      <contour>
        <pt x="107" y="0" on="1"/>
        <pt x="107" y="558" on="1"/>
        <pt x="22" y="558" on="1"/>
        <pt x="22" y="663" on="1"/>
        <pt x="107" y="663" on="1"/>
        <pt x="107" y="740" on="1"/>
        <pt x="242" y="740" on="1"/>
        <pt x="242" y="663" on="1"/>
        <pt x="552" y="663" on="1"/>
        <pt x="552" y="740" on="1"/>
        <pt x="687" y="740" on="1"/>
        <pt x="687" y="663" on="1"/>
        <pt x="759" y="663" on="1"/>
        <pt x="759" y="558" on="1"/>
        <pt x="687" y="558" on="1"/>
        <pt x="687" y="0" on="1"/>
        <pt x="552" y="0" on="1"/>
        <pt x="552" y="318" on="1"/>
        <pt x="242" y="318" on="1"/>
        <pt x="242" y="0" on="1"/>
      </contour>
      <contour>
        <pt x="242" y="436" on="1"/>
        <pt x="552" y="436" on="1"/>
        <pt x="552" y="558" on="1"/>
        <pt x="242" y="558" on="1"/>
      </contour>
    </TTGlyph>
    <TTGlyph name="I" xMin="72" yMin="0" xMax="208" yMax="740">
      <contour>
        <pt x="72" y="0" on="1"/>
        <pt x="72" y="740" on="1"/>
        <pt x="208" y="740" on="1"/>
        <pt x="208" y="0" on="1"/>
      </contour>
    </TTGlyph>
    <TTGlyph name="Iacute" xMin="78" yMin="0" xMax="304" yMax="996">
      <contour>
        <pt x="197" y="816" on="1"/>
        <pt x="95" y="817" on="1"/>
        <pt x="178" y="996" on="1"/>
        <pt x="304" y="996" on="1"/>
      </contour>
      <contour>
        <pt x="78" y="0" on="1"/>
        <pt x="78" y="740" on="1"/>
        <pt x="214" y="740" on="1"/>
        <pt x="214" y="0" on="1"/>
      </contour>
    </TTGlyph>
    <TTGlyph name="Icircumflex" xMin="-34" yMin="0" xMax="327" yMax="985">
      <contour>
        <pt x="-34" y="809" on="1"/>
        <pt x="93" y="985" on="1"/>
        <pt x="200" y="985" on="1"/>
        <pt x="327" y="809" on="1"/>
        <pt x="219" y="809" on="1"/>
        <pt x="146" y="914" on="1"/>
        <pt x="74" y="809" on="1"/>
      </contour>
      <contour>
        <pt x="78" y="0" on="1"/>
        <pt x="78" y="740" on="1"/>
        <pt x="214" y="740" on="1"/>
        <pt x="214" y="0" on="1"/>
      </contour>
    </TTGlyph>
    <TTGlyph name="Idieresis" xMin="-40" yMin="0" xMax="331" yMax="960">
      <contour>
        <pt x="253" y="807" on="1"/>
        <pt x="218" y="807" on="0"/>
        <pt x="175" y="853" on="0"/>
        <pt x="175" y="883" on="1"/>
        <pt x="175" y="915" on="0"/>
        <pt x="218" y="960" on="0"/>
        <pt x="253" y="960" on="1"/>
        <pt x="286" y="960" on="0"/>
        <pt x="331" y="915" on="0"/>
        <pt x="331" y="883" on="1"/>
        <pt x="331" y="852" on="0"/>
        <pt x="286" y="807" on="0"/>
      </contour>
      <contour>
        <pt x="38" y="807" on="1"/>
        <pt x="4" y="807" on="0"/>
        <pt x="-40" y="853" on="0"/>
        <pt x="-40" y="883" on="1"/>
        <pt x="-40" y="915" on="0"/>
        <pt x="4" y="960" on="0"/>
        <pt x="38" y="960" on="1"/>
        <pt x="72" y="960" on="0"/>
        <pt x="116" y="915" on="0"/>
        <pt x="116" y="883" on="1"/>
        <pt x="116" y="852" on="0"/>
        <pt x="72" y="807" on="0"/>
      </contour>
      <contour>
        <pt x="78" y="0" on="1"/>
        <pt x="78" y="740" on="1"/>
        <pt x="214" y="740" on="1"/>
        <pt x="214" y="0" on="1"/>
      </contour>
    </TTGlyph>
    <TTGlyph name="Idotaccent" xMin="65" yMin="0" xMax="226" yMax="979">
      <contour>
        <pt x="146" y="821" on="1"/>
        <pt x="110" y="821" on="0"/>
        <pt x="65" y="868" on="0"/>
        <pt x="65" y="900" on="1"/>
        <pt x="65" y="933" on="0"/>
        <pt x="110" y="979" on="0"/>
        <pt x="146" y="979" on="1"/>
        <pt x="180" y="979" on="0"/>
        <pt x="226" y="933" on="0"/>
        <pt x="226" y="900" on="1"/>
        <pt x="226" y="868" on="0"/>
        <pt x="180" y="821" on="0"/>
      </contour>
      <contour>
        <pt x="78" y="0" on="1"/>
        <pt x="78" y="740" on="1"/>
        <pt x="214" y="740" on="1"/>
        <pt x="214" y="0" on="1"/>
      </contour>
    </TTGlyph>
    <TTGlyph name="Igrave" xMin="-9" yMin="0" xMax="214" yMax="996">
      <contour>
        <pt x="98" y="816" on="1"/>
        <pt x="-9" y="996" on="1"/>
        <pt x="118" y="996" on="1"/>
        <pt x="200" y="817" on="1"/>
      </contour>
      <contour>
        <pt x="78" y="0" on="1"/>
        <pt x="78" y="740" on="1"/>
        <pt x="214" y="740" on="1"/>
        <pt x="214" y="0" on="1"/>
      </contour>
    </TTGlyph>
    <TTGlyph name="Imacron" xMin="-13" yMin="0" xMax="305" yMax="913">
      <contour>
        <pt x="-13" y="829" on="1"/>
        <pt x="-13" y="913" on="1"/>
        <pt x="305" y="913" on="1"/>
        <pt x="305" y="829" on="1"/>
      </contour>
      <contour>
        <pt x="78" y="0" on="1"/>
        <pt x="78" y="740" on="1"/>
        <pt x="214" y="740" on="1"/>
        <pt x="214" y="0" on="1"/>
      </contour>
    </TTGlyph>
    <TTGlyph name="Iogonek" xMin="62" yMin="-180" xMax="252" yMax="740">
      <contour>
        <pt x="78" y="0" on="1"/>
        <pt x="78" y="740" on="1"/>
        <pt x="214" y="740" on="1"/>
        <pt x="214" y="0" on="1"/>
        <pt x="214" y="0" on="0"/>
        <pt x="188" y="-13" on="0"/>
        <pt x="162" y="-40" on="0"/>
        <pt x="162" y="-60" on="1"/>
        <pt x="162" y="-76" on="0"/>
        <pt x="188" y="-100" on="0"/>
        <pt x="217" y="-100" on="1"/>
        <pt x="230" y="-100" on="0"/>
        <pt x="252" y="-95" on="0"/>
        <pt x="252" y="-95" on="1"/>
        <pt x="252" y="-174" on="1"/>
        <pt x="252" y="-174" on="0"/>
        <pt x="219" y="-180" on="0"/>
        <pt x="195" y="-180" on="1"/>
        <pt x="127" y="-180" on="0"/>
        <pt x="62" y="-122" on="0"/>
        <pt x="62" y="-83" on="1"/>
        <pt x="62" y="-53" on="0"/>
        <pt x="92" y="-12" on="0"/>
        <pt x="111" y="0" on="1"/>
      </contour>
    </TTGlyph>
    <TTGlyph name="Itilde" xMin="-20" yMin="0" xMax="314" yMax="972">
      <contour>
        <pt x="218" y="825" on="1"/>
        <pt x="191" y="825" on="0"/>
        <pt x="152" y="844" on="0"/>
        <pt x="124" y="869" on="0"/>
        <pt x="99" y="888" on="0"/>
        <pt x="85" y="888" on="1"/>
        <pt x="69" y="888" on="0"/>
        <pt x="56" y="857" on="0"/>
        <pt x="56" y="831" on="1"/>
        <pt x="-20" y="831" on="1"/>
        <pt x="-20" y="863" on="0"/>
        <pt x="-4" y="929" on="0"/>
        <pt x="38" y="972" on="0"/>
        <pt x="77" y="972" on="1"/>
        <pt x="105" y="972" on="0"/>
        <pt x="143" y="953" on="0"/>
        <pt x="172" y="928" on="0"/>
        <pt x="197" y="909" on="0"/>
        <pt x="210" y="909" on="1"/>
        <pt x="225" y="909" on="0"/>
        <pt x="239" y="940" on="0"/>
        <pt x="239" y="967" on="1"/>
        <pt x="314" y="967" on="1"/>
        <pt x="314" y="934" on="0"/>
        <pt x="299" y="869" on="0"/>
        <pt x="257" y="825" on="0"/>
      </contour>
      <contour>
        <pt x="78" y="0" on="1"/>
        <pt x="78" y="740" on="1"/>
        <pt x="214" y="740" on="1"/>
        <pt x="214" y="0" on="1"/>
      </contour>
    </TTGlyph>
    <TTGlyph name="J" xMin="40" yMin="-10" xMax="410" yMax="740">
      <contour>
        <pt x="142" y="-10" on="1"/>
        <pt x="101" y="-10" on="0"/>
        <pt x="40" y="-2" on="0"/>
        <pt x="40" y="-2" on="1"/>
        <pt x="40" y="113" on="1"/>
        <pt x="40" y="113" on="0"/>
        <pt x="91" y="108" on="0"/>
        <pt x="119" y="108" on="1"/>
        <pt x="190" y="108" on="0"/>
        <pt x="275" y="178" on="0"/>
        <pt x="275" y="265" on="1"/>
        <pt x="275" y="740" on="1"/>
        <pt x="410" y="740" on="1"/>
        <pt x="410" y="263" on="1"/>
        <pt x="410" y="185" on="0"/>
        <pt x="354" y="61" on="0"/>
        <pt x="235" y="-10" on="0"/>
      </contour>
    </TTGlyph>
    <TTGlyph name="K" xMin="72" yMin="0" xMax="673" yMax="740">
      <contour>
        <pt x="72" y="0" on="1"/>
        <pt x="72" y="740" on="1"/>
        <pt x="208" y="740" on="1"/>
        <pt x="208" y="419" on="1"/>
        <pt x="490" y="739" on="1"/>
        <pt x="660" y="739" on="1"/>
        <pt x="339" y="384" on="1"/>
        <pt x="673" y="0" on="1"/>
        <pt x="497" y="0" on="1"/>
        <pt x="208" y="338" on="1"/>
        <pt x="208" y="0" on="1"/>
      </contour>
    </TTGlyph>
    <TTGlyph name="L" xMin="72" yMin="0" xMax="576" yMax="740">
      <contour>
        <pt x="72" y="0" on="1"/>
        <pt x="72" y="740" on="1"/>
        <pt x="208" y="740" on="1"/>
        <pt x="208" y="118" on="1"/>
        <pt x="576" y="118" on="1"/>
        <pt x="576" y="0" on="1"/>
      </contour>
    </TTGlyph>
    <TTGlyph name="Lacute" xMin="78" yMin="0" xMax="582" yMax="996">
      <contour>
        <pt x="202" y="816" on="1"/>
        <pt x="101" y="817" on="1"/>
        <pt x="183" y="996" on="1"/>
        <pt x="310" y="996" on="1"/>
      </contour>
      <contour>
        <pt x="78" y="0" on="1"/>
        <pt x="78" y="740" on="1"/>
        <pt x="214" y="740" on="1"/>
        <pt x="214" y="118" on="1"/>
        <pt x="582" y="118" on="1"/>
        <pt x="582" y="0" on="1"/>
      </contour>
    </TTGlyph>
    <TTGlyph name="Lcaron" xMin="-29" yMin="0" xMax="582" yMax="979">
      <contour>
        <pt x="98" y="803" on="1"/>
        <pt x="-29" y="979" on="1"/>
        <pt x="79" y="979" on="1"/>
        <pt x="151" y="874" on="1"/>
        <pt x="224" y="979" on="1"/>
        <pt x="332" y="979" on="1"/>
        <pt x="205" y="803" on="1"/>
      </contour>
      <contour>
        <pt x="78" y="0" on="1"/>
        <pt x="78" y="740" on="1"/>
        <pt x="214" y="740" on="1"/>
        <pt x="214" y="118" on="1"/>
        <pt x="582" y="118" on="1"/>
        <pt x="582" y="0" on="1"/>
      </contour>
    </TTGlyph>
    <TTGlyph name="Lslash" xMin="3" yMin="0" xMax="595" yMax="740">
      <contour>
        <pt x="91" y="0" on="1"/>
        <pt x="91" y="304" on="1"/>
        <pt x="3" y="271" on="1"/>
        <pt x="3" y="374" on="1"/>
        <pt x="91" y="407" on="1"/>
        <pt x="91" y="740" on="1"/>
        <pt x="227" y="740" on="1"/>
        <pt x="227" y="458" on="1"/>
        <pt x="376" y="514" on="1"/>
        <pt x="376" y="411" on="1"/>
        <pt x="227" y="355" on="1"/>
        <pt x="227" y="118" on="1"/>
        <pt x="595" y="118" on="1"/>
        <pt x="595" y="0" on="1"/>
      </contour>
    </TTGlyph>
    <TTGlyph name="M" xMin="72" yMin="0" xMax="805" yMax="740">
      <contour>
        <pt x="72" y="0" on="1"/>
        <pt x="72" y="740" on="1"/>
        <pt x="253" y="740" on="1"/>
        <pt x="438" y="339" on="1"/>
        <pt x="627" y="740" on="1"/>
        <pt x="805" y="740" on="1"/>
        <pt x="805" y="0" on="1"/>
        <pt x="671" y="0" on="1"/>
        <pt x="671" y="535" on="1"/>
        <pt x="501" y="179" on="1"/>
        <pt x="375" y="179" on="1"/>
        <pt x="206" y="537" on="1"/>
        <pt x="206" y="0" on="1"/>
      </contour>
    </TTGlyph>
    <TTGlyph name="N" xMin="72" yMin="0" xMax="671" yMax="740">
      <contour>
        <pt x="72" y="0" on="1"/>
        <pt x="72" y="740" on="1"/>
        <pt x="196" y="740" on="1"/>
        <pt x="536" y="238" on="1"/>
        <pt x="536" y="740" on="1"/>
        <pt x="671" y="740" on="1"/>
        <pt x="671" y="0" on="1"/>
        <pt x="547" y="0" on="1"/>
        <pt x="207" y="493" on="1"/>
        <pt x="207" y="0" on="1"/>
      </contour>
    </TTGlyph>
    <TTGlyph name="Nacute" xMin="78" yMin="0" xMax="677" yMax="996">
      <contour>
        <pt x="426" y="816" on="1"/>
        <pt x="324" y="817" on="1"/>
        <pt x="407" y="996" on="1"/>
        <pt x="533" y="996" on="1"/>
      </contour>
      <contour>
        <pt x="78" y="0" on="1"/>
        <pt x="78" y="740" on="1"/>
        <pt x="202" y="740" on="1"/>
        <pt x="542" y="238" on="1"/>
        <pt x="542" y="740" on="1"/>
        <pt x="677" y="740" on="1"/>
        <pt x="677" y="0" on="1"/>
        <pt x="553" y="0" on="1"/>
        <pt x="213" y="493" on="1"/>
        <pt x="213" y="0" on="1"/>
      </contour>
    </TTGlyph>
    <TTGlyph name="Ncaron" xMin="78" yMin="0" xMax="677" yMax="979">
      <contour>
        <pt x="321" y="803" on="1"/>
        <pt x="195" y="979" on="1"/>
        <pt x="303" y="979" on="1"/>
        <pt x="375" y="874" on="1"/>
        <pt x="447" y="979" on="1"/>
        <pt x="555" y="979" on="1"/>
        <pt x="429" y="803" on="1"/>
      </contour>
      <contour>
        <pt x="78" y="0" on="1"/>
        <pt x="78" y="740" on="1"/>
        <pt x="202" y="740" on="1"/>
        <pt x="542" y="238" on="1"/>
        <pt x="542" y="740" on="1"/>
        <pt x="677" y="740" on="1"/>
        <pt x="677" y="0" on="1"/>
        <pt x="553" y="0" on="1"/>
        <pt x="213" y="493" on="1"/>
        <pt x="213" y="0" on="1"/>
      </contour>
    </TTGlyph>
    <TTGlyph name="Ntilde" xMin="78" yMin="0" xMax="677" yMax="972">
      <contour>
        <pt x="447" y="825" on="1"/>
        <pt x="420" y="825" on="0"/>
        <pt x="381" y="844" on="0"/>
        <pt x="353" y="869" on="0"/>
        <pt x="328" y="888" on="0"/>
        <pt x="314" y="888" on="1"/>
        <pt x="298" y="888" on="0"/>
        <pt x="285" y="857" on="0"/>
        <pt x="285" y="831" on="1"/>
        <pt x="209" y="831" on="1"/>
        <pt x="209" y="863" on="0"/>
        <pt x="225" y="929" on="0"/>
        <pt x="267" y="972" on="0"/>
        <pt x="306" y="972" on="1"/>
        <pt x="334" y="972" on="0"/>
        <pt x="372" y="953" on="0"/>
        <pt x="401" y="928" on="0"/>
        <pt x="426" y="909" on="0"/>
        <pt x="439" y="909" on="1"/>
        <pt x="454" y="909" on="0"/>
        <pt x="468" y="940" on="0"/>
        <pt x="468" y="967" on="1"/>
        <pt x="543" y="967" on="1"/>
        <pt x="543" y="934" on="0"/>
        <pt x="528" y="869" on="0"/>
        <pt x="486" y="825" on="0"/>
      </contour>
      <contour>
        <pt x="78" y="0" on="1"/>
        <pt x="78" y="740" on="1"/>
        <pt x="202" y="740" on="1"/>
        <pt x="542" y="238" on="1"/>
        <pt x="542" y="740" on="1"/>
        <pt x="677" y="740" on="1"/>
        <pt x="677" y="0" on="1"/>
        <pt x="553" y="0" on="1"/>
        <pt x="213" y="493" on="1"/>
        <pt x="213" y="0" on="1"/>
      </contour>
    </TTGlyph>
    <TTGlyph name="O" xMin="45" yMin="-10" xMax="783" yMax="750">
      <contour>
        <pt x="414" y="-10" on="1"/>
        <pt x="323" y="-10" on="0"/>
        <pt x="185" y="55" on="0"/>
        <pt x="92" y="164" on="0"/>
        <pt x="45" y="300" on="0"/>
        <pt x="45" y="371" on="1"/>
        <pt x="45" y="442" on="0"/>
        <pt x="92" y="577" on="0"/>
        <pt x="185" y="685" on="0"/>
        <pt x="323" y="750" on="0"/>
        <pt x="414" y="750" on="1"/>
        <pt x="505" y="750" on="0"/>
        <pt x="643" y="685" on="0"/>
        <pt x="736" y="577" on="0"/>
        <pt x="783" y="442" on="0"/>
        <pt x="783" y="371" on="1"/>
        <pt x="783" y="300" on="0"/>
        <pt x="736" y="164" on="0"/>
        <pt x="643" y="55" on="0"/>
        <pt x="505" y="-10" on="0"/>
      </contour>
      <contour>
        <pt x="414" y="113" on="1"/>
        <pt x="489" y="113" on="0"/>
        <pt x="590" y="187" on="0"/>
        <pt x="643" y="305" on="0"/>
        <pt x="643" y="371" on="1"/>
        <pt x="643" y="436" on="0"/>
        <pt x="590" y="553" on="0"/>
        <pt x="489" y="627" on="0"/>
        <pt x="414" y="627" on="1"/>
        <pt x="339" y="627" on="0"/>
        <pt x="237" y="553" on="0"/>
        <pt x="185" y="436" on="0"/>
        <pt x="185" y="371" on="1"/>
        <pt x="185" y="305" on="0"/>
        <pt x="237" y="187" on="0"/>
        <pt x="339" y="113" on="0"/>
      </contour>
    </TTGlyph>
    <TTGlyph name="OE" xMin="45" yMin="0" xMax="967" yMax="740">
      <contour>
        <pt x="962" y="740" on="1"/>
        <pt x="962" y="622" on="1"/>
        <pt x="607" y="622" on="1"/>
        <pt x="607" y="434" on="1"/>
        <pt x="916" y="434" on="1"/>
        <pt x="916" y="319" on="1"/>
        <pt x="607" y="319" on="1"/>
        <pt x="607" y="118" on="1"/>
        <pt x="967" y="118" on="1"/>
        <pt x="967" y="0" on="1"/>
        <pt x="428" y="0" on="1"/>
        <pt x="330" y="0" on="0"/>
        <pt x="185" y="63" on="0"/>
        <pt x="91" y="169" on="0"/>
        <pt x="45" y="301" on="0"/>
        <pt x="45" y="370" on="1"/>
        <pt x="45" y="439" on="0"/>
        <pt x="91" y="571" on="0"/>
        <pt x="185" y="677" on="0"/>
        <pt x="330" y="740" on="0"/>
        <pt x="428" y="740" on="1"/>
      </contour>
      <contour>
        <pt x="181" y="369" on="1"/>
        <pt x="181" y="322" on="0"/>
        <pt x="210" y="233" on="0"/>
        <pt x="270" y="161" on="0"/>
        <pt x="365" y="119" on="0"/>
        <pt x="431" y="119" on="1"/>
        <pt x="472" y="119" on="1"/>
        <pt x="472" y="620" on="1"/>
        <pt x="431" y="620" on="1"/>
        <pt x="365" y="620" on="0"/>
        <pt x="270" y="577" on="0"/>
        <pt x="210" y="506" on="0"/>
        <pt x="181" y="416" on="0"/>
      </contour>
    </TTGlyph>
    <TTGlyph name="Oacute" xMin="45" yMin="-10" xMax="783" yMax="1006">
      <contour>
        <pt x="465" y="826" on="1"/>
        <pt x="363" y="827" on="1"/>
        <pt x="446" y="1006" on="1"/>
        <pt x="572" y="1006" on="1"/>
      </contour>
      <contour>
        <pt x="414" y="-10" on="1"/>
        <pt x="323" y="-10" on="0"/>
        <pt x="185" y="55" on="0"/>
        <pt x="92" y="164" on="0"/>
        <pt x="45" y="300" on="0"/>
        <pt x="45" y="371" on="1"/>
        <pt x="45" y="442" on="0"/>
        <pt x="92" y="577" on="0"/>
        <pt x="185" y="685" on="0"/>
        <pt x="323" y="750" on="0"/>
        <pt x="414" y="750" on="1"/>
        <pt x="505" y="750" on="0"/>
        <pt x="643" y="685" on="0"/>
        <pt x="736" y="577" on="0"/>
        <pt x="783" y="442" on="0"/>
        <pt x="783" y="371" on="1"/>
        <pt x="783" y="300" on="0"/>
        <pt x="736" y="164" on="0"/>
        <pt x="643" y="55" on="0"/>
        <pt x="505" y="-10" on="0"/>
      </contour>
      <contour>
        <pt x="414" y="113" on="1"/>
        <pt x="489" y="113" on="0"/>
        <pt x="590" y="187" on="0"/>
        <pt x="643" y="305" on="0"/>
        <pt x="643" y="371" on="1"/>
        <pt x="643" y="436" on="0"/>
        <pt x="590" y="553" on="0"/>
        <pt x="489" y="627" on="0"/>
        <pt x="414" y="627" on="1"/>
        <pt x="339" y="627" on="0"/>
        <pt x="237" y="553" on="0"/>
        <pt x="185" y="436" on="0"/>
        <pt x="185" y="371" on="1"/>
        <pt x="185" y="305" on="0"/>
        <pt x="237" y="187" on="0"/>
        <pt x="339" y="113" on="0"/>
      </contour>
    </TTGlyph>
    <TTGlyph name="Ocircumflex" xMin="45" yMin="-10" xMax="783" yMax="971">
      <contour>
        <pt x="234" y="819" on="1"/>
        <pt x="361" y="971" on="1"/>
        <pt x="468" y="971" on="1"/>
        <pt x="595" y="819" on="1"/>
        <pt x="487" y="819" on="1"/>
        <pt x="414" y="907" on="1"/>
        <pt x="342" y="819" on="1"/>
      </contour>
      <contour>
        <pt x="414" y="-10" on="1"/>
        <pt x="323" y="-10" on="0"/>
        <pt x="185" y="55" on="0"/>
        <pt x="92" y="164" on="0"/>
        <pt x="45" y="300" on="0"/>
        <pt x="45" y="371" on="1"/>
        <pt x="45" y="442" on="0"/>
        <pt x="92" y="577" on="0"/>
        <pt x="185" y="685" on="0"/>
        <pt x="323" y="750" on="0"/>
        <pt x="414" y="750" on="1"/>
        <pt x="505" y="750" on="0"/>
        <pt x="643" y="685" on="0"/>
        <pt x="736" y="577" on="0"/>
        <pt x="783" y="442" on="0"/>
        <pt x="783" y="371" on="1"/>
        <pt x="783" y="300" on="0"/>
        <pt x="736" y="164" on="0"/>
        <pt x="643" y="55" on="0"/>
        <pt x="505" y="-10" on="0"/>
      </contour>
      <contour>
        <pt x="414" y="113" on="1"/>
        <pt x="489" y="113" on="0"/>
        <pt x="590" y="187" on="0"/>
        <pt x="643" y="305" on="0"/>
        <pt x="643" y="371" on="1"/>
        <pt x="643" y="436" on="0"/>
        <pt x="590" y="553" on="0"/>
        <pt x="489" y="627" on="0"/>
        <pt x="414" y="627" on="1"/>
        <pt x="339" y="627" on="0"/>
        <pt x="237" y="553" on="0"/>
        <pt x="185" y="436" on="0"/>
        <pt x="185" y="371" on="1"/>
        <pt x="185" y="305" on="0"/>
        <pt x="237" y="187" on="0"/>
        <pt x="339" y="113" on="0"/>
      </contour>
    </TTGlyph>
    <TTGlyph name="Odieresis" xMin="45" yMin="-10" xMax="783" yMax="970">
      <contour>
        <pt x="521" y="817" on="1"/>
        <pt x="486" y="817" on="0"/>
        <pt x="443" y="863" on="0"/>
        <pt x="443" y="893" on="1"/>
        <pt x="443" y="925" on="0"/>
        <pt x="486" y="970" on="0"/>
        <pt x="521" y="970" on="1"/>
        <pt x="554" y="970" on="0"/>
        <pt x="599" y="925" on="0"/>
        <pt x="599" y="893" on="1"/>
        <pt x="599" y="862" on="0"/>
        <pt x="554" y="817" on="0"/>
      </contour>
      <contour>
        <pt x="306" y="817" on="1"/>
        <pt x="272" y="817" on="0"/>
        <pt x="228" y="863" on="0"/>
        <pt x="228" y="893" on="1"/>
        <pt x="228" y="925" on="0"/>
        <pt x="272" y="970" on="0"/>
        <pt x="306" y="970" on="1"/>
        <pt x="340" y="970" on="0"/>
        <pt x="384" y="925" on="0"/>
        <pt x="384" y="893" on="1"/>
        <pt x="384" y="862" on="0"/>
        <pt x="340" y="817" on="0"/>
      </contour>
      <contour>
        <pt x="414" y="-10" on="1"/>
        <pt x="323" y="-10" on="0"/>
        <pt x="185" y="55" on="0"/>
        <pt x="92" y="164" on="0"/>
        <pt x="45" y="300" on="0"/>
        <pt x="45" y="371" on="1"/>
        <pt x="45" y="442" on="0"/>
        <pt x="92" y="577" on="0"/>
        <pt x="185" y="685" on="0"/>
        <pt x="323" y="750" on="0"/>
        <pt x="414" y="750" on="1"/>
        <pt x="505" y="750" on="0"/>
        <pt x="643" y="685" on="0"/>
        <pt x="736" y="577" on="0"/>
        <pt x="783" y="442" on="0"/>
        <pt x="783" y="371" on="1"/>
        <pt x="783" y="300" on="0"/>
        <pt x="736" y="164" on="0"/>
        <pt x="643" y="55" on="0"/>
        <pt x="505" y="-10" on="0"/>
      </contour>
      <contour>
        <pt x="414" y="113" on="1"/>
        <pt x="489" y="113" on="0"/>
        <pt x="590" y="187" on="0"/>
        <pt x="643" y="305" on="0"/>
        <pt x="643" y="371" on="1"/>
        <pt x="643" y="436" on="0"/>
        <pt x="590" y="553" on="0"/>
        <pt x="489" y="627" on="0"/>
        <pt x="414" y="627" on="1"/>
        <pt x="339" y="627" on="0"/>
        <pt x="237" y="553" on="0"/>
        <pt x="185" y="436" on="0"/>
        <pt x="185" y="371" on="1"/>
        <pt x="185" y="305" on="0"/>
        <pt x="237" y="187" on="0"/>
        <pt x="339" y="113" on="0"/>
      </contour>
    </TTGlyph>
    <TTGlyph name="Ograve" xMin="45" yMin="-10" xMax="783" yMax="1006">
      <contour>
        <pt x="366" y="826" on="1"/>
        <pt x="259" y="1006" on="1"/>
        <pt x="386" y="1006" on="1"/>
        <pt x="468" y="827" on="1"/>
      </contour>
      <contour>
        <pt x="414" y="-10" on="1"/>
        <pt x="323" y="-10" on="0"/>
        <pt x="185" y="55" on="0"/>
        <pt x="92" y="164" on="0"/>
        <pt x="45" y="300" on="0"/>
        <pt x="45" y="371" on="1"/>
        <pt x="45" y="442" on="0"/>
        <pt x="92" y="577" on="0"/>
        <pt x="185" y="685" on="0"/>
        <pt x="323" y="750" on="0"/>
        <pt x="414" y="750" on="1"/>
        <pt x="505" y="750" on="0"/>
        <pt x="643" y="685" on="0"/>
        <pt x="736" y="577" on="0"/>
        <pt x="783" y="442" on="0"/>
        <pt x="783" y="371" on="1"/>
        <pt x="783" y="300" on="0"/>
        <pt x="736" y="164" on="0"/>
        <pt x="643" y="55" on="0"/>
        <pt x="505" y="-10" on="0"/>
      </contour>
      <contour>
        <pt x="414" y="113" on="1"/>
        <pt x="489" y="113" on="0"/>
        <pt x="590" y="187" on="0"/>
        <pt x="643" y="305" on="0"/>
        <pt x="643" y="371" on="1"/>
        <pt x="643" y="436" on="0"/>
        <pt x="590" y="553" on="0"/>
        <pt x="489" y="627" on="0"/>
        <pt x="414" y="627" on="1"/>
        <pt x="339" y="627" on="0"/>
        <pt x="237" y="553" on="0"/>
        <pt x="185" y="436" on="0"/>
        <pt x="185" y="371" on="1"/>
        <pt x="185" y="305" on="0"/>
        <pt x="237" y="187" on="0"/>
        <pt x="339" y="113" on="0"/>
      </contour>
    </TTGlyph>
    <TTGlyph name="Ohorn" xMin="45" yMin="-10" xMax="783" yMax="857">
      <contour>
        <pt x="414" y="-10" on="1"/>
        <pt x="323" y="-10" on="0"/>
        <pt x="185" y="55" on="0"/>
        <pt x="92" y="164" on="0"/>
        <pt x="45" y="300" on="0"/>
        <pt x="45" y="371" on="1"/>
        <pt x="45" y="442" on="0"/>
        <pt x="92" y="577" on="0"/>
        <pt x="185" y="685" on="0"/>
        <pt x="323" y="750" on="0"/>
        <pt x="414" y="750" on="1"/>
        <pt x="423" y="750" on="0"/>
        <pt x="433" y="750" on="1"/>
        <pt x="581" y="750" on="1"/>
        <pt x="629" y="750" on="0"/>
        <pt x="629" y="799" on="1"/>
        <pt x="629" y="857" on="1"/>
        <pt x="747" y="857" on="1"/>
        <pt x="747" y="789" on="1"/>
        <pt x="747" y="736" on="0"/>
        <pt x="699" y="676" on="0"/>
        <pt x="648" y="672" on="1"/>
        <pt x="715" y="617" on="0"/>
        <pt x="783" y="456" on="0"/>
        <pt x="783" y="371" on="1"/>
        <pt x="783" y="300" on="0"/>
        <pt x="736" y="164" on="0"/>
        <pt x="643" y="55" on="0"/>
        <pt x="505" y="-10" on="0"/>
      </contour>
      <contour>
        <pt x="414" y="113" on="1"/>
        <pt x="489" y="113" on="0"/>
        <pt x="590" y="187" on="0"/>
        <pt x="643" y="305" on="0"/>
        <pt x="643" y="371" on="1"/>
        <pt x="643" y="436" on="0"/>
        <pt x="590" y="553" on="0"/>
        <pt x="489" y="627" on="0"/>
        <pt x="414" y="627" on="1"/>
        <pt x="339" y="627" on="0"/>
        <pt x="237" y="553" on="0"/>
        <pt x="185" y="436" on="0"/>
        <pt x="185" y="371" on="1"/>
        <pt x="185" y="305" on="0"/>
        <pt x="237" y="187" on="0"/>
        <pt x="339" y="113" on="0"/>
      </contour>
    </TTGlyph>
    <TTGlyph name="Ohungarumlaut" xMin="45" yMin="-10" xMax="783" yMax="1006">
      <contour>
        <pt x="372" y="826" on="1"/>
        <pt x="274" y="827" on="1"/>
        <pt x="321" y="1006" on="1"/>
        <pt x="444" y="1006" on="1"/>
      </contour>
      <contour>
        <pt x="550" y="826" on="1"/>
        <pt x="452" y="827" on="1"/>
        <pt x="498" y="1006" on="1"/>
        <pt x="621" y="1006" on="1"/>
      </contour>
      <contour>
        <pt x="414" y="-10" on="1"/>
        <pt x="323" y="-10" on="0"/>
        <pt x="185" y="55" on="0"/>
        <pt x="92" y="164" on="0"/>
        <pt x="45" y="300" on="0"/>
        <pt x="45" y="371" on="1"/>
        <pt x="45" y="442" on="0"/>
        <pt x="92" y="577" on="0"/>
        <pt x="185" y="685" on="0"/>
        <pt x="323" y="750" on="0"/>
        <pt x="414" y="750" on="1"/>
        <pt x="505" y="750" on="0"/>
        <pt x="643" y="685" on="0"/>
        <pt x="736" y="577" on="0"/>
        <pt x="783" y="442" on="0"/>
        <pt x="783" y="371" on="1"/>
        <pt x="783" y="300" on="0"/>
        <pt x="736" y="164" on="0"/>
        <pt x="643" y="55" on="0"/>
        <pt x="505" y="-10" on="0"/>
      </contour>
      <contour>
        <pt x="414" y="113" on="1"/>
        <pt x="489" y="113" on="0"/>
        <pt x="590" y="187" on="0"/>
        <pt x="643" y="305" on="0"/>
        <pt x="643" y="371" on="1"/>
        <pt x="643" y="436" on="0"/>
        <pt x="590" y="553" on="0"/>
        <pt x="489" y="627" on="0"/>
        <pt x="414" y="627" on="1"/>
        <pt x="339" y="627" on="0"/>
        <pt x="237" y="553" on="0"/>
        <pt x="185" y="436" on="0"/>
        <pt x="185" y="371" on="1"/>
        <pt x="185" y="305" on="0"/>
        <pt x="237" y="187" on="0"/>
        <pt x="339" y="113" on="0"/>
      </contour>
    </TTGlyph>
    <TTGlyph name="Omacron" xMin="45" yMin="-10" xMax="783" yMax="923">
      <contour>
        <pt x="255" y="839" on="1"/>
        <pt x="255" y="923" on="1"/>
        <pt x="573" y="923" on="1"/>
        <pt x="573" y="839" on="1"/>
      </contour>
      <contour>
        <pt x="414" y="-10" on="1"/>
        <pt x="323" y="-10" on="0"/>
        <pt x="185" y="55" on="0"/>
        <pt x="92" y="164" on="0"/>
        <pt x="45" y="300" on="0"/>
        <pt x="45" y="371" on="1"/>
        <pt x="45" y="442" on="0"/>
        <pt x="92" y="577" on="0"/>
        <pt x="185" y="685" on="0"/>
        <pt x="323" y="750" on="0"/>
        <pt x="414" y="750" on="1"/>
        <pt x="505" y="750" on="0"/>
        <pt x="643" y="685" on="0"/>
        <pt x="736" y="577" on="0"/>
        <pt x="783" y="442" on="0"/>
        <pt x="783" y="371" on="1"/>
        <pt x="783" y="300" on="0"/>
        <pt x="736" y="164" on="0"/>
        <pt x="643" y="55" on="0"/>
        <pt x="505" y="-10" on="0"/>
      </contour>
      <contour>
        <pt x="414" y="113" on="1"/>
        <pt x="489" y="113" on="0"/>
        <pt x="590" y="187" on="0"/>
        <pt x="643" y="305" on="0"/>
        <pt x="643" y="371" on="1"/>
        <pt x="643" y="436" on="0"/>
        <pt x="590" y="553" on="0"/>
        <pt x="489" y="627" on="0"/>
        <pt x="414" y="627" on="1"/>
        <pt x="339" y="627" on="0"/>
        <pt x="237" y="553" on="0"/>
        <pt x="185" y="436" on="0"/>
        <pt x="185" y="371" on="1"/>
        <pt x="185" y="305" on="0"/>
        <pt x="237" y="187" on="0"/>
        <pt x="339" y="113" on="0"/>
      </contour>
    </TTGlyph>
    <TTGlyph name="Oslash" xMin="45" yMin="-24" xMax="783" yMax="763">
      <contour>
        <pt x="95" y="-24" on="1"/>
        <pt x="164" y="83" on="1"/>
        <pt x="105" y="138" on="0"/>
        <pt x="45" y="291" on="0"/>
        <pt x="45" y="371" on="1"/>
        <pt x="45" y="442" on="0"/>
        <pt x="92" y="577" on="0"/>
        <pt x="185" y="685" on="0"/>
        <pt x="323" y="750" on="0"/>
        <pt x="414" y="750" on="1"/>
        <pt x="458" y="750" on="0"/>
        <pt x="537" y="734" on="0"/>
        <pt x="571" y="719" on="1"/>
        <pt x="599" y="763" on="1"/>
        <pt x="732" y="763" on="1"/>
        <pt x="664" y="657" on="1"/>
        <pt x="723" y="603" on="0"/>
        <pt x="783" y="451" on="0"/>
        <pt x="783" y="371" on="1"/>
        <pt x="783" y="300" on="0"/>
        <pt x="736" y="164" on="0"/>
        <pt x="643" y="55" on="0"/>
        <pt x="505" y="-10" on="0"/>
        <pt x="414" y="-10" on="1"/>
        <pt x="369" y="-10" on="0"/>
        <pt x="291" y="6" on="0"/>
        <pt x="257" y="21" on="1"/>
        <pt x="228" y="-24" on="1"/>
      </contour>
      <contour>
        <pt x="185" y="371" on="1"/>
        <pt x="185" y="324" on="0"/>
        <pt x="212" y="235" on="0"/>
        <pt x="238" y="200" on="1"/>
        <pt x="501" y="611" on="1"/>
        <pt x="461" y="627" on="0"/>
        <pt x="414" y="627" on="1"/>
        <pt x="339" y="627" on="0"/>
        <pt x="237" y="553" on="0"/>
        <pt x="185" y="436" on="0"/>
      </contour>
      <contour>
        <pt x="414" y="113" on="1"/>
        <pt x="489" y="113" on="0"/>
        <pt x="590" y="187" on="0"/>
        <pt x="643" y="305" on="0"/>
        <pt x="643" y="371" on="1"/>
        <pt x="643" y="417" on="0"/>
        <pt x="616" y="506" on="0"/>
        <pt x="589" y="541" on="1"/>
        <pt x="326" y="130" on="1"/>
        <pt x="366" y="113" on="0"/>
      </contour>
    </TTGlyph>
    <TTGlyph name="Otilde" xMin="45" yMin="-10" xMax="783" yMax="982">
      <contour>
        <pt x="486" y="835" on="1"/>
        <pt x="459" y="835" on="0"/>
        <pt x="420" y="854" on="0"/>
        <pt x="392" y="879" on="0"/>
        <pt x="367" y="898" on="0"/>
        <pt x="353" y="898" on="1"/>
        <pt x="337" y="898" on="0"/>
        <pt x="324" y="867" on="0"/>
        <pt x="324" y="841" on="1"/>
        <pt x="248" y="841" on="1"/>
        <pt x="248" y="873" on="0"/>
        <pt x="264" y="939" on="0"/>
        <pt x="306" y="982" on="0"/>
        <pt x="345" y="982" on="1"/>
        <pt x="373" y="982" on="0"/>
        <pt x="411" y="963" on="0"/>
        <pt x="440" y="938" on="0"/>
        <pt x="465" y="919" on="0"/>
        <pt x="478" y="919" on="1"/>
        <pt x="493" y="919" on="0"/>
        <pt x="507" y="950" on="0"/>
        <pt x="507" y="977" on="1"/>
        <pt x="582" y="977" on="1"/>
        <pt x="582" y="944" on="0"/>
        <pt x="567" y="879" on="0"/>
        <pt x="525" y="835" on="0"/>
      </contour>
      <contour>
        <pt x="414" y="-10" on="1"/>
        <pt x="323" y="-10" on="0"/>
        <pt x="185" y="55" on="0"/>
        <pt x="92" y="164" on="0"/>
        <pt x="45" y="300" on="0"/>
        <pt x="45" y="371" on="1"/>
        <pt x="45" y="442" on="0"/>
        <pt x="92" y="577" on="0"/>
        <pt x="185" y="685" on="0"/>
        <pt x="323" y="750" on="0"/>
        <pt x="414" y="750" on="1"/>
        <pt x="505" y="750" on="0"/>
        <pt x="643" y="685" on="0"/>
        <pt x="736" y="577" on="0"/>
        <pt x="783" y="442" on="0"/>
        <pt x="783" y="371" on="1"/>
        <pt x="783" y="300" on="0"/>
        <pt x="736" y="164" on="0"/>
        <pt x="643" y="55" on="0"/>
        <pt x="505" y="-10" on="0"/>
      </contour>
      <contour>
        <pt x="414" y="113" on="1"/>
        <pt x="489" y="113" on="0"/>
        <pt x="590" y="187" on="0"/>
        <pt x="643" y="305" on="0"/>
        <pt x="643" y="371" on="1"/>
        <pt x="643" y="436" on="0"/>
        <pt x="590" y="553" on="0"/>
        <pt x="489" y="627" on="0"/>
        <pt x="414" y="627" on="1"/>
        <pt x="339" y="627" on="0"/>
        <pt x="237" y="553" on="0"/>
        <pt x="185" y="436" on="0"/>
        <pt x="185" y="371" on="1"/>
        <pt x="185" y="305" on="0"/>
        <pt x="237" y="187" on="0"/>
        <pt x="339" y="113" on="0"/>
      </contour>
    </TTGlyph>
    <TTGlyph name="P" xMin="72" yMin="0" xMax="630" yMax="740">
      <contour>
        <pt x="72" y="0" on="1"/>
        <pt x="72" y="740" on="1"/>
        <pt x="364" y="740" on="1"/>
        <pt x="453" y="740" on="0"/>
        <pt x="571" y="669" on="0"/>
        <pt x="630" y="556" on="0"/>
        <pt x="630" y="495" on="1"/>
        <pt x="630" y="434" on="0"/>
        <pt x="571" y="321" on="0"/>
        <pt x="453" y="249" on="0"/>
        <pt x="364" y="249" on="1"/>
        <pt x="208" y="249" on="1"/>
        <pt x="208" y="0" on="1"/>
      </contour>
      <contour>
        <pt x="363" y="622" on="1"/>
        <pt x="208" y="622" on="1"/>
        <pt x="208" y="367" on="1"/>
        <pt x="363" y="367" on="1"/>
        <pt x="407" y="367" on="0"/>
        <pt x="465" y="404" on="0"/>
        <pt x="494" y="463" on="0"/>
        <pt x="494" y="494" on="1"/>
        <pt x="494" y="526" on="0"/>
        <pt x="465" y="584" on="0"/>
        <pt x="407" y="622" on="0"/>
      </contour>
    </TTGlyph>
    <TTGlyph name="Q" xMin="45" yMin="-10" xMax="799" yMax="750">
      <contour>
        <pt x="414" y="-10" on="1"/>
        <pt x="323" y="-10" on="0"/>
        <pt x="185" y="55" on="0"/>
        <pt x="92" y="164" on="0"/>
        <pt x="45" y="300" on="0"/>
        <pt x="45" y="371" on="1"/>
        <pt x="45" y="442" on="0"/>
        <pt x="92" y="577" on="0"/>
        <pt x="185" y="685" on="0"/>
        <pt x="323" y="750" on="0"/>
        <pt x="414" y="750" on="1"/>
        <pt x="505" y="750" on="0"/>
        <pt x="643" y="685" on="0"/>
        <pt x="736" y="577" on="0"/>
        <pt x="783" y="442" on="0"/>
        <pt x="783" y="371" on="1"/>
        <pt x="783" y="301" on="0"/>
        <pt x="738" y="167" on="0"/>
        <pt x="693" y="114" on="1"/>
        <pt x="799" y="0" on="1"/>
        <pt x="648" y="0" on="1"/>
        <pt x="609" y="41" on="1"/>
        <pt x="569" y="17" on="0"/>
        <pt x="472" y="-10" on="0"/>
      </contour>
      <contour>
        <pt x="414" y="113" on="1"/>
        <pt x="444" y="113" on="0"/>
        <pt x="496" y="126" on="0"/>
        <pt x="518" y="138" on="1"/>
        <pt x="403" y="260" on="1"/>
        <pt x="489" y="334" on="1"/>
        <pt x="600" y="214" on="1"/>
        <pt x="621" y="248" on="0"/>
        <pt x="643" y="329" on="0"/>
        <pt x="643" y="371" on="1"/>
        <pt x="643" y="436" on="0"/>
        <pt x="590" y="553" on="0"/>
        <pt x="489" y="627" on="0"/>
        <pt x="414" y="627" on="1"/>
        <pt x="339" y="627" on="0"/>
        <pt x="237" y="553" on="0"/>
        <pt x="185" y="436" on="0"/>
        <pt x="185" y="371" on="1"/>
        <pt x="185" y="305" on="0"/>
        <pt x="237" y="187" on="0"/>
        <pt x="339" y="113" on="0"/>
      </contour>
    </TTGlyph>
    <TTGlyph name="R" xMin="72" yMin="0" xMax="634" yMax="740">
      <contour>
        <pt x="72" y="0" on="1"/>
        <pt x="72" y="740" on="1"/>
        <pt x="360" y="740" on="1"/>
        <pt x="440" y="740" on="0"/>
        <pt x="553" y="681" on="0"/>
        <pt x="612" y="580" on="0"/>
        <pt x="612" y="517" on="1"/>
        <pt x="612" y="446" on="0"/>
        <pt x="536" y="335" on="0"/>
        <pt x="464" y="310" on="1"/>
        <pt x="634" y="0" on="1"/>
        <pt x="483" y="0" on="1"/>
        <pt x="325" y="294" on="1"/>
        <pt x="208" y="294" on="1"/>
        <pt x="208" y="0" on="1"/>
      </contour>
      <contour>
        <pt x="358" y="622" on="1"/>
        <pt x="208" y="622" on="1"/>
        <pt x="208" y="405" on="1"/>
        <pt x="358" y="405" on="1"/>
        <pt x="415" y="405" on="0"/>
        <pt x="475" y="470" on="0"/>
        <pt x="475" y="514" on="1"/>
        <pt x="475" y="558" on="0"/>
        <pt x="415" y="622" on="0"/>
      </contour>
    </TTGlyph>
    <TTGlyph name="Racute" xMin="78" yMin="0" xMax="640" yMax="996">
      <contour>
        <pt x="335" y="816" on="1"/>
        <pt x="233" y="817" on="1"/>
        <pt x="316" y="996" on="1"/>
        <pt x="443" y="996" on="1"/>
      </contour>
      <contour>
        <pt x="78" y="0" on="1"/>
        <pt x="78" y="740" on="1"/>
        <pt x="366" y="740" on="1"/>
        <pt x="446" y="740" on="0"/>
        <pt x="559" y="681" on="0"/>
        <pt x="618" y="580" on="0"/>
        <pt x="618" y="517" on="1"/>
        <pt x="618" y="446" on="0"/>
        <pt x="542" y="335" on="0"/>
        <pt x="470" y="310" on="1"/>
        <pt x="640" y="0" on="1"/>
        <pt x="489" y="0" on="1"/>
        <pt x="331" y="294" on="1"/>
        <pt x="214" y="294" on="1"/>
        <pt x="214" y="0" on="1"/>
      </contour>
      <contour>
        <pt x="364" y="622" on="1"/>
        <pt x="214" y="622" on="1"/>
        <pt x="214" y="405" on="1"/>
        <pt x="364" y="405" on="1"/>
        <pt x="421" y="405" on="0"/>
        <pt x="481" y="470" on="0"/>
        <pt x="481" y="514" on="1"/>
        <pt x="481" y="558" on="0"/>
        <pt x="421" y="622" on="0"/>
      </contour>
    </TTGlyph>
    <TTGlyph name="Rcaron" xMin="78" yMin="0" xMax="640" yMax="979">
      <contour>
        <pt x="230" y="803" on="1"/>
        <pt x="104" y="979" on="1"/>
        <pt x="212" y="979" on="1"/>
        <pt x="284" y="874" on="1"/>
        <pt x="356" y="979" on="1"/>
        <pt x="464" y="979" on="1"/>
        <pt x="338" y="803" on="1"/>
      </contour>
      <contour>
        <pt x="78" y="0" on="1"/>
        <pt x="78" y="740" on="1"/>
        <pt x="366" y="740" on="1"/>
        <pt x="446" y="740" on="0"/>
        <pt x="559" y="681" on="0"/>
        <pt x="618" y="580" on="0"/>
        <pt x="618" y="517" on="1"/>
        <pt x="618" y="446" on="0"/>
        <pt x="542" y="335" on="0"/>
        <pt x="470" y="310" on="1"/>
        <pt x="640" y="0" on="1"/>
        <pt x="489" y="0" on="1"/>
        <pt x="331" y="294" on="1"/>
        <pt x="214" y="294" on="1"/>
        <pt x="214" y="0" on="1"/>
      </contour>
      <contour>
        <pt x="364" y="622" on="1"/>
        <pt x="214" y="622" on="1"/>
        <pt x="214" y="405" on="1"/>
        <pt x="364" y="405" on="1"/>
        <pt x="421" y="405" on="0"/>
        <pt x="481" y="470" on="0"/>
        <pt x="481" y="514" on="1"/>
        <pt x="481" y="558" on="0"/>
        <pt x="421" y="622" on="0"/>
      </contour>
    </TTGlyph>
    <TTGlyph name="S" xMin="44" yMin="-10" xMax="617" yMax="750">
      <contour>
        <pt x="339" y="-10" on="1"/>
        <pt x="270" y="-10" on="0"/>
        <pt x="172" y="24" on="0"/>
        <pt x="107" y="78" on="0"/>
        <pt x="69" y="139" on="0"/>
        <pt x="50" y="193" on="0"/>
        <pt x="44" y="227" on="0"/>
        <pt x="44" y="227" on="1"/>
        <pt x="182" y="227" on="1"/>
        <pt x="182" y="227" on="0"/>
        <pt x="187" y="203" on="0"/>
        <pt x="205" y="166" on="0"/>
        <pt x="240" y="130" on="0"/>
        <pt x="299" y="105" on="0"/>
        <pt x="343" y="105" on="1"/>
        <pt x="411" y="105" on="0"/>
        <pt x="482" y="166" on="0"/>
        <pt x="482" y="211" on="1"/>
        <pt x="482" y="249" on="0"/>
        <pt x="428" y="294" on="0"/>
        <pt x="375" y="305" on="1"/>
        <pt x="277" y="326" on="1"/>
        <pt x="220" y="338" on="0"/>
        <pt x="121" y="386" on="0"/>
        <pt x="61" y="468" on="0"/>
        <pt x="61" y="532" on="1"/>
        <pt x="61" y="599" on="0"/>
        <pt x="128" y="697" on="0"/>
        <pt x="246" y="750" on="0"/>
        <pt x="325" y="750" on="1"/>
        <pt x="400" y="750" on="0"/>
        <pt x="498" y="706" on="0"/>
        <pt x="557" y="642" on="0"/>
        <pt x="585" y="578" on="0"/>
        <pt x="594" y="534" on="0"/>
        <pt x="594" y="534" on="1"/>
        <pt x="461" y="534" on="1"/>
        <pt x="461" y="534" on="0"/>
        <pt x="453" y="565" on="0"/>
        <pt x="425" y="605" on="0"/>
        <pt x="369" y="636" on="0"/>
        <pt x="322" y="636" on="1"/>
        <pt x="255" y="636" on="0"/>
        <pt x="194" y="576" on="0"/>
        <pt x="194" y="541" on="1"/>
        <pt x="194" y="505" on="0"/>
        <pt x="250" y="465" on="0"/>
        <pt x="297" y="454" on="1"/>
        <pt x="402" y="432" on="1"/>
        <pt x="461" y="419" on="0"/>
        <pt x="559" y="367" on="0"/>
        <pt x="617" y="282" on="0"/>
        <pt x="617" y="219" on="1"/>
        <pt x="617" y="155" on="0"/>
        <pt x="553" y="51" on="0"/>
        <pt x="429" y="-10" on="0"/>
      </contour>
    </TTGlyph>
    <TTGlyph name="Sacute" xMin="44" yMin="-10" xMax="617" yMax="996">
      <contour>
        <pt x="380" y="816" on="1"/>
        <pt x="278" y="817" on="1"/>
        <pt x="360" y="996" on="1"/>
        <pt x="487" y="996" on="1"/>
      </contour>
      <contour>
        <pt x="339" y="-10" on="1"/>
        <pt x="270" y="-10" on="0"/>
        <pt x="172" y="24" on="0"/>
        <pt x="107" y="78" on="0"/>
        <pt x="69" y="139" on="0"/>
        <pt x="50" y="193" on="0"/>
        <pt x="44" y="227" on="0"/>
        <pt x="44" y="227" on="1"/>
        <pt x="182" y="227" on="1"/>
        <pt x="182" y="227" on="0"/>
        <pt x="187" y="203" on="0"/>
        <pt x="205" y="166" on="0"/>
        <pt x="240" y="130" on="0"/>
        <pt x="299" y="105" on="0"/>
        <pt x="343" y="105" on="1"/>
        <pt x="411" y="105" on="0"/>
        <pt x="482" y="166" on="0"/>
        <pt x="482" y="211" on="1"/>
        <pt x="482" y="249" on="0"/>
        <pt x="428" y="294" on="0"/>
        <pt x="375" y="305" on="1"/>
        <pt x="277" y="326" on="1"/>
        <pt x="220" y="338" on="0"/>
        <pt x="121" y="386" on="0"/>
        <pt x="61" y="468" on="0"/>
        <pt x="61" y="532" on="1"/>
        <pt x="61" y="599" on="0"/>
        <pt x="128" y="697" on="0"/>
        <pt x="246" y="750" on="0"/>
        <pt x="325" y="750" on="1"/>
        <pt x="400" y="750" on="0"/>
        <pt x="498" y="706" on="0"/>
        <pt x="557" y="642" on="0"/>
        <pt x="585" y="578" on="0"/>
        <pt x="594" y="534" on="0"/>
        <pt x="594" y="534" on="1"/>
        <pt x="461" y="534" on="1"/>
        <pt x="461" y="534" on="0"/>
        <pt x="453" y="565" on="0"/>
        <pt x="425" y="605" on="0"/>
        <pt x="369" y="636" on="0"/>
        <pt x="322" y="636" on="1"/>
        <pt x="255" y="636" on="0"/>
        <pt x="194" y="576" on="0"/>
        <pt x="194" y="541" on="1"/>
        <pt x="194" y="505" on="0"/>
        <pt x="250" y="465" on="0"/>
        <pt x="297" y="454" on="1"/>
        <pt x="402" y="432" on="1"/>
        <pt x="461" y="419" on="0"/>
        <pt x="559" y="367" on="0"/>
        <pt x="617" y="282" on="0"/>
        <pt x="617" y="219" on="1"/>
        <pt x="617" y="155" on="0"/>
        <pt x="553" y="51" on="0"/>
        <pt x="429" y="-10" on="0"/>
      </contour>
    </TTGlyph>
    <TTGlyph name="Scaron" xMin="44" yMin="-10" xMax="617" yMax="979">
      <contour>
        <pt x="275" y="803" on="1"/>
        <pt x="148" y="979" on="1"/>
        <pt x="256" y="979" on="1"/>
        <pt x="329" y="874" on="1"/>
        <pt x="401" y="979" on="1"/>
        <pt x="509" y="979" on="1"/>
        <pt x="382" y="803" on="1"/>
      </contour>
      <contour>
        <pt x="339" y="-10" on="1"/>
        <pt x="270" y="-10" on="0"/>
        <pt x="172" y="24" on="0"/>
        <pt x="107" y="78" on="0"/>
        <pt x="69" y="139" on="0"/>
        <pt x="50" y="193" on="0"/>
        <pt x="44" y="227" on="0"/>
        <pt x="44" y="227" on="1"/>
        <pt x="182" y="227" on="1"/>
        <pt x="182" y="227" on="0"/>
        <pt x="187" y="203" on="0"/>
        <pt x="205" y="166" on="0"/>
        <pt x="240" y="130" on="0"/>
        <pt x="299" y="105" on="0"/>
        <pt x="343" y="105" on="1"/>
        <pt x="411" y="105" on="0"/>
        <pt x="482" y="166" on="0"/>
        <pt x="482" y="211" on="1"/>
        <pt x="482" y="249" on="0"/>
        <pt x="428" y="294" on="0"/>
        <pt x="375" y="305" on="1"/>
        <pt x="277" y="326" on="1"/>
        <pt x="220" y="338" on="0"/>
        <pt x="121" y="386" on="0"/>
        <pt x="61" y="468" on="0"/>
        <pt x="61" y="532" on="1"/>
        <pt x="61" y="599" on="0"/>
        <pt x="128" y="697" on="0"/>
        <pt x="246" y="750" on="0"/>
        <pt x="325" y="750" on="1"/>
        <pt x="400" y="750" on="0"/>
        <pt x="498" y="706" on="0"/>
        <pt x="557" y="642" on="0"/>
        <pt x="585" y="578" on="0"/>
        <pt x="594" y="534" on="0"/>
        <pt x="594" y="534" on="1"/>
        <pt x="461" y="534" on="1"/>
        <pt x="461" y="534" on="0"/>
        <pt x="453" y="565" on="0"/>
        <pt x="425" y="605" on="0"/>
        <pt x="369" y="636" on="0"/>
        <pt x="322" y="636" on="1"/>
        <pt x="255" y="636" on="0"/>
        <pt x="194" y="576" on="0"/>
        <pt x="194" y="541" on="1"/>
        <pt x="194" y="505" on="0"/>
        <pt x="250" y="465" on="0"/>
        <pt x="297" y="454" on="1"/>
        <pt x="402" y="432" on="1"/>
        <pt x="461" y="419" on="0"/>
        <pt x="559" y="367" on="0"/>
        <pt x="617" y="282" on="0"/>
        <pt x="617" y="219" on="1"/>
        <pt x="617" y="155" on="0"/>
        <pt x="553" y="51" on="0"/>
        <pt x="429" y="-10" on="0"/>
      </contour>
    </TTGlyph>
    <TTGlyph name="Scedilla" xMin="44" yMin="-261" xMax="617" yMax="750">
      <contour>
        <pt x="304" y="-261" on="1"/>
        <pt x="277" y="-261" on="0"/>
        <pt x="226" y="-254" on="0"/>
        <pt x="226" y="-254" on="1"/>
        <pt x="226" y="-182" on="1"/>
        <pt x="226" y="-182" on="0"/>
        <pt x="250" y="-185" on="0"/>
        <pt x="283" y="-188" on="0"/>
        <pt x="298" y="-188" on="1"/>
        <pt x="341" y="-188" on="0"/>
        <pt x="371" y="-159" on="0"/>
        <pt x="371" y="-144" on="1"/>
        <pt x="371" y="-128" on="0"/>
        <pt x="347" y="-107" on="0"/>
        <pt x="325" y="-107" on="1"/>
        <pt x="302" y="-107" on="0"/>
        <pt x="270" y="-126" on="0"/>
        <pt x="270" y="-126" on="1"/>
        <pt x="222" y="-78" on="1"/>
        <pt x="270" y="-5" on="1"/>
        <pt x="207" y="6" on="0"/>
        <pt x="124" y="59" on="0"/>
        <pt x="75" y="125" on="0"/>
        <pt x="51" y="187" on="0"/>
        <pt x="44" y="227" on="0"/>
        <pt x="44" y="227" on="1"/>
        <pt x="182" y="227" on="1"/>
        <pt x="182" y="227" on="0"/>
        <pt x="187" y="203" on="0"/>
        <pt x="205" y="166" on="0"/>
        <pt x="240" y="130" on="0"/>
        <pt x="299" y="105" on="0"/>
        <pt x="343" y="105" on="1"/>
        <pt x="411" y="105" on="0"/>
        <pt x="482" y="166" on="0"/>
        <pt x="482" y="211" on="1"/>
        <pt x="482" y="249" on="0"/>
        <pt x="429" y="294" on="0"/>
        <pt x="375" y="305" on="1"/>
        <pt x="277" y="326" on="1"/>
        <pt x="220" y="338" on="0"/>
        <pt x="121" y="386" on="0"/>
        <pt x="61" y="468" on="0"/>
        <pt x="61" y="532" on="1"/>
        <pt x="61" y="599" on="0"/>
        <pt x="128" y="697" on="0"/>
        <pt x="246" y="750" on="0"/>
        <pt x="325" y="750" on="1"/>
        <pt x="400" y="750" on="0"/>
        <pt x="498" y="706" on="0"/>
        <pt x="557" y="642" on="0"/>
        <pt x="585" y="578" on="0"/>
        <pt x="594" y="534" on="0"/>
        <pt x="594" y="534" on="1"/>
        <pt x="461" y="534" on="1"/>
        <pt x="461" y="534" on="0"/>
        <pt x="453" y="565" on="0"/>
        <pt x="425" y="605" on="0"/>
        <pt x="369" y="636" on="0"/>
        <pt x="322" y="636" on="1"/>
        <pt x="255" y="636" on="0"/>
        <pt x="194" y="576" on="0"/>
        <pt x="194" y="541" on="1"/>
        <pt x="194" y="505" on="0"/>
        <pt x="250" y="465" on="0"/>
        <pt x="297" y="454" on="1"/>
        <pt x="402" y="432" on="1"/>
        <pt x="461" y="419" on="0"/>
        <pt x="559" y="367" on="0"/>
        <pt x="617" y="282" on="0"/>
        <pt x="617" y="219" on="1"/>
        <pt x="617" y="157" on="0"/>
        <pt x="556" y="55" on="0"/>
        <pt x="438" y="-7" on="0"/>
        <pt x="352" y="-10" on="1"/>
        <pt x="328" y="-46" on="1"/>
        <pt x="339" y="-43" on="0"/>
        <pt x="352" y="-43" on="1"/>
        <pt x="400" y="-43" on="0"/>
        <pt x="455" y="-103" on="0"/>
        <pt x="455" y="-144" on="1"/>
        <pt x="455" y="-173" on="0"/>
        <pt x="423" y="-227" on="0"/>
        <pt x="357" y="-261" on="0"/>
      </contour>
    </TTGlyph>
    <TTGlyph name="T" xMin="41" yMin="0" xMax="633" yMax="740">
      <contour>
        <pt x="269" y="0" on="1"/>
        <pt x="269" y="622" on="1"/>
        <pt x="41" y="622" on="1"/>
        <pt x="41" y="740" on="1"/>
        <pt x="633" y="740" on="1"/>
        <pt x="633" y="622" on="1"/>
        <pt x="405" y="622" on="1"/>
        <pt x="405" y="0" on="1"/>
      </contour>
    </TTGlyph>
    <TTGlyph name="Tbar" xMin="41" yMin="0" xMax="633" yMax="740">
      <contour>
        <pt x="269" y="0" on="1"/>
        <pt x="269" y="321" on="1"/>
        <pt x="80" y="321" on="1"/>
        <pt x="80" y="420" on="1"/>
        <pt x="269" y="420" on="1"/>
        <pt x="269" y="622" on="1"/>
        <pt x="41" y="622" on="1"/>
        <pt x="41" y="740" on="1"/>
        <pt x="633" y="740" on="1"/>
        <pt x="633" y="622" on="1"/>
        <pt x="405" y="622" on="1"/>
        <pt x="405" y="420" on="1"/>
        <pt x="593" y="420" on="1"/>
        <pt x="593" y="321" on="1"/>
        <pt x="405" y="321" on="1"/>
        <pt x="405" y="0" on="1"/>
      </contour>
    </TTGlyph>
    <TTGlyph name="Tcaron" xMin="41" yMin="0" xMax="633" yMax="977">
      <contour>
        <pt x="283" y="801" on="1"/>
        <pt x="157" y="977" on="1"/>
        <pt x="265" y="977" on="1"/>
        <pt x="337" y="872" on="1"/>
        <pt x="409" y="977" on="1"/>
        <pt x="517" y="977" on="1"/>
        <pt x="391" y="801" on="1"/>
      </contour>
      <contour>
        <pt x="269" y="0" on="1"/>
        <pt x="269" y="622" on="1"/>
        <pt x="41" y="622" on="1"/>
        <pt x="41" y="740" on="1"/>
        <pt x="633" y="740" on="1"/>
        <pt x="633" y="622" on="1"/>
        <pt x="405" y="622" on="1"/>
        <pt x="405" y="0" on="1"/>
      </contour>
    </TTGlyph>
    <TTGlyph name="Thorn" xMin="72" yMin="0" xMax="630" yMax="740">
      <contour>
        <pt x="72" y="0" on="1"/>
        <pt x="72" y="740" on="1"/>
        <pt x="208" y="740" on="1"/>
        <pt x="208" y="615" on="1"/>
        <pt x="364" y="615" on="1"/>
        <pt x="453" y="615" on="0"/>
        <pt x="571" y="544" on="0"/>
        <pt x="630" y="432" on="0"/>
        <pt x="630" y="371" on="1"/>
        <pt x="630" y="309" on="0"/>
        <pt x="571" y="196" on="0"/>
        <pt x="453" y="124" on="0"/>
        <pt x="364" y="124" on="1"/>
        <pt x="208" y="124" on="1"/>
        <pt x="208" y="0" on="1"/>
      </contour>
      <contour>
        <pt x="363" y="497" on="1"/>
        <pt x="208" y="497" on="1"/>
        <pt x="208" y="242" on="1"/>
        <pt x="363" y="242" on="1"/>
        <pt x="407" y="242" on="0"/>
        <pt x="465" y="280" on="0"/>
        <pt x="494" y="338" on="0"/>
        <pt x="494" y="370" on="1"/>
        <pt x="494" y="401" on="0"/>
        <pt x="465" y="460" on="0"/>
        <pt x="407" y="497" on="0"/>
      </contour>
    </TTGlyph>
    <TTGlyph name="U" xMin="72" yMin="-10" xMax="661" yMax="740">
      <contour>
        <pt x="366" y="-10" on="1"/>
        <pt x="284" y="-10" on="0"/>
        <pt x="150" y="53" on="0"/>
        <pt x="72" y="181" on="0"/>
        <pt x="72" y="278" on="1"/>
        <pt x="72" y="740" on="1"/>
        <pt x="208" y="740" on="1"/>
        <pt x="208" y="278" on="1"/>
        <pt x="208" y="210" on="0"/>
        <pt x="285" y="118" on="0"/>
        <pt x="366" y="118" on="1"/>
        <pt x="448" y="118" on="0"/>
        <pt x="526" y="210" on="0"/>
        <pt x="526" y="278" on="1"/>
        <pt x="526" y="740" on="1"/>
        <pt x="661" y="740" on="1"/>
        <pt x="661" y="278" on="1"/>
        <pt x="661" y="181" on="0"/>
        <pt x="583" y="53" on="0"/>
        <pt x="450" y="-10" on="0"/>
      </contour>
    </TTGlyph>
    <TTGlyph name="Uacute" xMin="78" yMin="-10" xMax="667" yMax="996">
      <contour>
        <pt x="421" y="816" on="1"/>
        <pt x="319" y="817" on="1"/>
        <pt x="402" y="996" on="1"/>
        <pt x="529" y="996" on="1"/>
      </contour>
      <contour>
        <pt x="372" y="-10" on="1"/>
        <pt x="290" y="-10" on="0"/>
        <pt x="156" y="53" on="0"/>
        <pt x="78" y="181" on="0"/>
        <pt x="78" y="278" on="1"/>
        <pt x="78" y="740" on="1"/>
        <pt x="214" y="740" on="1"/>
        <pt x="214" y="278" on="1"/>
        <pt x="214" y="210" on="0"/>
        <pt x="291" y="118" on="0"/>
        <pt x="372" y="118" on="1"/>
        <pt x="454" y="118" on="0"/>
        <pt x="532" y="210" on="0"/>
        <pt x="532" y="278" on="1"/>
        <pt x="532" y="740" on="1"/>
        <pt x="667" y="740" on="1"/>
        <pt x="667" y="278" on="1"/>
        <pt x="667" y="181" on="0"/>
        <pt x="589" y="53" on="0"/>
        <pt x="456" y="-10" on="0"/>
      </contour>
    </TTGlyph>
    <TTGlyph name="Ucircumflex" xMin="78" yMin="-10" xMax="667" yMax="985">
      <contour>
        <pt x="190" y="809" on="1"/>
        <pt x="317" y="985" on="1"/>
        <pt x="424" y="985" on="1"/>
        <pt x="551" y="809" on="1"/>
        <pt x="443" y="809" on="1"/>
        <pt x="370" y="914" on="1"/>
        <pt x="298" y="809" on="1"/>
      </contour>
      <contour>
        <pt x="372" y="-10" on="1"/>
        <pt x="290" y="-10" on="0"/>
        <pt x="156" y="53" on="0"/>
        <pt x="78" y="181" on="0"/>
        <pt x="78" y="278" on="1"/>
        <pt x="78" y="740" on="1"/>
        <pt x="214" y="740" on="1"/>
        <pt x="214" y="278" on="1"/>
        <pt x="214" y="210" on="0"/>
        <pt x="291" y="118" on="0"/>
        <pt x="372" y="118" on="1"/>
        <pt x="454" y="118" on="0"/>
        <pt x="532" y="210" on="0"/>
        <pt x="532" y="278" on="1"/>
        <pt x="532" y="740" on="1"/>
        <pt x="667" y="740" on="1"/>
        <pt x="667" y="278" on="1"/>
        <pt x="667" y="181" on="0"/>
        <pt x="589" y="53" on="0"/>
        <pt x="456" y="-10" on="0"/>
      </contour>
    </TTGlyph>
    <TTGlyph name="Udieresis" xMin="78" yMin="-10" xMax="667" yMax="960">
      <contour>
        <pt x="477" y="807" on="1"/>
        <pt x="443" y="807" on="0"/>
        <pt x="399" y="853" on="0"/>
        <pt x="399" y="883" on="1"/>
        <pt x="399" y="915" on="0"/>
        <pt x="443" y="960" on="0"/>
        <pt x="477" y="960" on="1"/>
        <pt x="510" y="960" on="0"/>
        <pt x="555" y="915" on="0"/>
        <pt x="555" y="883" on="1"/>
        <pt x="555" y="852" on="0"/>
        <pt x="510" y="807" on="0"/>
      </contour>
      <contour>
        <pt x="263" y="807" on="1"/>
        <pt x="228" y="807" on="0"/>
        <pt x="185" y="853" on="0"/>
        <pt x="185" y="883" on="1"/>
        <pt x="185" y="915" on="0"/>
        <pt x="228" y="960" on="0"/>
        <pt x="263" y="960" on="1"/>
        <pt x="296" y="960" on="0"/>
        <pt x="341" y="915" on="0"/>
        <pt x="341" y="883" on="1"/>
        <pt x="341" y="852" on="0"/>
        <pt x="296" y="807" on="0"/>
      </contour>
      <contour>
        <pt x="372" y="-10" on="1"/>
        <pt x="290" y="-10" on="0"/>
        <pt x="156" y="53" on="0"/>
        <pt x="78" y="181" on="0"/>
        <pt x="78" y="278" on="1"/>
        <pt x="78" y="740" on="1"/>
        <pt x="214" y="740" on="1"/>
        <pt x="214" y="278" on="1"/>
        <pt x="214" y="210" on="0"/>
        <pt x="291" y="118" on="0"/>
        <pt x="372" y="118" on="1"/>
        <pt x="454" y="118" on="0"/>
        <pt x="532" y="210" on="0"/>
        <pt x="532" y="278" on="1"/>
        <pt x="532" y="740" on="1"/>
        <pt x="667" y="740" on="1"/>
        <pt x="667" y="278" on="1"/>
        <pt x="667" y="181" on="0"/>
        <pt x="589" y="53" on="0"/>
        <pt x="456" y="-10" on="0"/>
      </contour>
    </TTGlyph>
    <TTGlyph name="Ugrave" xMin="78" yMin="-10" xMax="667" yMax="996">
      <contour>
        <pt x="322" y="816" on="1"/>
        <pt x="215" y="996" on="1"/>
        <pt x="342" y="996" on="1"/>
        <pt x="424" y="817" on="1"/>
      </contour>
      <contour>
        <pt x="372" y="-10" on="1"/>
        <pt x="290" y="-10" on="0"/>
        <pt x="156" y="53" on="0"/>
        <pt x="78" y="181" on="0"/>
        <pt x="78" y="278" on="1"/>
        <pt x="78" y="740" on="1"/>
        <pt x="214" y="740" on="1"/>
        <pt x="214" y="278" on="1"/>
        <pt x="214" y="210" on="0"/>
        <pt x="291" y="118" on="0"/>
        <pt x="372" y="118" on="1"/>
        <pt x="454" y="118" on="0"/>
        <pt x="532" y="210" on="0"/>
        <pt x="532" y="278" on="1"/>
        <pt x="532" y="740" on="1"/>
        <pt x="667" y="740" on="1"/>
        <pt x="667" y="278" on="1"/>
        <pt x="667" y="181" on="0"/>
        <pt x="589" y="53" on="0"/>
        <pt x="456" y="-10" on="0"/>
      </contour>
    </TTGlyph>
    <TTGlyph name="Uhorn" xMin="78" yMin="-10" xMax="785" yMax="848">
      <contour>
        <pt x="372" y="-10" on="1"/>
        <pt x="290" y="-10" on="0"/>
        <pt x="156" y="53" on="0"/>
        <pt x="78" y="181" on="0"/>
        <pt x="78" y="278" on="1"/>
        <pt x="78" y="740" on="1"/>
        <pt x="214" y="740" on="1"/>
        <pt x="214" y="278" on="1"/>
        <pt x="214" y="210" on="0"/>
        <pt x="291" y="118" on="0"/>
        <pt x="372" y="118" on="1"/>
        <pt x="454" y="118" on="0"/>
        <pt x="532" y="210" on="0"/>
        <pt x="532" y="278" on="1"/>
        <pt x="532" y="740" on="1"/>
        <pt x="632" y="740" on="1"/>
        <pt x="671" y="740" on="0"/>
        <pt x="671" y="781" on="1"/>
        <pt x="671" y="848" on="1"/>
        <pt x="785" y="848" on="1"/>
        <pt x="785" y="778" on="1"/>
        <pt x="785" y="728" on="0"/>
        <pt x="730" y="666" on="0"/>
        <pt x="676" y="666" on="1"/>
        <pt x="667" y="666" on="1"/>
        <pt x="667" y="278" on="1"/>
        <pt x="667" y="181" on="0"/>
        <pt x="589" y="53" on="0"/>
        <pt x="456" y="-10" on="0"/>
      </contour>
    </TTGlyph>
    <TTGlyph name="Uhungarumlaut" xMin="78" yMin="-10" xMax="667" yMax="996">
      <contour>
        <pt x="328" y="816" on="1"/>
        <pt x="231" y="817" on="1"/>
        <pt x="277" y="996" on="1"/>
        <pt x="400" y="996" on="1"/>
      </contour>
      <contour>
        <pt x="506" y="816" on="1"/>
        <pt x="408" y="817" on="1"/>
        <pt x="455" y="996" on="1"/>
        <pt x="577" y="996" on="1"/>
      </contour>
      <contour>
        <pt x="372" y="-10" on="1"/>
        <pt x="290" y="-10" on="0"/>
        <pt x="156" y="53" on="0"/>
        <pt x="78" y="181" on="0"/>
        <pt x="78" y="278" on="1"/>
        <pt x="78" y="740" on="1"/>
        <pt x="214" y="740" on="1"/>
        <pt x="214" y="278" on="1"/>
        <pt x="214" y="210" on="0"/>
        <pt x="291" y="118" on="0"/>
        <pt x="372" y="118" on="1"/>
        <pt x="454" y="118" on="0"/>
        <pt x="532" y="210" on="0"/>
        <pt x="532" y="278" on="1"/>
        <pt x="532" y="740" on="1"/>
        <pt x="667" y="740" on="1"/>
        <pt x="667" y="278" on="1"/>
        <pt x="667" y="181" on="0"/>
        <pt x="589" y="53" on="0"/>
        <pt x="456" y="-10" on="0"/>
      </contour>
    </TTGlyph>
    <TTGlyph name="Umacron" xMin="78" yMin="-10" xMax="667" yMax="913">
      <contour>
        <pt x="211" y="829" on="1"/>
        <pt x="211" y="913" on="1"/>
        <pt x="529" y="913" on="1"/>
        <pt x="529" y="829" on="1"/>
      </contour>
      <contour>
        <pt x="372" y="-10" on="1"/>
        <pt x="290" y="-10" on="0"/>
        <pt x="156" y="53" on="0"/>
        <pt x="78" y="181" on="0"/>
        <pt x="78" y="278" on="1"/>
        <pt x="78" y="740" on="1"/>
        <pt x="214" y="740" on="1"/>
        <pt x="214" y="278" on="1"/>
        <pt x="214" y="210" on="0"/>
        <pt x="291" y="118" on="0"/>
        <pt x="372" y="118" on="1"/>
        <pt x="454" y="118" on="0"/>
        <pt x="532" y="210" on="0"/>
        <pt x="532" y="278" on="1"/>
        <pt x="532" y="740" on="1"/>
        <pt x="667" y="740" on="1"/>
        <pt x="667" y="278" on="1"/>
        <pt x="667" y="181" on="0"/>
        <pt x="589" y="53" on="0"/>
        <pt x="456" y="-10" on="0"/>
      </contour>
    </TTGlyph>
    <TTGlyph name="Uogonek" xMin="78" yMin="-185" xMax="667" yMax="740">
      <contour>
        <pt x="411" y="-185" on="1"/>
        <pt x="342" y="-185" on="0"/>
        <pt x="278" y="-128" on="0"/>
        <pt x="278" y="-88" on="1"/>
        <pt x="278" y="-59" on="0"/>
        <pt x="306" y="-19" on="0"/>
        <pt x="323" y="-7" on="1"/>
        <pt x="253" y="1" on="0"/>
        <pt x="142" y="70" on="0"/>
        <pt x="78" y="191" on="0"/>
        <pt x="78" y="278" on="1"/>
        <pt x="78" y="740" on="1"/>
        <pt x="214" y="740" on="1"/>
        <pt x="214" y="278" on="1"/>
        <pt x="214" y="210" on="0"/>
        <pt x="291" y="118" on="0"/>
        <pt x="372" y="118" on="1"/>
        <pt x="454" y="118" on="0"/>
        <pt x="532" y="210" on="0"/>
        <pt x="532" y="278" on="1"/>
        <pt x="532" y="740" on="1"/>
        <pt x="667" y="740" on="1"/>
        <pt x="667" y="278" on="1"/>
        <pt x="667" y="192" on="0"/>
        <pt x="605" y="72" on="0"/>
        <pt x="496" y="3" on="0"/>
        <pt x="426" y="-7" on="1"/>
        <pt x="421" y="-9" on="0"/>
        <pt x="397" y="-24" on="0"/>
        <pt x="377" y="-48" on="0"/>
        <pt x="377" y="-65" on="1"/>
        <pt x="377" y="-81" on="0"/>
        <pt x="404" y="-105" on="0"/>
        <pt x="432" y="-105" on="1"/>
        <pt x="445" y="-105" on="0"/>
        <pt x="467" y="-101" on="0"/>
        <pt x="467" y="-101" on="1"/>
        <pt x="467" y="-179" on="1"/>
        <pt x="467" y="-179" on="0"/>
        <pt x="435" y="-185" on="0"/>
      </contour>
    </TTGlyph>
    <TTGlyph name="Uring" xMin="78" yMin="-10" xMax="667" yMax="1068">
      <contour>
        <pt x="370" y="802" on="1"/>
        <pt x="333" y="802" on="0"/>
        <pt x="272" y="838" on="0"/>
        <pt x="236" y="899" on="0"/>
        <pt x="236" y="936" on="1"/>
        <pt x="236" y="972" on="0"/>
        <pt x="272" y="1033" on="0"/>
        <pt x="333" y="1068" on="0"/>
        <pt x="370" y="1068" on="1"/>
        <pt x="407" y="1068" on="0"/>
        <pt x="467" y="1033" on="0"/>
        <pt x="503" y="972" on="0"/>
        <pt x="503" y="936" on="1"/>
        <pt x="503" y="899" on="0"/>
        <pt x="467" y="838" on="0"/>
        <pt x="407" y="802" on="0"/>
      </contour>
      <contour>
        <pt x="370" y="879" on="1"/>
        <pt x="393" y="879" on="0"/>
        <pt x="426" y="912" on="0"/>
        <pt x="426" y="936" on="1"/>
        <pt x="426" y="959" on="0"/>
        <pt x="393" y="992" on="0"/>
        <pt x="370" y="992" on="1"/>
        <pt x="346" y="992" on="0"/>
        <pt x="313" y="959" on="0"/>
        <pt x="313" y="936" on="1"/>
        <pt x="313" y="912" on="0"/>
        <pt x="346" y="879" on="0"/>
      </contour>
      <contour>
        <pt x="372" y="-10" on="1"/>
        <pt x="290" y="-10" on="0"/>
        <pt x="156" y="53" on="0"/>
        <pt x="78" y="181" on="0"/>
        <pt x="78" y="278" on="1"/>
        <pt x="78" y="740" on="1"/>
        <pt x="214" y="740" on="1"/>
        <pt x="214" y="278" on="1"/>
        <pt x="214" y="210" on="0"/>
        <pt x="291" y="118" on="0"/>
        <pt x="372" y="118" on="1"/>
        <pt x="454" y="118" on="0"/>
        <pt x="532" y="210" on="0"/>
        <pt x="532" y="278" on="1"/>
        <pt x="532" y="740" on="1"/>
        <pt x="667" y="740" on="1"/>
        <pt x="667" y="278" on="1"/>
        <pt x="667" y="181" on="0"/>
        <pt x="589" y="53" on="0"/>
        <pt x="456" y="-10" on="0"/>
      </contour>
    </TTGlyph>
    <TTGlyph name="Utilde" xMin="78" yMin="-10" xMax="667" yMax="972">
      <contour>
        <pt x="442" y="825" on="1"/>
        <pt x="415" y="825" on="0"/>
        <pt x="377" y="844" on="0"/>
        <pt x="348" y="869" on="0"/>
        <pt x="323" y="888" on="0"/>
        <pt x="309" y="888" on="1"/>
        <pt x="293" y="888" on="0"/>
        <pt x="280" y="857" on="0"/>
        <pt x="280" y="831" on="1"/>
        <pt x="204" y="831" on="1"/>
        <pt x="204" y="863" on="0"/>
        <pt x="220" y="929" on="0"/>
        <pt x="262" y="972" on="0"/>
        <pt x="301" y="972" on="1"/>
        <pt x="329" y="972" on="0"/>
        <pt x="368" y="953" on="0"/>
        <pt x="397" y="928" on="0"/>
        <pt x="421" y="909" on="0"/>
        <pt x="434" y="909" on="1"/>
        <pt x="450" y="909" on="0"/>
        <pt x="463" y="940" on="0"/>
        <pt x="463" y="967" on="1"/>
        <pt x="539" y="967" on="1"/>
        <pt x="539" y="934" on="0"/>
        <pt x="523" y="869" on="0"/>
        <pt x="481" y="825" on="0"/>
      </contour>
      <contour>
        <pt x="372" y="-10" on="1"/>
        <pt x="290" y="-10" on="0"/>
        <pt x="156" y="53" on="0"/>
        <pt x="78" y="181" on="0"/>
        <pt x="78" y="278" on="1"/>
        <pt x="78" y="740" on="1"/>
        <pt x="214" y="740" on="1"/>
        <pt x="214" y="278" on="1"/>
        <pt x="214" y="210" on="0"/>
        <pt x="291" y="118" on="0"/>
        <pt x="372" y="118" on="1"/>
        <pt x="454" y="118" on="0"/>
        <pt x="532" y="210" on="0"/>
        <pt x="532" y="278" on="1"/>
        <pt x="532" y="740" on="1"/>
        <pt x="667" y="740" on="1"/>
        <pt x="667" y="278" on="1"/>
        <pt x="667" y="181" on="0"/>
        <pt x="589" y="53" on="0"/>
        <pt x="456" y="-10" on="0"/>
      </contour>
    </TTGlyph>
    <TTGlyph name="V" xMin="22" yMin="0" xMax="710" yMax="740">
      <contour>
        <pt x="277" y="0" on="1"/>
        <pt x="22" y="740" on="1"/>
        <pt x="164" y="740" on="1"/>
        <pt x="366" y="138" on="1"/>
        <pt x="568" y="740" on="1"/>
        <pt x="710" y="740" on="1"/>
        <pt x="454" y="0" on="1"/>
      </contour>
    </TTGlyph>
    <TTGlyph name="W" xMin="32" yMin="0" xMax="1007" yMax="740">
      <contour>
        <pt x="221" y="0" on="1"/>
        <pt x="32" y="740" on="1"/>
        <pt x="169" y="740" on="1"/>
        <pt x="306" y="183" on="1"/>
        <pt x="451" y="740" on="1"/>
        <pt x="589" y="740" on="1"/>
        <pt x="733" y="185" on="1"/>
        <pt x="871" y="740" on="1"/>
        <pt x="1007" y="740" on="1"/>
        <pt x="819" y="0" on="1"/>
        <pt x="650" y="0" on="1"/>
        <pt x="520" y="504" on="1"/>
        <pt x="389" y="0" on="1"/>
      </contour>
    </TTGlyph>
    <TTGlyph name="Wacute" xMin="19" yMin="0" xMax="994" yMax="996">
      <contour>
        <pt x="558" y="816" on="1"/>
        <pt x="457" y="817" on="1"/>
        <pt x="539" y="996" on="1"/>
        <pt x="666" y="996" on="1"/>
      </contour>
      <contour>
        <pt x="208" y="0" on="1"/>
        <pt x="19" y="740" on="1"/>
        <pt x="156" y="740" on="1"/>
        <pt x="293" y="183" on="1"/>
        <pt x="438" y="740" on="1"/>
        <pt x="576" y="740" on="1"/>
        <pt x="720" y="185" on="1"/>
        <pt x="858" y="740" on="1"/>
        <pt x="994" y="740" on="1"/>
        <pt x="806" y="0" on="1"/>
        <pt x="637" y="0" on="1"/>
        <pt x="507" y="504" on="1"/>
        <pt x="376" y="0" on="1"/>
      </contour>
    </TTGlyph>
    <TTGlyph name="Wcircumflex" xMin="19" yMin="0" xMax="994" yMax="985">
      <contour>
        <pt x="327" y="809" on="1"/>
        <pt x="454" y="985" on="1"/>
        <pt x="561" y="985" on="1"/>
        <pt x="688" y="809" on="1"/>
        <pt x="580" y="809" on="1"/>
        <pt x="508" y="914" on="1"/>
        <pt x="435" y="809" on="1"/>
      </contour>
      <contour>
        <pt x="208" y="0" on="1"/>
        <pt x="19" y="740" on="1"/>
        <pt x="156" y="740" on="1"/>
        <pt x="293" y="183" on="1"/>
        <pt x="438" y="740" on="1"/>
        <pt x="576" y="740" on="1"/>
        <pt x="720" y="185" on="1"/>
        <pt x="858" y="740" on="1"/>
        <pt x="994" y="740" on="1"/>
        <pt x="806" y="0" on="1"/>
        <pt x="637" y="0" on="1"/>
        <pt x="507" y="504" on="1"/>
        <pt x="376" y="0" on="1"/>
      </contour>
    </TTGlyph>
    <TTGlyph name="Wdieresis" xMin="19" yMin="0" xMax="994" yMax="960">
      <contour>
        <pt x="614" y="807" on="1"/>
        <pt x="580" y="807" on="0"/>
        <pt x="536" y="853" on="0"/>
        <pt x="536" y="883" on="1"/>
        <pt x="536" y="915" on="0"/>
        <pt x="580" y="960" on="0"/>
        <pt x="614" y="960" on="1"/>
        <pt x="648" y="960" on="0"/>
        <pt x="692" y="915" on="0"/>
        <pt x="692" y="883" on="1"/>
        <pt x="692" y="852" on="0"/>
        <pt x="648" y="807" on="0"/>
      </contour>
      <contour>
        <pt x="400" y="807" on="1"/>
        <pt x="365" y="807" on="0"/>
        <pt x="322" y="853" on="0"/>
        <pt x="322" y="883" on="1"/>
        <pt x="322" y="915" on="0"/>
        <pt x="365" y="960" on="0"/>
        <pt x="400" y="960" on="1"/>
        <pt x="433" y="960" on="0"/>
        <pt x="478" y="915" on="0"/>
        <pt x="478" y="883" on="1"/>
        <pt x="478" y="852" on="0"/>
        <pt x="433" y="807" on="0"/>
      </contour>
      <contour>
        <pt x="208" y="0" on="1"/>
        <pt x="19" y="740" on="1"/>
        <pt x="156" y="740" on="1"/>
        <pt x="293" y="183" on="1"/>
        <pt x="438" y="740" on="1"/>
        <pt x="576" y="740" on="1"/>
        <pt x="720" y="185" on="1"/>
        <pt x="858" y="740" on="1"/>
        <pt x="994" y="740" on="1"/>
        <pt x="806" y="0" on="1"/>
        <pt x="637" y="0" on="1"/>
        <pt x="507" y="504" on="1"/>
        <pt x="376" y="0" on="1"/>
      </contour>
    </TTGlyph>
    <TTGlyph name="Wgrave" xMin="19" yMin="0" xMax="994" yMax="996">
      <contour>
        <pt x="460" y="816" on="1"/>
        <pt x="352" y="996" on="1"/>
        <pt x="479" y="996" on="1"/>
        <pt x="561" y="817" on="1"/>
      </contour>
      <contour>
        <pt x="208" y="0" on="1"/>
        <pt x="19" y="740" on="1"/>
        <pt x="156" y="740" on="1"/>
        <pt x="293" y="183" on="1"/>
        <pt x="438" y="740" on="1"/>
        <pt x="576" y="740" on="1"/>
        <pt x="720" y="185" on="1"/>
        <pt x="858" y="740" on="1"/>
        <pt x="994" y="740" on="1"/>
        <pt x="806" y="0" on="1"/>
        <pt x="637" y="0" on="1"/>
        <pt x="507" y="504" on="1"/>
        <pt x="376" y="0" on="1"/>
      </contour>
    </TTGlyph>
    <TTGlyph name="X" xMin="51" yMin="0" xMax="702" yMax="740">
      <contour>
        <pt x="51" y="0" on="1"/>
        <pt x="283" y="370" on="1"/>
        <pt x="51" y="740" on="1"/>
        <pt x="213" y="740" on="1"/>
        <pt x="376" y="470" on="1"/>
        <pt x="540" y="740" on="1"/>
        <pt x="701" y="740" on="1"/>
        <pt x="467" y="370" on="1"/>
        <pt x="702" y="0" on="1"/>
        <pt x="540" y="0" on="1"/>
        <pt x="376" y="270" on="1"/>
        <pt x="213" y="0" on="1"/>
      </contour>
    </TTGlyph>
    <TTGlyph name="Y" xMin="23" yMin="0" xMax="678" yMax="740">
      <contour>
        <pt x="283" y="0" on="1"/>
        <pt x="283" y="257" on="1"/>
        <pt x="23" y="740" on="1"/>
        <pt x="171" y="740" on="1"/>
        <pt x="350" y="395" on="1"/>
        <pt x="529" y="740" on="1"/>
        <pt x="678" y="740" on="1"/>
        <pt x="418" y="257" on="1"/>
        <pt x="418" y="0" on="1"/>
      </contour>
    </TTGlyph>
    <TTGlyph name="Yacute" xMin="23" yMin="0" xMax="678" yMax="994">
      <contour>
        <pt x="404" y="814" on="1"/>
        <pt x="302" y="815" on="1"/>
        <pt x="384" y="994" on="1"/>
        <pt x="511" y="994" on="1"/>
      </contour>
      <contour>
        <pt x="283" y="0" on="1"/>
        <pt x="283" y="257" on="1"/>
        <pt x="23" y="740" on="1"/>
        <pt x="171" y="740" on="1"/>
        <pt x="350" y="395" on="1"/>
        <pt x="529" y="740" on="1"/>
        <pt x="678" y="740" on="1"/>
        <pt x="418" y="257" on="1"/>
        <pt x="418" y="0" on="1"/>
      </contour>
    </TTGlyph>
    <TTGlyph name="Ycircumflex" xMin="23" yMin="0" xMax="678" yMax="983">
      <contour>
        <pt x="173" y="807" on="1"/>
        <pt x="299" y="983" on="1"/>
        <pt x="407" y="983" on="1"/>
        <pt x="533" y="807" on="1"/>
        <pt x="425" y="807" on="1"/>
        <pt x="353" y="912" on="1"/>
        <pt x="281" y="807" on="1"/>
      </contour>
      <contour>
        <pt x="283" y="0" on="1"/>
        <pt x="283" y="257" on="1"/>
        <pt x="23" y="740" on="1"/>
        <pt x="171" y="740" on="1"/>
        <pt x="350" y="395" on="1"/>
        <pt x="529" y="740" on="1"/>
        <pt x="678" y="740" on="1"/>
        <pt x="418" y="257" on="1"/>
        <pt x="418" y="0" on="1"/>
      </contour>
    </TTGlyph>
    <TTGlyph name="Ydieresis" xMin="23" yMin="0" xMax="678" yMax="958">
      <contour>
        <pt x="459" y="806" on="1"/>
        <pt x="425" y="806" on="0"/>
        <pt x="381" y="851" on="0"/>
        <pt x="381" y="882" on="1"/>
        <pt x="381" y="913" on="0"/>
        <pt x="425" y="958" on="0"/>
        <pt x="459" y="958" on="1"/>
        <pt x="493" y="958" on="0"/>
        <pt x="537" y="913" on="0"/>
        <pt x="537" y="882" on="1"/>
        <pt x="537" y="850" on="0"/>
        <pt x="493" y="806" on="0"/>
      </contour>
      <contour>
        <pt x="245" y="806" on="1"/>
        <pt x="211" y="806" on="0"/>
        <pt x="167" y="851" on="0"/>
        <pt x="167" y="882" on="1"/>
        <pt x="167" y="913" on="0"/>
        <pt x="211" y="958" on="0"/>
        <pt x="245" y="958" on="1"/>
        <pt x="278" y="958" on="0"/>
        <pt x="323" y="913" on="0"/>
        <pt x="323" y="882" on="1"/>
        <pt x="323" y="850" on="0"/>
        <pt x="278" y="806" on="0"/>
      </contour>
      <contour>
        <pt x="283" y="0" on="1"/>
        <pt x="283" y="257" on="1"/>
        <pt x="23" y="740" on="1"/>
        <pt x="171" y="740" on="1"/>
        <pt x="350" y="395" on="1"/>
        <pt x="529" y="740" on="1"/>
        <pt x="678" y="740" on="1"/>
        <pt x="418" y="257" on="1"/>
        <pt x="418" y="0" on="1"/>
      </contour>
    </TTGlyph>
    <TTGlyph name="Ygrave" xMin="23" yMin="0" xMax="678" yMax="994">
      <contour>
        <pt x="305" y="814" on="1"/>
        <pt x="197" y="994" on="1"/>
        <pt x="324" y="994" on="1"/>
        <pt x="407" y="815" on="1"/>
      </contour>
      <contour>
        <pt x="283" y="0" on="1"/>
        <pt x="283" y="257" on="1"/>
        <pt x="23" y="740" on="1"/>
        <pt x="171" y="740" on="1"/>
        <pt x="350" y="395" on="1"/>
        <pt x="529" y="740" on="1"/>
        <pt x="678" y="740" on="1"/>
        <pt x="418" y="257" on="1"/>
        <pt x="418" y="0" on="1"/>
      </contour>
    </TTGlyph>
    <TTGlyph name="Z" xMin="54" yMin="0" xMax="609" yMax="740">
      <contour>
        <pt x="54" y="0" on="1"/>
        <pt x="54" y="98" on="1"/>
        <pt x="435" y="622" on="1"/>
        <pt x="54" y="622" on="1"/>
        <pt x="54" y="740" on="1"/>
        <pt x="609" y="740" on="1"/>
        <pt x="609" y="642" on="1"/>
        <pt x="226" y="119" on="1"/>
        <pt x="609" y="119" on="1"/>
        <pt x="609" y="0" on="1"/>
      </contour>
    </TTGlyph>
    <TTGlyph name="Zacute" xMin="54" yMin="0" xMax="609" yMax="996">
      <contour>
        <pt x="371" y="816" on="1"/>
        <pt x="270" y="817" on="1"/>
        <pt x="352" y="996" on="1"/>
        <pt x="479" y="996" on="1"/>
      </contour>
      <contour>
        <pt x="54" y="0" on="1"/>
        <pt x="54" y="98" on="1"/>
        <pt x="435" y="622" on="1"/>
        <pt x="54" y="622" on="1"/>
        <pt x="54" y="740" on="1"/>
        <pt x="609" y="740" on="1"/>
        <pt x="609" y="642" on="1"/>
        <pt x="226" y="119" on="1"/>
        <pt x="609" y="119" on="1"/>
        <pt x="609" y="0" on="1"/>
      </contour>
    </TTGlyph>
    <TTGlyph name="Zcaron" xMin="54" yMin="0" xMax="609" yMax="979">
      <contour>
        <pt x="267" y="803" on="1"/>
        <pt x="140" y="979" on="1"/>
        <pt x="248" y="979" on="1"/>
        <pt x="320" y="874" on="1"/>
        <pt x="393" y="979" on="1"/>
        <pt x="501" y="979" on="1"/>
        <pt x="374" y="803" on="1"/>
      </contour>
      <contour>
        <pt x="54" y="0" on="1"/>
        <pt x="54" y="98" on="1"/>
        <pt x="435" y="622" on="1"/>
        <pt x="54" y="622" on="1"/>
        <pt x="54" y="740" on="1"/>
        <pt x="609" y="740" on="1"/>
        <pt x="609" y="642" on="1"/>
        <pt x="226" y="119" on="1"/>
        <pt x="609" y="119" on="1"/>
        <pt x="609" y="0" on="1"/>
      </contour>
    </TTGlyph>
    <TTGlyph name="Zdotaccent" xMin="54" yMin="0" xMax="609" yMax="979">
      <contour>
        <pt x="320" y="821" on="1"/>
        <pt x="285" y="821" on="0"/>
        <pt x="240" y="868" on="0"/>
        <pt x="240" y="900" on="1"/>
        <pt x="240" y="933" on="0"/>
        <pt x="285" y="979" on="0"/>
        <pt x="320" y="979" on="1"/>
        <pt x="355" y="979" on="0"/>
        <pt x="401" y="933" on="0"/>
        <pt x="401" y="900" on="1"/>
        <pt x="401" y="868" on="0"/>
        <pt x="355" y="821" on="0"/>
      </contour>
      <contour>
        <pt x="54" y="0" on="1"/>
        <pt x="54" y="98" on="1"/>
        <pt x="435" y="622" on="1"/>
        <pt x="54" y="622" on="1"/>
        <pt x="54" y="740" on="1"/>
        <pt x="609" y="740" on="1"/>
        <pt x="609" y="642" on="1"/>
        <pt x="226" y="119" on="1"/>
        <pt x="609" y="119" on="1"/>
        <pt x="609" y="0" on="1"/>
      </contour>
    </TTGlyph>
    <TTGlyph name="a" xMin="54" yMin="-10" xMax="590" yMax="540">
      <contour>
        <pt x="289" y="540" on="1"/>
        <pt x="340" y="540" on="0"/>
        <pt x="406" y="507" on="0"/>
        <pt x="444" y="468" on="0"/>
        <pt x="451" y="456" on="1"/>
        <pt x="457" y="456" on="1"/>
        <pt x="457" y="530" on="1"/>
        <pt x="590" y="530" on="1"/>
        <pt x="590" y="0" on="1"/>
        <pt x="457" y="0" on="1"/>
        <pt x="457" y="74" on="1"/>
        <pt x="451" y="74" on="1"/>
        <pt x="444" y="62" on="0"/>
        <pt x="406" y="22" on="0"/>
        <pt x="340" y="-10" on="0"/>
        <pt x="289" y="-10" on="1"/>
        <pt x="230" y="-10" on="0"/>
        <pt x="142" y="37" on="0"/>
        <pt x="83" y="116" on="0"/>
        <pt x="54" y="214" on="0"/>
        <pt x="54" y="265" on="1"/>
        <pt x="54" y="316" on="0"/>
        <pt x="83" y="414" on="0"/>
        <pt x="142" y="493" on="0"/>
        <pt x="230" y="540" on="0"/>
      </contour>
      <contour>
        <pt x="324" y="431" on="1"/>
        <pt x="279" y="431" on="0"/>
        <pt x="218" y="382" on="0"/>
        <pt x="188" y="306" on="0"/>
        <pt x="188" y="265" on="1"/>
        <pt x="188" y="224" on="0"/>
        <pt x="218" y="148" on="0"/>
        <pt x="279" y="99" on="0"/>
        <pt x="324" y="99" on="1"/>
        <pt x="369" y="99" on="0"/>
        <pt x="429" y="148" on="0"/>
        <pt x="459" y="224" on="0"/>
        <pt x="459" y="265" on="1"/>
        <pt x="459" y="306" on="0"/>
        <pt x="429" y="382" on="0"/>
        <pt x="369" y="431" on="0"/>
      </contour>
    </TTGlyph>
    <TTGlyph name="a.ss01" xMin="47" yMin="-10" xMax="517" yMax="540">
      <contour>
        <pt x="378" y="67" on="1"/>
        <pt x="374" y="60" on="0"/>
        <pt x="341" y="23" on="0"/>
        <pt x="275" y="-10" on="0"/>
        <pt x="223" y="-10" on="1"/>
        <pt x="144" y="-10" on="0"/>
        <pt x="47" y="72" on="0"/>
        <pt x="47" y="142" on="1"/>
        <pt x="47" y="195" on="0"/>
        <pt x="101" y="262" on="0"/>
        <pt x="192" y="300" on="0"/>
        <pt x="249" y="308" on="1"/>
        <pt x="386" y="327" on="1"/>
        <pt x="386" y="343" on="1"/>
        <pt x="386" y="366" on="0"/>
        <pt x="368" y="409" on="0"/>
        <pt x="325" y="438" on="0"/>
        <pt x="289" y="438" on="1"/>
        <pt x="254" y="438" on="0"/>
        <pt x="213" y="415" on="0"/>
        <pt x="194" y="385" on="0"/>
        <pt x="188" y="362" on="0"/>
        <pt x="188" y="362" on="1"/>
        <pt x="62" y="362" on="1"/>
        <pt x="62" y="362" on="0"/>
        <pt x="69" y="398" on="0"/>
        <pt x="92" y="451" on="0"/>
        <pt x="142" y="504" on="0"/>
        <pt x="226" y="540" on="0"/>
        <pt x="291" y="540" on="1"/>
        <pt x="370" y="540" on="0"/>
        <pt x="470" y="484" on="0"/>
        <pt x="517" y="395" on="0"/>
        <pt x="517" y="345" on="1"/>
        <pt x="517" y="0" on="1"/>
        <pt x="386" y="0" on="1"/>
        <pt x="386" y="67" on="1"/>
      </contour>
      <contour>
        <pt x="176" y="152" on="1"/>
        <pt x="176" y="117" on="0"/>
        <pt x="227" y="83" on="0"/>
        <pt x="262" y="83" on="1"/>
        <pt x="315" y="83" on="0"/>
        <pt x="386" y="159" on="0"/>
        <pt x="386" y="222" on="1"/>
        <pt x="386" y="240" on="1"/>
        <pt x="266" y="222" on="1"/>
        <pt x="227" y="216" on="0"/>
        <pt x="176" y="185" on="0"/>
      </contour>
    </TTGlyph>
    <TTGlyph name="aacute" xMin="57" yMin="-10" xMax="593" yMax="786">
      <contour>
        <pt x="381" y="606" on="1"/>
        <pt x="280" y="607" on="1"/>
        <pt x="362" y="786" on="1"/>
        <pt x="489" y="786" on="1"/>
      </contour>
      <contour>
        <pt x="292" y="540" on="1"/>
        <pt x="343" y="540" on="0"/>
        <pt x="409" y="507" on="0"/>
        <pt x="447" y="468" on="0"/>
        <pt x="454" y="456" on="1"/>
        <pt x="460" y="456" on="1"/>
        <pt x="460" y="530" on="1"/>
        <pt x="593" y="530" on="1"/>
        <pt x="593" y="0" on="1"/>
        <pt x="460" y="0" on="1"/>
        <pt x="460" y="74" on="1"/>
        <pt x="454" y="74" on="1"/>
        <pt x="447" y="62" on="0"/>
        <pt x="409" y="22" on="0"/>
        <pt x="343" y="-10" on="0"/>
        <pt x="292" y="-10" on="1"/>
        <pt x="233" y="-10" on="0"/>
        <pt x="145" y="37" on="0"/>
        <pt x="86" y="116" on="0"/>
        <pt x="57" y="214" on="0"/>
        <pt x="57" y="265" on="1"/>
        <pt x="57" y="316" on="0"/>
        <pt x="86" y="414" on="0"/>
        <pt x="145" y="493" on="0"/>
        <pt x="233" y="540" on="0"/>
      </contour>
      <contour>
        <pt x="327" y="431" on="1"/>
        <pt x="282" y="431" on="0"/>
        <pt x="221" y="382" on="0"/>
        <pt x="191" y="306" on="0"/>
        <pt x="191" y="265" on="1"/>
        <pt x="191" y="224" on="0"/>
        <pt x="221" y="148" on="0"/>
        <pt x="282" y="99" on="0"/>
        <pt x="327" y="99" on="1"/>
        <pt x="372" y="99" on="0"/>
        <pt x="432" y="148" on="0"/>
        <pt x="462" y="224" on="0"/>
        <pt x="462" y="265" on="1"/>
        <pt x="462" y="306" on="0"/>
        <pt x="432" y="382" on="0"/>
        <pt x="372" y="431" on="0"/>
      </contour>
    </TTGlyph>
    <TTGlyph name="aacute.ss01" xMin="54" yMin="-10" xMax="524" yMax="786">
      <contour>
        <pt x="351" y="606" on="1"/>
        <pt x="249" y="607" on="1"/>
        <pt x="331" y="786" on="1"/>
        <pt x="458" y="786" on="1"/>
      </contour>
      <contour>
        <pt x="385" y="67" on="1"/>
        <pt x="381" y="60" on="0"/>
        <pt x="348" y="23" on="0"/>
        <pt x="283" y="-10" on="0"/>
        <pt x="230" y="-10" on="1"/>
        <pt x="151" y="-10" on="0"/>
        <pt x="54" y="72" on="0"/>
        <pt x="54" y="142" on="1"/>
        <pt x="54" y="195" on="0"/>
        <pt x="108" y="262" on="0"/>
        <pt x="199" y="300" on="0"/>
        <pt x="256" y="308" on="1"/>
        <pt x="393" y="327" on="1"/>
        <pt x="393" y="343" on="1"/>
        <pt x="393" y="366" on="0"/>
        <pt x="375" y="409" on="0"/>
        <pt x="333" y="438" on="0"/>
        <pt x="296" y="438" on="1"/>
        <pt x="261" y="438" on="0"/>
        <pt x="221" y="415" on="0"/>
        <pt x="201" y="385" on="0"/>
        <pt x="195" y="362" on="0"/>
        <pt x="195" y="362" on="1"/>
        <pt x="70" y="362" on="1"/>
        <pt x="70" y="362" on="0"/>
        <pt x="76" y="398" on="0"/>
        <pt x="99" y="451" on="0"/>
        <pt x="149" y="504" on="0"/>
        <pt x="233" y="540" on="0"/>
        <pt x="298" y="540" on="1"/>
        <pt x="377" y="540" on="0"/>
        <pt x="477" y="484" on="0"/>
        <pt x="524" y="395" on="0"/>
        <pt x="524" y="345" on="1"/>
        <pt x="524" y="0" on="1"/>
        <pt x="393" y="0" on="1"/>
        <pt x="393" y="67" on="1"/>
      </contour>
      <contour>
        <pt x="183" y="152" on="1"/>
        <pt x="183" y="117" on="0"/>
        <pt x="234" y="83" on="0"/>
        <pt x="269" y="83" on="1"/>
        <pt x="322" y="83" on="0"/>
        <pt x="393" y="159" on="0"/>
        <pt x="393" y="222" on="1"/>
        <pt x="393" y="240" on="1"/>
        <pt x="273" y="222" on="1"/>
        <pt x="234" y="216" on="0"/>
        <pt x="183" y="185" on="0"/>
      </contour>
    </TTGlyph>
    <TTGlyph name="abreve" xMin="57" yMin="-10" xMax="593" yMax="765">
      <contour>
        <pt x="330" y="600" on="1"/>
        <pt x="277" y="600" on="0"/>
        <pt x="211" y="633" on="0"/>
        <pt x="175" y="683" on="0"/>
        <pt x="159" y="732" on="0"/>
        <pt x="157" y="765" on="0"/>
        <pt x="157" y="765" on="1"/>
        <pt x="247" y="765" on="1"/>
        <pt x="247" y="765" on="0"/>
        <pt x="250" y="740" on="0"/>
        <pt x="265" y="706" on="0"/>
        <pt x="299" y="680" on="0"/>
        <pt x="330" y="680" on="1"/>
        <pt x="361" y="680" on="0"/>
        <pt x="395" y="706" on="0"/>
        <pt x="410" y="740" on="0"/>
        <pt x="414" y="765" on="0"/>
        <pt x="414" y="765" on="1"/>
        <pt x="504" y="765" on="1"/>
        <pt x="504" y="765" on="0"/>
        <pt x="501" y="732" on="0"/>
        <pt x="486" y="683" on="0"/>
        <pt x="450" y="633" on="0"/>
        <pt x="383" y="600" on="0"/>
      </contour>
      <contour>
        <pt x="292" y="540" on="1"/>
        <pt x="343" y="540" on="0"/>
        <pt x="409" y="507" on="0"/>
        <pt x="447" y="468" on="0"/>
        <pt x="454" y="456" on="1"/>
        <pt x="460" y="456" on="1"/>
        <pt x="460" y="530" on="1"/>
        <pt x="593" y="530" on="1"/>
        <pt x="593" y="0" on="1"/>
        <pt x="460" y="0" on="1"/>
        <pt x="460" y="74" on="1"/>
        <pt x="454" y="74" on="1"/>
        <pt x="447" y="62" on="0"/>
        <pt x="409" y="22" on="0"/>
        <pt x="343" y="-10" on="0"/>
        <pt x="292" y="-10" on="1"/>
        <pt x="233" y="-10" on="0"/>
        <pt x="145" y="37" on="0"/>
        <pt x="86" y="116" on="0"/>
        <pt x="57" y="214" on="0"/>
        <pt x="57" y="265" on="1"/>
        <pt x="57" y="316" on="0"/>
        <pt x="86" y="414" on="0"/>
        <pt x="145" y="493" on="0"/>
        <pt x="233" y="540" on="0"/>
      </contour>
      <contour>
        <pt x="327" y="431" on="1"/>
        <pt x="282" y="431" on="0"/>
        <pt x="221" y="382" on="0"/>
        <pt x="191" y="306" on="0"/>
        <pt x="191" y="265" on="1"/>
        <pt x="191" y="224" on="0"/>
        <pt x="221" y="148" on="0"/>
        <pt x="282" y="99" on="0"/>
        <pt x="327" y="99" on="1"/>
        <pt x="372" y="99" on="0"/>
        <pt x="432" y="148" on="0"/>
        <pt x="462" y="224" on="0"/>
        <pt x="462" y="265" on="1"/>
        <pt x="462" y="306" on="0"/>
        <pt x="432" y="382" on="0"/>
        <pt x="372" y="431" on="0"/>
      </contour>
    </TTGlyph>
    <TTGlyph name="abreve.ss01" xMin="54" yMin="-10" xMax="524" yMax="765">
      <contour>
        <pt x="299" y="600" on="1"/>
        <pt x="246" y="600" on="0"/>
        <pt x="180" y="633" on="0"/>
        <pt x="144" y="683" on="0"/>
        <pt x="129" y="732" on="0"/>
        <pt x="126" y="765" on="0"/>
        <pt x="126" y="765" on="1"/>
        <pt x="216" y="765" on="1"/>
        <pt x="216" y="765" on="0"/>
        <pt x="219" y="740" on="0"/>
        <pt x="234" y="706" on="0"/>
        <pt x="268" y="680" on="0"/>
        <pt x="299" y="680" on="1"/>
        <pt x="330" y="680" on="0"/>
        <pt x="365" y="706" on="0"/>
        <pt x="379" y="740" on="0"/>
        <pt x="383" y="765" on="0"/>
        <pt x="383" y="765" on="1"/>
        <pt x="473" y="765" on="1"/>
        <pt x="473" y="765" on="0"/>
        <pt x="470" y="732" on="0"/>
        <pt x="455" y="683" on="0"/>
        <pt x="419" y="633" on="0"/>
        <pt x="352" y="600" on="0"/>
      </contour>
      <contour>
        <pt x="385" y="67" on="1"/>
        <pt x="381" y="60" on="0"/>
        <pt x="348" y="23" on="0"/>
        <pt x="283" y="-10" on="0"/>
        <pt x="230" y="-10" on="1"/>
        <pt x="151" y="-10" on="0"/>
        <pt x="54" y="72" on="0"/>
        <pt x="54" y="142" on="1"/>
        <pt x="54" y="195" on="0"/>
        <pt x="108" y="262" on="0"/>
        <pt x="199" y="300" on="0"/>
        <pt x="256" y="308" on="1"/>
        <pt x="393" y="327" on="1"/>
        <pt x="393" y="343" on="1"/>
        <pt x="393" y="366" on="0"/>
        <pt x="375" y="409" on="0"/>
        <pt x="333" y="438" on="0"/>
        <pt x="296" y="438" on="1"/>
        <pt x="261" y="438" on="0"/>
        <pt x="221" y="415" on="0"/>
        <pt x="201" y="385" on="0"/>
        <pt x="195" y="362" on="0"/>
        <pt x="195" y="362" on="1"/>
        <pt x="70" y="362" on="1"/>
        <pt x="70" y="362" on="0"/>
        <pt x="76" y="398" on="0"/>
        <pt x="99" y="451" on="0"/>
        <pt x="149" y="504" on="0"/>
        <pt x="233" y="540" on="0"/>
        <pt x="298" y="540" on="1"/>
        <pt x="377" y="540" on="0"/>
        <pt x="477" y="484" on="0"/>
        <pt x="524" y="395" on="0"/>
        <pt x="524" y="345" on="1"/>
        <pt x="524" y="0" on="1"/>
        <pt x="393" y="0" on="1"/>
        <pt x="393" y="67" on="1"/>
      </contour>
      <contour>
        <pt x="183" y="152" on="1"/>
        <pt x="183" y="117" on="0"/>
        <pt x="234" y="83" on="0"/>
        <pt x="269" y="83" on="1"/>
        <pt x="322" y="83" on="0"/>
        <pt x="393" y="159" on="0"/>
        <pt x="393" y="222" on="1"/>
        <pt x="393" y="240" on="1"/>
        <pt x="273" y="222" on="1"/>
        <pt x="234" y="216" on="0"/>
        <pt x="183" y="185" on="0"/>
      </contour>
    </TTGlyph>
    <TTGlyph name="acircumflex" xMin="57" yMin="-10" xMax="593" yMax="775">
      <contour>
        <pt x="150" y="599" on="1"/>
        <pt x="277" y="775" on="1"/>
        <pt x="384" y="775" on="1"/>
        <pt x="511" y="599" on="1"/>
        <pt x="403" y="599" on="1"/>
        <pt x="331" y="704" on="1"/>
        <pt x="258" y="599" on="1"/>
      </contour>
      <contour>
        <pt x="292" y="540" on="1"/>
        <pt x="343" y="540" on="0"/>
        <pt x="409" y="507" on="0"/>
        <pt x="447" y="468" on="0"/>
        <pt x="454" y="456" on="1"/>
        <pt x="460" y="456" on="1"/>
        <pt x="460" y="530" on="1"/>
        <pt x="593" y="530" on="1"/>
        <pt x="593" y="0" on="1"/>
        <pt x="460" y="0" on="1"/>
        <pt x="460" y="74" on="1"/>
        <pt x="454" y="74" on="1"/>
        <pt x="447" y="62" on="0"/>
        <pt x="409" y="22" on="0"/>
        <pt x="343" y="-10" on="0"/>
        <pt x="292" y="-10" on="1"/>
        <pt x="233" y="-10" on="0"/>
        <pt x="145" y="37" on="0"/>
        <pt x="86" y="116" on="0"/>
        <pt x="57" y="214" on="0"/>
        <pt x="57" y="265" on="1"/>
        <pt x="57" y="316" on="0"/>
        <pt x="86" y="414" on="0"/>
        <pt x="145" y="493" on="0"/>
        <pt x="233" y="540" on="0"/>
      </contour>
      <contour>
        <pt x="327" y="431" on="1"/>
        <pt x="282" y="431" on="0"/>
        <pt x="221" y="382" on="0"/>
        <pt x="191" y="306" on="0"/>
        <pt x="191" y="265" on="1"/>
        <pt x="191" y="224" on="0"/>
        <pt x="221" y="148" on="0"/>
        <pt x="282" y="99" on="0"/>
        <pt x="327" y="99" on="1"/>
        <pt x="372" y="99" on="0"/>
        <pt x="432" y="148" on="0"/>
        <pt x="462" y="224" on="0"/>
        <pt x="462" y="265" on="1"/>
        <pt x="462" y="306" on="0"/>
        <pt x="432" y="382" on="0"/>
        <pt x="372" y="431" on="0"/>
      </contour>
    </TTGlyph>
    <TTGlyph name="acircumflex.ss01" xMin="54" yMin="-10" xMax="524" yMax="775">
      <contour>
        <pt x="120" y="599" on="1"/>
        <pt x="246" y="775" on="1"/>
        <pt x="354" y="775" on="1"/>
        <pt x="480" y="599" on="1"/>
        <pt x="372" y="599" on="1"/>
        <pt x="300" y="704" on="1"/>
        <pt x="228" y="599" on="1"/>
      </contour>
      <contour>
        <pt x="385" y="67" on="1"/>
        <pt x="381" y="60" on="0"/>
        <pt x="348" y="23" on="0"/>
        <pt x="283" y="-10" on="0"/>
        <pt x="230" y="-10" on="1"/>
        <pt x="151" y="-10" on="0"/>
        <pt x="54" y="72" on="0"/>
        <pt x="54" y="142" on="1"/>
        <pt x="54" y="195" on="0"/>
        <pt x="108" y="262" on="0"/>
        <pt x="199" y="300" on="0"/>
        <pt x="256" y="308" on="1"/>
        <pt x="393" y="327" on="1"/>
        <pt x="393" y="343" on="1"/>
        <pt x="393" y="366" on="0"/>
        <pt x="375" y="409" on="0"/>
        <pt x="333" y="438" on="0"/>
        <pt x="296" y="438" on="1"/>
        <pt x="261" y="438" on="0"/>
        <pt x="221" y="415" on="0"/>
        <pt x="201" y="385" on="0"/>
        <pt x="195" y="362" on="0"/>
        <pt x="195" y="362" on="1"/>
        <pt x="70" y="362" on="1"/>
        <pt x="70" y="362" on="0"/>
        <pt x="76" y="398" on="0"/>
        <pt x="99" y="451" on="0"/>
        <pt x="149" y="504" on="0"/>
        <pt x="233" y="540" on="0"/>
        <pt x="298" y="540" on="1"/>
        <pt x="377" y="540" on="0"/>
        <pt x="477" y="484" on="0"/>
        <pt x="524" y="395" on="0"/>
        <pt x="524" y="345" on="1"/>
        <pt x="524" y="0" on="1"/>
        <pt x="393" y="0" on="1"/>
        <pt x="393" y="67" on="1"/>
      </contour>
      <contour>
        <pt x="183" y="152" on="1"/>
        <pt x="183" y="117" on="0"/>
        <pt x="234" y="83" on="0"/>
        <pt x="269" y="83" on="1"/>
        <pt x="322" y="83" on="0"/>
        <pt x="393" y="159" on="0"/>
        <pt x="393" y="222" on="1"/>
        <pt x="393" y="240" on="1"/>
        <pt x="273" y="222" on="1"/>
        <pt x="234" y="216" on="0"/>
        <pt x="183" y="185" on="0"/>
      </contour>
    </TTGlyph>
    <TTGlyph name="acute" xMin="15" yMin="606" xMax="225" yMax="786">
      <contour>
        <pt x="117" y="606" on="1"/>
        <pt x="15" y="607" on="1"/>
        <pt x="98" y="786" on="1"/>
        <pt x="225" y="786" on="1"/>
      </contour>
    </TTGlyph>
    <TTGlyph name="acutecomb" xMin="17" yMin="606" xMax="227" yMax="786">
      <contour>
        <pt x="119" y="606" on="1"/>
        <pt x="17" y="607" on="1"/>
        <pt x="100" y="786" on="1"/>
        <pt x="227" y="786" on="1"/>
      </contour>
    </TTGlyph>
    <TTGlyph name="adieresis" xMin="57" yMin="-10" xMax="593" yMax="750">
      <contour>
        <pt x="437" y="598" on="1"/>
        <pt x="403" y="598" on="0"/>
        <pt x="359" y="642" on="0"/>
        <pt x="359" y="673" on="1"/>
        <pt x="359" y="705" on="0"/>
        <pt x="403" y="750" on="0"/>
        <pt x="437" y="750" on="1"/>
        <pt x="471" y="750" on="0"/>
        <pt x="515" y="705" on="0"/>
        <pt x="515" y="673" on="1"/>
        <pt x="515" y="642" on="0"/>
        <pt x="471" y="598" on="0"/>
      </contour>
      <contour>
        <pt x="223" y="598" on="1"/>
        <pt x="189" y="598" on="0"/>
        <pt x="145" y="642" on="0"/>
        <pt x="145" y="673" on="1"/>
        <pt x="145" y="705" on="0"/>
        <pt x="189" y="750" on="0"/>
        <pt x="223" y="750" on="1"/>
        <pt x="256" y="750" on="0"/>
        <pt x="301" y="705" on="0"/>
        <pt x="301" y="673" on="1"/>
        <pt x="301" y="642" on="0"/>
        <pt x="256" y="598" on="0"/>
      </contour>
      <contour>
        <pt x="292" y="540" on="1"/>
        <pt x="343" y="540" on="0"/>
        <pt x="409" y="507" on="0"/>
        <pt x="447" y="468" on="0"/>
        <pt x="454" y="456" on="1"/>
        <pt x="460" y="456" on="1"/>
        <pt x="460" y="530" on="1"/>
        <pt x="593" y="530" on="1"/>
        <pt x="593" y="0" on="1"/>
        <pt x="460" y="0" on="1"/>
        <pt x="460" y="74" on="1"/>
        <pt x="454" y="74" on="1"/>
        <pt x="447" y="62" on="0"/>
        <pt x="409" y="22" on="0"/>
        <pt x="343" y="-10" on="0"/>
        <pt x="292" y="-10" on="1"/>
        <pt x="233" y="-10" on="0"/>
        <pt x="145" y="37" on="0"/>
        <pt x="86" y="116" on="0"/>
        <pt x="57" y="214" on="0"/>
        <pt x="57" y="265" on="1"/>
        <pt x="57" y="316" on="0"/>
        <pt x="86" y="414" on="0"/>
        <pt x="145" y="493" on="0"/>
        <pt x="233" y="540" on="0"/>
      </contour>
      <contour>
        <pt x="327" y="431" on="1"/>
        <pt x="282" y="431" on="0"/>
        <pt x="221" y="382" on="0"/>
        <pt x="191" y="306" on="0"/>
        <pt x="191" y="265" on="1"/>
        <pt x="191" y="224" on="0"/>
        <pt x="221" y="148" on="0"/>
        <pt x="282" y="99" on="0"/>
        <pt x="327" y="99" on="1"/>
        <pt x="372" y="99" on="0"/>
        <pt x="432" y="148" on="0"/>
        <pt x="462" y="224" on="0"/>
        <pt x="462" y="265" on="1"/>
        <pt x="462" y="306" on="0"/>
        <pt x="432" y="382" on="0"/>
        <pt x="372" y="431" on="0"/>
      </contour>
    </TTGlyph>
    <TTGlyph name="adieresis.ss01" xMin="54" yMin="-10" xMax="524" yMax="750">
      <contour>
        <pt x="406" y="597" on="1"/>
        <pt x="372" y="597" on="0"/>
        <pt x="328" y="643" on="0"/>
        <pt x="328" y="673" on="1"/>
        <pt x="328" y="705" on="0"/>
        <pt x="372" y="750" on="0"/>
        <pt x="406" y="750" on="1"/>
        <pt x="440" y="750" on="0"/>
        <pt x="484" y="705" on="0"/>
        <pt x="484" y="673" on="1"/>
        <pt x="484" y="642" on="0"/>
        <pt x="440" y="597" on="0"/>
      </contour>
      <contour>
        <pt x="192" y="597" on="1"/>
        <pt x="158" y="597" on="0"/>
        <pt x="114" y="643" on="0"/>
        <pt x="114" y="673" on="1"/>
        <pt x="114" y="705" on="0"/>
        <pt x="158" y="750" on="0"/>
        <pt x="192" y="750" on="1"/>
        <pt x="225" y="750" on="0"/>
        <pt x="270" y="705" on="0"/>
        <pt x="270" y="673" on="1"/>
        <pt x="270" y="642" on="0"/>
        <pt x="225" y="597" on="0"/>
      </contour>
      <contour>
        <pt x="385" y="67" on="1"/>
        <pt x="381" y="60" on="0"/>
        <pt x="348" y="23" on="0"/>
        <pt x="283" y="-10" on="0"/>
        <pt x="230" y="-10" on="1"/>
        <pt x="151" y="-10" on="0"/>
        <pt x="54" y="72" on="0"/>
        <pt x="54" y="142" on="1"/>
        <pt x="54" y="195" on="0"/>
        <pt x="108" y="262" on="0"/>
        <pt x="199" y="300" on="0"/>
        <pt x="256" y="308" on="1"/>
        <pt x="393" y="327" on="1"/>
        <pt x="393" y="343" on="1"/>
        <pt x="393" y="366" on="0"/>
        <pt x="375" y="409" on="0"/>
        <pt x="333" y="438" on="0"/>
        <pt x="296" y="438" on="1"/>
        <pt x="261" y="438" on="0"/>
        <pt x="221" y="415" on="0"/>
        <pt x="201" y="385" on="0"/>
        <pt x="195" y="362" on="0"/>
        <pt x="195" y="362" on="1"/>
        <pt x="70" y="362" on="1"/>
        <pt x="70" y="362" on="0"/>
        <pt x="76" y="398" on="0"/>
        <pt x="99" y="451" on="0"/>
        <pt x="149" y="504" on="0"/>
        <pt x="233" y="540" on="0"/>
        <pt x="298" y="540" on="1"/>
        <pt x="377" y="540" on="0"/>
        <pt x="477" y="484" on="0"/>
        <pt x="524" y="395" on="0"/>
        <pt x="524" y="345" on="1"/>
        <pt x="524" y="0" on="1"/>
        <pt x="393" y="0" on="1"/>
        <pt x="393" y="67" on="1"/>
      </contour>
      <contour>
        <pt x="183" y="152" on="1"/>
        <pt x="183" y="117" on="0"/>
        <pt x="234" y="83" on="0"/>
        <pt x="269" y="83" on="1"/>
        <pt x="322" y="83" on="0"/>
        <pt x="393" y="159" on="0"/>
        <pt x="393" y="222" on="1"/>
        <pt x="393" y="240" on="1"/>
        <pt x="273" y="222" on="1"/>
        <pt x="234" y="216" on="0"/>
        <pt x="183" y="185" on="0"/>
      </contour>
    </TTGlyph>
    <TTGlyph name="ae" xMin="50" yMin="-10" xMax="906" yMax="540">
      <contour>
        <pt x="239" y="-10" on="1"/>
        <pt x="185" y="-10" on="0"/>
        <pt x="100" y="27" on="0"/>
        <pt x="50" y="99" on="0"/>
        <pt x="50" y="151" on="1"/>
        <pt x="50" y="225" on="0"/>
        <pt x="160" y="311" on="0"/>
        <pt x="261" y="312" on="1"/>
        <pt x="394" y="313" on="1"/>
        <pt x="394" y="338" on="1"/>
        <pt x="394" y="362" on="0"/>
        <pt x="376" y="408" on="0"/>
        <pt x="332" y="438" on="0"/>
        <pt x="293" y="438" on="1"/>
        <pt x="258" y="438" on="0"/>
        <pt x="216" y="415" on="0"/>
        <pt x="195" y="385" on="0"/>
        <pt x="189" y="362" on="0"/>
        <pt x="189" y="362" on="1"/>
        <pt x="63" y="362" on="1"/>
        <pt x="63" y="362" on="0"/>
        <pt x="70" y="398" on="0"/>
        <pt x="95" y="451" on="0"/>
        <pt x="144" y="504" on="0"/>
        <pt x="226" y="540" on="0"/>
        <pt x="287" y="540" on="1"/>
        <pt x="346" y="540" on="0"/>
        <pt x="423" y="508" on="0"/>
        <pt x="464" y="464" on="0"/>
        <pt x="469" y="446" on="1"/>
        <pt x="472" y="446" on="1"/>
        <pt x="480" y="463" on="0"/>
        <pt x="525" y="507" on="0"/>
        <pt x="603" y="540" on="0"/>
        <pt x="661" y="540" on="1"/>
        <pt x="731" y="540" on="0"/>
        <pt x="841" y="478" on="0"/>
        <pt x="906" y="354" on="0"/>
        <pt x="906" y="261" on="1"/>
        <pt x="906" y="227" on="1"/>
        <pt x="527" y="227" on="1"/>
        <pt x="529" y="192" on="0"/>
        <pt x="562" y="130" on="0"/>
        <pt x="622" y="93" on="0"/>
        <pt x="664" y="93" on="1"/>
        <pt x="698" y="93" on="0"/>
        <pt x="743" y="115" on="0"/>
        <pt x="769" y="145" on="0"/>
        <pt x="779" y="167" on="0"/>
        <pt x="779" y="167" on="1"/>
        <pt x="901" y="167" on="1"/>
        <pt x="901" y="167" on="0"/>
        <pt x="891" y="132" on="0"/>
        <pt x="862" y="79" on="0"/>
        <pt x="809" y="26" on="0"/>
        <pt x="725" y="-10" on="0"/>
        <pt x="662" y="-10" on="1"/>
        <pt x="609" y="-10" on="0"/>
        <pt x="531" y="18" on="0"/>
        <pt x="479" y="57" on="0"/>
        <pt x="450" y="95" on="0"/>
        <pt x="446" y="105" on="1"/>
        <pt x="441" y="105" on="1"/>
        <pt x="441" y="105" on="0"/>
        <pt x="423" y="70" on="0"/>
        <pt x="379" y="25" on="0"/>
        <pt x="300" y="-10" on="0"/>
      </contour>
      <contour>
        <pt x="526" y="313" on="1"/>
        <pt x="779" y="313" on="1"/>
        <pt x="776" y="381" on="0"/>
        <pt x="706" y="440" on="0"/>
        <pt x="656" y="440" on="1"/>
        <pt x="603" y="440" on="0"/>
        <pt x="531" y="374" on="0"/>
      </contour>
      <contour>
        <pt x="270" y="83" on="1"/>
        <pt x="327" y="83" on="0"/>
        <pt x="394" y="158" on="0"/>
        <pt x="394" y="211" on="1"/>
        <pt x="394" y="227" on="1"/>
        <pt x="269" y="225" on="1"/>
        <pt x="222" y="225" on="0"/>
        <pt x="178" y="184" on="0"/>
        <pt x="178" y="154" on="1"/>
        <pt x="178" y="119" on="0"/>
        <pt x="233" y="83" on="0"/>
      </contour>
    </TTGlyph>
    <TTGlyph name="agrave" xMin="57" yMin="-10" xMax="593" yMax="786">
      <contour>
        <pt x="283" y="606" on="1"/>
        <pt x="175" y="786" on="1"/>
        <pt x="302" y="786" on="1"/>
        <pt x="384" y="607" on="1"/>
      </contour>
      <contour>
        <pt x="292" y="540" on="1"/>
        <pt x="343" y="540" on="0"/>
        <pt x="409" y="507" on="0"/>
        <pt x="447" y="468" on="0"/>
        <pt x="454" y="456" on="1"/>
        <pt x="460" y="456" on="1"/>
        <pt x="460" y="530" on="1"/>
        <pt x="593" y="530" on="1"/>
        <pt x="593" y="0" on="1"/>
        <pt x="460" y="0" on="1"/>
        <pt x="460" y="74" on="1"/>
        <pt x="454" y="74" on="1"/>
        <pt x="447" y="62" on="0"/>
        <pt x="409" y="22" on="0"/>
        <pt x="343" y="-10" on="0"/>
        <pt x="292" y="-10" on="1"/>
        <pt x="233" y="-10" on="0"/>
        <pt x="145" y="37" on="0"/>
        <pt x="86" y="116" on="0"/>
        <pt x="57" y="214" on="0"/>
        <pt x="57" y="265" on="1"/>
        <pt x="57" y="316" on="0"/>
        <pt x="86" y="414" on="0"/>
        <pt x="145" y="493" on="0"/>
        <pt x="233" y="540" on="0"/>
      </contour>
      <contour>
        <pt x="327" y="431" on="1"/>
        <pt x="282" y="431" on="0"/>
        <pt x="221" y="382" on="0"/>
        <pt x="191" y="306" on="0"/>
        <pt x="191" y="265" on="1"/>
        <pt x="191" y="224" on="0"/>
        <pt x="221" y="148" on="0"/>
        <pt x="282" y="99" on="0"/>
        <pt x="327" y="99" on="1"/>
        <pt x="372" y="99" on="0"/>
        <pt x="432" y="148" on="0"/>
        <pt x="462" y="224" on="0"/>
        <pt x="462" y="265" on="1"/>
        <pt x="462" y="306" on="0"/>
        <pt x="432" y="382" on="0"/>
        <pt x="372" y="431" on="0"/>
      </contour>
    </TTGlyph>
    <TTGlyph name="agrave.ss01" xMin="54" yMin="-10" xMax="524" yMax="786">
      <contour>
        <pt x="252" y="606" on="1"/>
        <pt x="144" y="786" on="1"/>
        <pt x="271" y="786" on="1"/>
        <pt x="354" y="607" on="1"/>
      </contour>
      <contour>
        <pt x="385" y="67" on="1"/>
        <pt x="381" y="60" on="0"/>
        <pt x="348" y="23" on="0"/>
        <pt x="283" y="-10" on="0"/>
        <pt x="230" y="-10" on="1"/>
        <pt x="151" y="-10" on="0"/>
        <pt x="54" y="72" on="0"/>
        <pt x="54" y="142" on="1"/>
        <pt x="54" y="195" on="0"/>
        <pt x="108" y="262" on="0"/>
        <pt x="199" y="300" on="0"/>
        <pt x="256" y="308" on="1"/>
        <pt x="393" y="327" on="1"/>
        <pt x="393" y="343" on="1"/>
        <pt x="393" y="366" on="0"/>
        <pt x="375" y="409" on="0"/>
        <pt x="333" y="438" on="0"/>
        <pt x="296" y="438" on="1"/>
        <pt x="261" y="438" on="0"/>
        <pt x="221" y="415" on="0"/>
        <pt x="201" y="385" on="0"/>
        <pt x="195" y="362" on="0"/>
        <pt x="195" y="362" on="1"/>
        <pt x="70" y="362" on="1"/>
        <pt x="70" y="362" on="0"/>
        <pt x="76" y="398" on="0"/>
        <pt x="99" y="451" on="0"/>
        <pt x="149" y="504" on="0"/>
        <pt x="233" y="540" on="0"/>
        <pt x="298" y="540" on="1"/>
        <pt x="377" y="540" on="0"/>
        <pt x="477" y="484" on="0"/>
        <pt x="524" y="395" on="0"/>
        <pt x="524" y="345" on="1"/>
        <pt x="524" y="0" on="1"/>
        <pt x="393" y="0" on="1"/>
        <pt x="393" y="67" on="1"/>
      </contour>
      <contour>
        <pt x="183" y="152" on="1"/>
        <pt x="183" y="117" on="0"/>
        <pt x="234" y="83" on="0"/>
        <pt x="269" y="83" on="1"/>
        <pt x="322" y="83" on="0"/>
        <pt x="393" y="159" on="0"/>
        <pt x="393" y="222" on="1"/>
        <pt x="393" y="240" on="1"/>
        <pt x="273" y="222" on="1"/>
        <pt x="234" y="216" on="0"/>
        <pt x="183" y="185" on="0"/>
      </contour>
    </TTGlyph>
    <TTGlyph name="amacron" xMin="57" yMin="-10" xMax="593" yMax="703">
      <contour>
        <pt x="171" y="619" on="1"/>
        <pt x="171" y="703" on="1"/>
        <pt x="489" y="703" on="1"/>
        <pt x="489" y="619" on="1"/>
      </contour>
      <contour>
        <pt x="292" y="540" on="1"/>
        <pt x="343" y="540" on="0"/>
        <pt x="409" y="507" on="0"/>
        <pt x="447" y="468" on="0"/>
        <pt x="454" y="456" on="1"/>
        <pt x="460" y="456" on="1"/>
        <pt x="460" y="530" on="1"/>
        <pt x="593" y="530" on="1"/>
        <pt x="593" y="0" on="1"/>
        <pt x="460" y="0" on="1"/>
        <pt x="460" y="74" on="1"/>
        <pt x="454" y="74" on="1"/>
        <pt x="447" y="62" on="0"/>
        <pt x="409" y="22" on="0"/>
        <pt x="343" y="-10" on="0"/>
        <pt x="292" y="-10" on="1"/>
        <pt x="233" y="-10" on="0"/>
        <pt x="145" y="37" on="0"/>
        <pt x="86" y="116" on="0"/>
        <pt x="57" y="214" on="0"/>
        <pt x="57" y="265" on="1"/>
        <pt x="57" y="316" on="0"/>
        <pt x="86" y="414" on="0"/>
        <pt x="145" y="493" on="0"/>
        <pt x="233" y="540" on="0"/>
      </contour>
      <contour>
        <pt x="327" y="431" on="1"/>
        <pt x="282" y="431" on="0"/>
        <pt x="221" y="382" on="0"/>
        <pt x="191" y="306" on="0"/>
        <pt x="191" y="265" on="1"/>
        <pt x="191" y="224" on="0"/>
        <pt x="221" y="148" on="0"/>
        <pt x="282" y="99" on="0"/>
        <pt x="327" y="99" on="1"/>
        <pt x="372" y="99" on="0"/>
        <pt x="432" y="148" on="0"/>
        <pt x="462" y="224" on="0"/>
        <pt x="462" y="265" on="1"/>
        <pt x="462" y="306" on="0"/>
        <pt x="432" y="382" on="0"/>
        <pt x="372" y="431" on="0"/>
      </contour>
    </TTGlyph>
    <TTGlyph name="amacron.ss01" xMin="54" yMin="-10" xMax="524" yMax="703">
      <contour>
        <pt x="140" y="619" on="1"/>
        <pt x="140" y="703" on="1"/>
        <pt x="459" y="703" on="1"/>
        <pt x="459" y="619" on="1"/>
      </contour>
      <contour>
        <pt x="385" y="67" on="1"/>
        <pt x="381" y="60" on="0"/>
        <pt x="348" y="23" on="0"/>
        <pt x="283" y="-10" on="0"/>
        <pt x="230" y="-10" on="1"/>
        <pt x="151" y="-10" on="0"/>
        <pt x="54" y="72" on="0"/>
        <pt x="54" y="142" on="1"/>
        <pt x="54" y="195" on="0"/>
        <pt x="108" y="262" on="0"/>
        <pt x="199" y="300" on="0"/>
        <pt x="256" y="308" on="1"/>
        <pt x="393" y="327" on="1"/>
        <pt x="393" y="343" on="1"/>
        <pt x="393" y="366" on="0"/>
        <pt x="375" y="409" on="0"/>
        <pt x="333" y="438" on="0"/>
        <pt x="296" y="438" on="1"/>
        <pt x="261" y="438" on="0"/>
        <pt x="221" y="415" on="0"/>
        <pt x="201" y="385" on="0"/>
        <pt x="195" y="362" on="0"/>
        <pt x="195" y="362" on="1"/>
        <pt x="70" y="362" on="1"/>
        <pt x="70" y="362" on="0"/>
        <pt x="76" y="398" on="0"/>
        <pt x="99" y="451" on="0"/>
        <pt x="149" y="504" on="0"/>
        <pt x="233" y="540" on="0"/>
        <pt x="298" y="540" on="1"/>
        <pt x="377" y="540" on="0"/>
        <pt x="477" y="484" on="0"/>
        <pt x="524" y="395" on="0"/>
        <pt x="524" y="345" on="1"/>
        <pt x="524" y="0" on="1"/>
        <pt x="393" y="0" on="1"/>
        <pt x="393" y="67" on="1"/>
      </contour>
      <contour>
        <pt x="183" y="152" on="1"/>
        <pt x="183" y="117" on="0"/>
        <pt x="234" y="83" on="0"/>
        <pt x="269" y="83" on="1"/>
        <pt x="322" y="83" on="0"/>
        <pt x="393" y="159" on="0"/>
        <pt x="393" y="222" on="1"/>
        <pt x="393" y="240" on="1"/>
        <pt x="273" y="222" on="1"/>
        <pt x="234" y="216" on="0"/>
        <pt x="183" y="185" on="0"/>
      </contour>
    </TTGlyph>
    <TTGlyph name="ampersand" xMin="52" yMin="-10" xMax="721" yMax="750">
      <contour>
        <pt x="314" y="-10" on="1"/>
        <pt x="242" y="-10" on="0"/>
        <pt x="123" y="42" on="0"/>
        <pt x="52" y="139" on="0"/>
        <pt x="52" y="208" on="1"/>
        <pt x="52" y="277" on="0"/>
        <pt x="126" y="376" on="0"/>
        <pt x="193" y="414" on="1"/>
        <pt x="169" y="442" on="0"/>
        <pt x="125" y="518" on="0"/>
        <pt x="125" y="573" on="1"/>
        <pt x="125" y="631" on="0"/>
        <pt x="180" y="710" on="0"/>
        <pt x="268" y="750" on="0"/>
        <pt x="317" y="750" on="1"/>
        <pt x="364" y="750" on="0"/>
        <pt x="450" y="712" on="0"/>
        <pt x="503" y="639" on="0"/>
        <pt x="503" y="586" on="1"/>
        <pt x="503" y="522" on="0"/>
        <pt x="425" y="429" on="0"/>
        <pt x="363" y="396" on="1"/>
        <pt x="512" y="232" on="1"/>
        <pt x="527" y="269" on="0"/>
        <pt x="544" y="363" on="0"/>
        <pt x="544" y="422" on="1"/>
        <pt x="651" y="422" on="1"/>
        <pt x="651" y="334" on="0"/>
        <pt x="619" y="197" on="0"/>
        <pt x="590" y="146" on="1"/>
        <pt x="721" y="1" on="1"/>
        <pt x="557" y="1" on="1"/>
        <pt x="511" y="54" on="1"/>
        <pt x="469" y="21" on="0"/>
        <pt x="368" y="-10" on="0"/>
      </contour>
      <contour>
        <pt x="237" y="577" on="1"/>
        <pt x="237" y="547" on="0"/>
        <pt x="275" y="493" on="0"/>
        <pt x="299" y="466" on="1"/>
        <pt x="339" y="486" on="0"/>
        <pt x="392" y="542" on="0"/>
        <pt x="392" y="581" on="1"/>
        <pt x="392" y="617" on="0"/>
        <pt x="346" y="656" on="0"/>
        <pt x="316" y="656" on="1"/>
        <pt x="285" y="656" on="0"/>
        <pt x="237" y="614" on="0"/>
      </contour>
      <contour>
        <pt x="174" y="218" on="1"/>
        <pt x="174" y="163" on="0"/>
        <pt x="256" y="95" on="0"/>
        <pt x="321" y="95" on="1"/>
        <pt x="353" y="95" on="0"/>
        <pt x="414" y="114" on="0"/>
        <pt x="440" y="134" on="1"/>
        <pt x="257" y="342" on="1"/>
        <pt x="218" y="317" on="0"/>
        <pt x="174" y="257" on="0"/>
      </contour>
    </TTGlyph>
    <TTGlyph name="aogonek" xMin="57" yMin="-180" xMax="631" yMax="540">
      <contour>
        <pt x="575" y="-180" on="1"/>
        <pt x="507" y="-180" on="0"/>
        <pt x="442" y="-122" on="0"/>
        <pt x="442" y="-83" on="1"/>
        <pt x="442" y="-53" on="0"/>
        <pt x="472" y="-12" on="0"/>
        <pt x="490" y="0" on="1"/>
        <pt x="460" y="0" on="1"/>
        <pt x="460" y="74" on="1"/>
        <pt x="454" y="74" on="1"/>
        <pt x="447" y="62" on="0"/>
        <pt x="409" y="22" on="0"/>
        <pt x="343" y="-10" on="0"/>
        <pt x="292" y="-10" on="1"/>
        <pt x="233" y="-10" on="0"/>
        <pt x="145" y="37" on="0"/>
        <pt x="86" y="116" on="0"/>
        <pt x="57" y="214" on="0"/>
        <pt x="57" y="265" on="1"/>
        <pt x="57" y="316" on="0"/>
        <pt x="86" y="414" on="0"/>
        <pt x="145" y="493" on="0"/>
        <pt x="233" y="540" on="0"/>
        <pt x="292" y="540" on="1"/>
        <pt x="343" y="540" on="0"/>
        <pt x="409" y="507" on="0"/>
        <pt x="447" y="468" on="0"/>
        <pt x="454" y="456" on="1"/>
        <pt x="460" y="456" on="1"/>
        <pt x="460" y="530" on="1"/>
        <pt x="593" y="530" on="1"/>
        <pt x="593" y="0" on="1"/>
        <pt x="593" y="0" on="0"/>
        <pt x="567" y="-13" on="0"/>
        <pt x="541" y="-40" on="0"/>
        <pt x="541" y="-60" on="1"/>
        <pt x="541" y="-76" on="0"/>
        <pt x="568" y="-100" on="0"/>
        <pt x="596" y="-100" on="1"/>
        <pt x="609" y="-100" on="0"/>
        <pt x="631" y="-95" on="0"/>
        <pt x="631" y="-95" on="1"/>
        <pt x="631" y="-174" on="1"/>
        <pt x="631" y="-174" on="0"/>
        <pt x="599" y="-180" on="0"/>
      </contour>
      <contour>
        <pt x="327" y="431" on="1"/>
        <pt x="282" y="431" on="0"/>
        <pt x="221" y="382" on="0"/>
        <pt x="191" y="306" on="0"/>
        <pt x="191" y="265" on="1"/>
        <pt x="191" y="224" on="0"/>
        <pt x="221" y="148" on="0"/>
        <pt x="282" y="99" on="0"/>
        <pt x="327" y="99" on="1"/>
        <pt x="372" y="99" on="0"/>
        <pt x="432" y="148" on="0"/>
        <pt x="462" y="224" on="0"/>
        <pt x="462" y="265" on="1"/>
        <pt x="462" y="306" on="0"/>
        <pt x="432" y="382" on="0"/>
        <pt x="372" y="431" on="0"/>
      </contour>
    </TTGlyph>
    <TTGlyph name="aogonek.ss01" xMin="54" yMin="-180" xMax="562" yMax="540">
      <contour>
        <pt x="506" y="-180" on="1"/>
        <pt x="438" y="-180" on="0"/>
        <pt x="373" y="-122" on="0"/>
        <pt x="373" y="-83" on="1"/>
        <pt x="373" y="-53" on="0"/>
        <pt x="403" y="-12" on="0"/>
        <pt x="421" y="0" on="1"/>
        <pt x="393" y="0" on="1"/>
        <pt x="393" y="67" on="1"/>
        <pt x="385" y="67" on="1"/>
        <pt x="381" y="60" on="0"/>
        <pt x="348" y="23" on="0"/>
        <pt x="283" y="-10" on="0"/>
        <pt x="230" y="-10" on="1"/>
        <pt x="151" y="-10" on="0"/>
        <pt x="54" y="72" on="0"/>
        <pt x="54" y="142" on="1"/>
        <pt x="54" y="195" on="0"/>
        <pt x="108" y="262" on="0"/>
        <pt x="199" y="300" on="0"/>
        <pt x="256" y="308" on="1"/>
        <pt x="393" y="327" on="1"/>
        <pt x="393" y="343" on="1"/>
        <pt x="393" y="366" on="0"/>
        <pt x="375" y="409" on="0"/>
        <pt x="333" y="438" on="0"/>
        <pt x="296" y="438" on="1"/>
        <pt x="261" y="438" on="0"/>
        <pt x="221" y="415" on="0"/>
        <pt x="201" y="385" on="0"/>
        <pt x="195" y="362" on="0"/>
        <pt x="195" y="362" on="1"/>
        <pt x="70" y="362" on="1"/>
        <pt x="70" y="362" on="0"/>
        <pt x="76" y="398" on="0"/>
        <pt x="99" y="451" on="0"/>
        <pt x="149" y="504" on="0"/>
        <pt x="233" y="540" on="0"/>
        <pt x="298" y="540" on="1"/>
        <pt x="377" y="540" on="0"/>
        <pt x="477" y="484" on="0"/>
        <pt x="524" y="395" on="0"/>
        <pt x="524" y="345" on="1"/>
        <pt x="524" y="0" on="1"/>
        <pt x="524" y="0" on="0"/>
        <pt x="498" y="-13" on="0"/>
        <pt x="472" y="-40" on="0"/>
        <pt x="472" y="-60" on="1"/>
        <pt x="472" y="-76" on="0"/>
        <pt x="499" y="-100" on="0"/>
        <pt x="527" y="-100" on="1"/>
        <pt x="540" y="-100" on="0"/>
        <pt x="562" y="-95" on="0"/>
        <pt x="562" y="-95" on="1"/>
        <pt x="562" y="-174" on="1"/>
        <pt x="562" y="-174" on="0"/>
        <pt x="530" y="-180" on="0"/>
      </contour>
      <contour>
        <pt x="183" y="152" on="1"/>
        <pt x="183" y="117" on="0"/>
        <pt x="234" y="83" on="0"/>
        <pt x="269" y="83" on="1"/>
        <pt x="322" y="83" on="0"/>
        <pt x="393" y="159" on="0"/>
        <pt x="393" y="222" on="1"/>
        <pt x="393" y="240" on="1"/>
        <pt x="273" y="222" on="1"/>
        <pt x="234" y="216" on="0"/>
        <pt x="183" y="185" on="0"/>
      </contour>
    </TTGlyph>
    <TTGlyph name="approxequal" xMin="117" yMin="160" xMax="468" yMax="523">
      <contour>
        <pt x="366" y="378" on="1"/>
        <pt x="337" y="378" on="0"/>
        <pt x="297" y="397" on="0"/>
        <pt x="267" y="423" on="0"/>
        <pt x="240" y="442" on="0"/>
        <pt x="225" y="442" on="1"/>
        <pt x="207" y="442" on="0"/>
        <pt x="193" y="410" on="0"/>
        <pt x="193" y="384" on="1"/>
        <pt x="117" y="384" on="1"/>
        <pt x="117" y="416" on="0"/>
        <pt x="133" y="480" on="0"/>
        <pt x="178" y="523" on="0"/>
        <pt x="219" y="523" on="1"/>
        <pt x="247" y="523" on="0"/>
        <pt x="288" y="504" on="0"/>
        <pt x="319" y="479" on="0"/>
        <pt x="346" y="460" on="0"/>
        <pt x="360" y="460" on="1"/>
        <pt x="391" y="460" on="0"/>
        <pt x="391" y="518" on="1"/>
        <pt x="468" y="518" on="1"/>
        <pt x="468" y="486" on="0"/>
        <pt x="451" y="421" on="0"/>
        <pt x="407" y="378" on="0"/>
      </contour>
      <contour>
        <pt x="366" y="160" on="1"/>
        <pt x="337" y="160" on="0"/>
        <pt x="297" y="179" on="0"/>
        <pt x="267" y="204" on="0"/>
        <pt x="240" y="223" on="0"/>
        <pt x="225" y="223" on="1"/>
        <pt x="207" y="223" on="0"/>
        <pt x="193" y="192" on="0"/>
        <pt x="193" y="165" on="1"/>
        <pt x="117" y="165" on="1"/>
        <pt x="117" y="197" on="0"/>
        <pt x="133" y="261" on="0"/>
        <pt x="178" y="304" on="0"/>
        <pt x="219" y="304" on="1"/>
        <pt x="247" y="304" on="0"/>
        <pt x="288" y="285" on="0"/>
        <pt x="319" y="260" on="0"/>
        <pt x="346" y="241" on="0"/>
        <pt x="360" y="241" on="1"/>
        <pt x="391" y="241" on="0"/>
        <pt x="391" y="299" on="1"/>
        <pt x="468" y="299" on="1"/>
        <pt x="468" y="267" on="0"/>
        <pt x="451" y="203" on="0"/>
        <pt x="407" y="160" on="0"/>
      </contour>
    </TTGlyph>
    <TTGlyph name="aring" xMin="57" yMin="-10" xMax="593" yMax="858">
      <contour>
        <pt x="330" y="592" on="1"/>
        <pt x="293" y="592" on="0"/>
        <pt x="233" y="628" on="0"/>
        <pt x="196" y="689" on="0"/>
        <pt x="196" y="726" on="1"/>
        <pt x="196" y="762" on="0"/>
        <pt x="233" y="823" on="0"/>
        <pt x="293" y="858" on="0"/>
        <pt x="330" y="858" on="1"/>
        <pt x="367" y="858" on="0"/>
        <pt x="427" y="823" on="0"/>
        <pt x="463" y="762" on="0"/>
        <pt x="463" y="726" on="1"/>
        <pt x="463" y="689" on="0"/>
        <pt x="427" y="628" on="0"/>
        <pt x="367" y="592" on="0"/>
      </contour>
      <contour>
        <pt x="330" y="669" on="1"/>
        <pt x="353" y="669" on="0"/>
        <pt x="387" y="702" on="0"/>
        <pt x="387" y="726" on="1"/>
        <pt x="387" y="749" on="0"/>
        <pt x="353" y="782" on="0"/>
        <pt x="330" y="782" on="1"/>
        <pt x="307" y="782" on="0"/>
        <pt x="273" y="749" on="0"/>
        <pt x="273" y="726" on="1"/>
        <pt x="273" y="702" on="0"/>
        <pt x="307" y="669" on="0"/>
      </contour>
      <contour>
        <pt x="292" y="540" on="1"/>
        <pt x="343" y="540" on="0"/>
        <pt x="409" y="507" on="0"/>
        <pt x="447" y="468" on="0"/>
        <pt x="454" y="456" on="1"/>
        <pt x="460" y="456" on="1"/>
        <pt x="460" y="530" on="1"/>
        <pt x="593" y="530" on="1"/>
        <pt x="593" y="0" on="1"/>
        <pt x="460" y="0" on="1"/>
        <pt x="460" y="74" on="1"/>
        <pt x="454" y="74" on="1"/>
        <pt x="447" y="62" on="0"/>
        <pt x="409" y="22" on="0"/>
        <pt x="343" y="-10" on="0"/>
        <pt x="292" y="-10" on="1"/>
        <pt x="233" y="-10" on="0"/>
        <pt x="145" y="37" on="0"/>
        <pt x="86" y="116" on="0"/>
        <pt x="57" y="214" on="0"/>
        <pt x="57" y="265" on="1"/>
        <pt x="57" y="316" on="0"/>
        <pt x="86" y="414" on="0"/>
        <pt x="145" y="493" on="0"/>
        <pt x="233" y="540" on="0"/>
      </contour>
      <contour>
        <pt x="327" y="431" on="1"/>
        <pt x="282" y="431" on="0"/>
        <pt x="221" y="382" on="0"/>
        <pt x="191" y="306" on="0"/>
        <pt x="191" y="265" on="1"/>
        <pt x="191" y="224" on="0"/>
        <pt x="221" y="148" on="0"/>
        <pt x="282" y="99" on="0"/>
        <pt x="327" y="99" on="1"/>
        <pt x="372" y="99" on="0"/>
        <pt x="432" y="148" on="0"/>
        <pt x="462" y="224" on="0"/>
        <pt x="462" y="265" on="1"/>
        <pt x="462" y="306" on="0"/>
        <pt x="432" y="382" on="0"/>
        <pt x="372" y="431" on="0"/>
      </contour>
    </TTGlyph>
    <TTGlyph name="aring.ss01" xMin="54" yMin="-10" xMax="524" yMax="858">
      <contour>
        <pt x="299" y="592" on="1"/>
        <pt x="263" y="592" on="0"/>
        <pt x="202" y="628" on="0"/>
        <pt x="166" y="689" on="0"/>
        <pt x="166" y="726" on="1"/>
        <pt x="166" y="762" on="0"/>
        <pt x="202" y="823" on="0"/>
        <pt x="263" y="858" on="0"/>
        <pt x="299" y="858" on="1"/>
        <pt x="336" y="858" on="0"/>
        <pt x="397" y="823" on="0"/>
        <pt x="433" y="762" on="0"/>
        <pt x="433" y="726" on="1"/>
        <pt x="433" y="689" on="0"/>
        <pt x="397" y="628" on="0"/>
        <pt x="336" y="592" on="0"/>
      </contour>
      <contour>
        <pt x="299" y="669" on="1"/>
        <pt x="323" y="669" on="0"/>
        <pt x="356" y="702" on="0"/>
        <pt x="356" y="726" on="1"/>
        <pt x="356" y="749" on="0"/>
        <pt x="323" y="782" on="0"/>
        <pt x="299" y="782" on="1"/>
        <pt x="276" y="782" on="0"/>
        <pt x="242" y="749" on="0"/>
        <pt x="242" y="726" on="1"/>
        <pt x="242" y="702" on="0"/>
        <pt x="276" y="669" on="0"/>
      </contour>
      <contour>
        <pt x="385" y="67" on="1"/>
        <pt x="381" y="60" on="0"/>
        <pt x="348" y="23" on="0"/>
        <pt x="283" y="-10" on="0"/>
        <pt x="230" y="-10" on="1"/>
        <pt x="151" y="-10" on="0"/>
        <pt x="54" y="72" on="0"/>
        <pt x="54" y="142" on="1"/>
        <pt x="54" y="195" on="0"/>
        <pt x="108" y="262" on="0"/>
        <pt x="199" y="300" on="0"/>
        <pt x="256" y="308" on="1"/>
        <pt x="393" y="327" on="1"/>
        <pt x="393" y="343" on="1"/>
        <pt x="393" y="366" on="0"/>
        <pt x="375" y="409" on="0"/>
        <pt x="333" y="438" on="0"/>
        <pt x="296" y="438" on="1"/>
        <pt x="261" y="438" on="0"/>
        <pt x="221" y="415" on="0"/>
        <pt x="201" y="385" on="0"/>
        <pt x="195" y="362" on="0"/>
        <pt x="195" y="362" on="1"/>
        <pt x="70" y="362" on="1"/>
        <pt x="70" y="362" on="0"/>
        <pt x="76" y="398" on="0"/>
        <pt x="99" y="451" on="0"/>
        <pt x="149" y="504" on="0"/>
        <pt x="233" y="540" on="0"/>
        <pt x="298" y="540" on="1"/>
        <pt x="377" y="540" on="0"/>
        <pt x="477" y="484" on="0"/>
        <pt x="524" y="395" on="0"/>
        <pt x="524" y="345" on="1"/>
        <pt x="524" y="0" on="1"/>
        <pt x="393" y="0" on="1"/>
        <pt x="393" y="67" on="1"/>
      </contour>
      <contour>
        <pt x="183" y="152" on="1"/>
        <pt x="183" y="117" on="0"/>
        <pt x="234" y="83" on="0"/>
        <pt x="269" y="83" on="1"/>
        <pt x="322" y="83" on="0"/>
        <pt x="393" y="159" on="0"/>
        <pt x="393" y="222" on="1"/>
        <pt x="393" y="240" on="1"/>
        <pt x="273" y="222" on="1"/>
        <pt x="234" y="216" on="0"/>
        <pt x="183" y="185" on="0"/>
      </contour>
    </TTGlyph>
    <TTGlyph name="asciicircum" xMin="117" yMin="564" xMax="477" yMax="740">
      <contour>
        <pt x="117" y="564" on="1"/>
        <pt x="243" y="740" on="1"/>
        <pt x="351" y="740" on="1"/>
        <pt x="477" y="564" on="1"/>
        <pt x="369" y="564" on="1"/>
        <pt x="297" y="669" on="1"/>
        <pt x="225" y="564" on="1"/>
      </contour>
    </TTGlyph>
    <TTGlyph name="asciitilde" xMin="66" yMin="316" xMax="417" yMax="460">
      <contour>
        <pt x="315" y="316" on="1"/>
        <pt x="287" y="316" on="0"/>
        <pt x="247" y="335" on="0"/>
        <pt x="216" y="360" on="0"/>
        <pt x="189" y="379" on="0"/>
        <pt x="174" y="379" on="1"/>
        <pt x="157" y="379" on="0"/>
        <pt x="142" y="348" on="0"/>
        <pt x="142" y="321" on="1"/>
        <pt x="66" y="321" on="1"/>
        <pt x="66" y="353" on="0"/>
        <pt x="83" y="417" on="0"/>
        <pt x="127" y="460" on="0"/>
        <pt x="168" y="460" on="1"/>
        <pt x="196" y="460" on="0"/>
        <pt x="237" y="441" on="0"/>
        <pt x="269" y="416" on="0"/>
        <pt x="295" y="397" on="0"/>
        <pt x="309" y="397" on="1"/>
        <pt x="341" y="397" on="0"/>
        <pt x="341" y="455" on="1"/>
        <pt x="417" y="455" on="1"/>
        <pt x="417" y="423" on="0"/>
        <pt x="400" y="359" on="0"/>
        <pt x="356" y="316" on="0"/>
      </contour>
    </TTGlyph>
    <TTGlyph name="asterisk" xMin="40" yMin="333" xMax="468" yMax="740">
      <contour>
        <pt x="170" y="333" on="1"/>
        <pt x="92" y="390" on="1"/>
        <pt x="179" y="507" on="1"/>
        <pt x="40" y="549" on="1"/>
        <pt x="69" y="642" on="1"/>
        <pt x="208" y="594" on="1"/>
        <pt x="205" y="740" on="1"/>
        <pt x="302" y="740" on="1"/>
        <pt x="300" y="594" on="1"/>
        <pt x="438" y="642" on="1"/>
        <pt x="468" y="549" on="1"/>
        <pt x="329" y="507" on="1"/>
        <pt x="416" y="390" on="1"/>
        <pt x="337" y="333" on="1"/>
        <pt x="254" y="452" on="1"/>
      </contour>
    </TTGlyph>
    <TTGlyph name="at" xMin="45" yMin="-159" xMax="969" yMax="754">
      <contour>
        <pt x="520" y="-159" on="1"/>
        <pt x="400" y="-159" on="0"/>
        <pt x="222" y="-82" on="0"/>
        <pt x="103" y="47" on="0"/>
        <pt x="45" y="209" on="0"/>
        <pt x="45" y="293" on="1"/>
        <pt x="45" y="380" on="0"/>
        <pt x="104" y="544" on="0"/>
        <pt x="222" y="676" on="0"/>
        <pt x="397" y="754" on="0"/>
        <pt x="513" y="754" on="1"/>
        <pt x="603" y="754" on="0"/>
        <pt x="767" y="696" on="0"/>
        <pt x="895" y="586" on="0"/>
        <pt x="969" y="426" on="0"/>
        <pt x="969" y="323" on="1"/>
        <pt x="969" y="252" on="0"/>
        <pt x="926" y="137" on="0"/>
        <pt x="841" y="69" on="0"/>
        <pt x="777" y="69" on="1"/>
        <pt x="732" y="69" on="0"/>
        <pt x="669" y="98" on="0"/>
        <pt x="632" y="138" on="0"/>
        <pt x="625" y="156" on="1"/>
        <pt x="618" y="156" on="1"/>
        <pt x="614" y="147" on="0"/>
        <pt x="582" y="105" on="0"/>
        <pt x="519" y="69" on="0"/>
        <pt x="468" y="69" on="1"/>
        <pt x="405" y="69" on="0"/>
        <pt x="320" y="134" on="0"/>
        <pt x="278" y="236" on="0"/>
        <pt x="278" y="291" on="1"/>
        <pt x="278" y="346" on="0"/>
        <pt x="319" y="446" on="0"/>
        <pt x="402" y="509" on="0"/>
        <pt x="465" y="509" on="1"/>
        <pt x="502" y="509" on="0"/>
        <pt x="555" y="488" on="0"/>
        <pt x="587" y="459" on="0"/>
        <pt x="594" y="448" on="1"/>
        <pt x="600" y="448" on="1"/>
        <pt x="600" y="501" on="1"/>
        <pt x="715" y="501" on="1"/>
        <pt x="715" y="320" on="1"/>
        <pt x="715" y="296" on="0"/>
        <pt x="719" y="242" on="0"/>
        <pt x="734" y="195" on="0"/>
        <pt x="762" y="165" on="0"/>
        <pt x="786" y="165" on="1"/>
        <pt x="825" y="165" on="0"/>
        <pt x="862" y="243" on="0"/>
        <pt x="862" y="315" on="1"/>
        <pt x="862" y="401" on="0"/>
        <pt x="804" y="529" on="0"/>
        <pt x="705" y="613" on="0"/>
        <pt x="580" y="654" on="0"/>
        <pt x="513" y="654" on="1"/>
        <pt x="425" y="654" on="0"/>
        <pt x="291" y="593" on="0"/>
        <pt x="202" y="490" on="0"/>
        <pt x="156" y="362" on="0"/>
        <pt x="156" y="295" on="1"/>
        <pt x="156" y="229" on="0"/>
        <pt x="201" y="103" on="0"/>
        <pt x="291" y="2" on="0"/>
        <pt x="427" y="-57" on="0"/>
        <pt x="518" y="-57" on="1"/>
        <pt x="586" y="-57" on="0"/>
        <pt x="692" y="-30" on="0"/>
        <pt x="753" y="-3" on="0"/>
        <pt x="753" y="-3" on="1"/>
        <pt x="791" y="-97" on="1"/>
        <pt x="791" y="-97" on="0"/>
        <pt x="727" y="-128" on="0"/>
        <pt x="606" y="-159" on="0"/>
      </contour>
      <contour>
        <pt x="497" y="164" on="1"/>
        <pt x="531" y="164" on="0"/>
        <pt x="576" y="201" on="0"/>
        <pt x="598" y="259" on="0"/>
        <pt x="598" y="289" on="1"/>
        <pt x="598" y="320" on="0"/>
        <pt x="576" y="377" on="0"/>
        <pt x="531" y="414" on="0"/>
        <pt x="497" y="414" on="1"/>
        <pt x="463" y="414" on="0"/>
        <pt x="418" y="378" on="0"/>
        <pt x="396" y="321" on="0"/>
        <pt x="396" y="289" on="1"/>
        <pt x="396" y="258" on="0"/>
        <pt x="418" y="201" on="0"/>
        <pt x="463" y="164" on="0"/>
      </contour>
    </TTGlyph>
    <TTGlyph name="atilde" xMin="57" yMin="-10" xMax="593" yMax="762">
      <contour>
        <pt x="402" y="615" on="1"/>
        <pt x="375" y="615" on="0"/>
        <pt x="337" y="634" on="0"/>
        <pt x="308" y="659" on="0"/>
        <pt x="283" y="678" on="0"/>
        <pt x="270" y="678" on="1"/>
        <pt x="253" y="678" on="0"/>
        <pt x="240" y="647" on="0"/>
        <pt x="240" y="621" on="1"/>
        <pt x="164" y="621" on="1"/>
        <pt x="164" y="653" on="0"/>
        <pt x="180" y="719" on="0"/>
        <pt x="222" y="762" on="0"/>
        <pt x="262" y="762" on="1"/>
        <pt x="289" y="762" on="0"/>
        <pt x="328" y="743" on="0"/>
        <pt x="357" y="718" on="0"/>
        <pt x="381" y="699" on="0"/>
        <pt x="395" y="699" on="1"/>
        <pt x="410" y="699" on="0"/>
        <pt x="423" y="730" on="0"/>
        <pt x="423" y="757" on="1"/>
        <pt x="499" y="757" on="1"/>
        <pt x="499" y="724" on="0"/>
        <pt x="483" y="659" on="0"/>
        <pt x="441" y="615" on="0"/>
      </contour>
      <contour>
        <pt x="292" y="540" on="1"/>
        <pt x="343" y="540" on="0"/>
        <pt x="409" y="507" on="0"/>
        <pt x="447" y="468" on="0"/>
        <pt x="454" y="456" on="1"/>
        <pt x="460" y="456" on="1"/>
        <pt x="460" y="530" on="1"/>
        <pt x="593" y="530" on="1"/>
        <pt x="593" y="0" on="1"/>
        <pt x="460" y="0" on="1"/>
        <pt x="460" y="74" on="1"/>
        <pt x="454" y="74" on="1"/>
        <pt x="447" y="62" on="0"/>
        <pt x="409" y="22" on="0"/>
        <pt x="343" y="-10" on="0"/>
        <pt x="292" y="-10" on="1"/>
        <pt x="233" y="-10" on="0"/>
        <pt x="145" y="37" on="0"/>
        <pt x="86" y="116" on="0"/>
        <pt x="57" y="214" on="0"/>
        <pt x="57" y="265" on="1"/>
        <pt x="57" y="316" on="0"/>
        <pt x="86" y="414" on="0"/>
        <pt x="145" y="493" on="0"/>
        <pt x="233" y="540" on="0"/>
      </contour>
      <contour>
        <pt x="327" y="431" on="1"/>
        <pt x="282" y="431" on="0"/>
        <pt x="221" y="382" on="0"/>
        <pt x="191" y="306" on="0"/>
        <pt x="191" y="265" on="1"/>
        <pt x="191" y="224" on="0"/>
        <pt x="221" y="148" on="0"/>
        <pt x="282" y="99" on="0"/>
        <pt x="327" y="99" on="1"/>
        <pt x="372" y="99" on="0"/>
        <pt x="432" y="148" on="0"/>
        <pt x="462" y="224" on="0"/>
        <pt x="462" y="265" on="1"/>
        <pt x="462" y="306" on="0"/>
        <pt x="432" y="382" on="0"/>
        <pt x="372" y="431" on="0"/>
      </contour>
    </TTGlyph>
    <TTGlyph name="atilde.ss01" xMin="54" yMin="-10" xMax="524" yMax="762">
      <contour>
        <pt x="371" y="615" on="1"/>
        <pt x="344" y="615" on="0"/>
        <pt x="306" y="634" on="0"/>
        <pt x="277" y="659" on="0"/>
        <pt x="253" y="678" on="0"/>
        <pt x="239" y="678" on="1"/>
        <pt x="222" y="678" on="0"/>
        <pt x="209" y="647" on="0"/>
        <pt x="209" y="621" on="1"/>
        <pt x="134" y="621" on="1"/>
        <pt x="134" y="653" on="0"/>
        <pt x="149" y="719" on="0"/>
        <pt x="191" y="762" on="0"/>
        <pt x="231" y="762" on="1"/>
        <pt x="258" y="762" on="0"/>
        <pt x="297" y="743" on="0"/>
        <pt x="326" y="718" on="0"/>
        <pt x="351" y="699" on="0"/>
        <pt x="364" y="699" on="1"/>
        <pt x="379" y="699" on="0"/>
        <pt x="392" y="730" on="0"/>
        <pt x="392" y="757" on="1"/>
        <pt x="468" y="757" on="1"/>
        <pt x="468" y="724" on="0"/>
        <pt x="452" y="659" on="0"/>
        <pt x="411" y="615" on="0"/>
      </contour>
      <contour>
        <pt x="385" y="67" on="1"/>
        <pt x="381" y="60" on="0"/>
        <pt x="348" y="23" on="0"/>
        <pt x="283" y="-10" on="0"/>
        <pt x="230" y="-10" on="1"/>
        <pt x="151" y="-10" on="0"/>
        <pt x="54" y="72" on="0"/>
        <pt x="54" y="142" on="1"/>
        <pt x="54" y="195" on="0"/>
        <pt x="108" y="262" on="0"/>
        <pt x="199" y="300" on="0"/>
        <pt x="256" y="308" on="1"/>
        <pt x="393" y="327" on="1"/>
        <pt x="393" y="343" on="1"/>
        <pt x="393" y="366" on="0"/>
        <pt x="375" y="409" on="0"/>
        <pt x="333" y="438" on="0"/>
        <pt x="296" y="438" on="1"/>
        <pt x="261" y="438" on="0"/>
        <pt x="221" y="415" on="0"/>
        <pt x="201" y="385" on="0"/>
        <pt x="195" y="362" on="0"/>
        <pt x="195" y="362" on="1"/>
        <pt x="70" y="362" on="1"/>
        <pt x="70" y="362" on="0"/>
        <pt x="76" y="398" on="0"/>
        <pt x="99" y="451" on="0"/>
        <pt x="149" y="504" on="0"/>
        <pt x="233" y="540" on="0"/>
        <pt x="298" y="540" on="1"/>
        <pt x="377" y="540" on="0"/>
        <pt x="477" y="484" on="0"/>
        <pt x="524" y="395" on="0"/>
        <pt x="524" y="345" on="1"/>
        <pt x="524" y="0" on="1"/>
        <pt x="393" y="0" on="1"/>
        <pt x="393" y="67" on="1"/>
      </contour>
      <contour>
        <pt x="183" y="152" on="1"/>
        <pt x="183" y="117" on="0"/>
        <pt x="234" y="83" on="0"/>
        <pt x="269" y="83" on="1"/>
        <pt x="322" y="83" on="0"/>
        <pt x="393" y="159" on="0"/>
        <pt x="393" y="222" on="1"/>
        <pt x="393" y="240" on="1"/>
        <pt x="273" y="222" on="1"/>
        <pt x="234" y="216" on="0"/>
        <pt x="183" y="185" on="0"/>
      </contour>
    </TTGlyph>
    <TTGlyph name="b" xMin="72" yMin="-10" xMax="608" yMax="760">
      <contour>
        <pt x="373" y="-10" on="1"/>
        <pt x="322" y="-10" on="0"/>
        <pt x="256" y="23" on="0"/>
        <pt x="219" y="63" on="0"/>
        <pt x="212" y="74" on="1"/>
        <pt x="205" y="74" on="1"/>
        <pt x="205" y="0" on="1"/>
        <pt x="72" y="0" on="1"/>
        <pt x="72" y="760" on="1"/>
        <pt x="205" y="760" on="1"/>
        <pt x="205" y="456" on="1"/>
        <pt x="212" y="456" on="1"/>
        <pt x="219" y="468" on="0"/>
        <pt x="256" y="508" on="0"/>
        <pt x="322" y="540" on="0"/>
        <pt x="373" y="540" on="1"/>
        <pt x="433" y="540" on="0"/>
        <pt x="521" y="493" on="0"/>
        <pt x="579" y="414" on="0"/>
        <pt x="608" y="316" on="0"/>
        <pt x="608" y="265" on="1"/>
        <pt x="608" y="214" on="0"/>
        <pt x="579" y="116" on="0"/>
        <pt x="521" y="37" on="0"/>
        <pt x="433" y="-10" on="0"/>
      </contour>
      <contour>
        <pt x="338" y="99" on="1"/>
        <pt x="384" y="99" on="0"/>
        <pt x="444" y="148" on="0"/>
        <pt x="474" y="224" on="0"/>
        <pt x="474" y="265" on="1"/>
        <pt x="474" y="306" on="0"/>
        <pt x="444" y="382" on="0"/>
        <pt x="384" y="431" on="0"/>
        <pt x="338" y="431" on="1"/>
        <pt x="293" y="431" on="0"/>
        <pt x="233" y="382" on="0"/>
        <pt x="203" y="306" on="0"/>
        <pt x="203" y="265" on="1"/>
        <pt x="203" y="224" on="0"/>
        <pt x="233" y="148" on="0"/>
        <pt x="293" y="99" on="0"/>
      </contour>
    </TTGlyph>
    <TTGlyph name="backslash" xMin="10" yMin="-171" xMax="479" yMax="828">
      <contour>
        <pt x="479" y="-171" on="1"/>
        <pt x="358" y="-171" on="1"/>
        <pt x="10" y="828" on="1"/>
        <pt x="132" y="828" on="1"/>
      </contour>
    </TTGlyph>
    <TTGlyph name="bar" xMin="156" yMin="-237" xMax="270" yMax="954">
      <contour>
        <pt x="156" y="-237" on="1"/>
        <pt x="156" y="954" on="1"/>
        <pt x="270" y="954" on="1"/>
        <pt x="270" y="-237" on="1"/>
      </contour>
    </TTGlyph>
    <TTGlyph name="braceleft" xMin="24" yMin="-208" xMax="422" yMax="847">
      <contour>
        <pt x="315" y="-208" on="1"/>
        <pt x="225" y="-208" on="0"/>
        <pt x="130" y="-113" on="0"/>
        <pt x="130" y="-24" on="1"/>
        <pt x="130" y="199" on="1"/>
        <pt x="130" y="263" on="0"/>
        <pt x="66" y="263" on="1"/>
        <pt x="24" y="263" on="1"/>
        <pt x="24" y="376" on="1"/>
        <pt x="66" y="376" on="1"/>
        <pt x="130" y="376" on="0"/>
        <pt x="130" y="439" on="1"/>
        <pt x="130" y="662" on="1"/>
        <pt x="130" y="752" on="0"/>
        <pt x="225" y="847" on="0"/>
        <pt x="315" y="847" on="1"/>
        <pt x="422" y="847" on="1"/>
        <pt x="422" y="732" on="1"/>
        <pt x="329" y="732" on="1"/>
        <pt x="266" y="732" on="0"/>
        <pt x="266" y="668" on="1"/>
        <pt x="266" y="441" on="1"/>
        <pt x="266" y="392" on="0"/>
        <pt x="236" y="337" on="0"/>
        <pt x="191" y="322" on="1"/>
        <pt x="191" y="316" on="1"/>
        <pt x="236" y="301" on="0"/>
        <pt x="266" y="245" on="0"/>
        <pt x="266" y="198" on="1"/>
        <pt x="266" y="-30" on="1"/>
        <pt x="266" y="-94" on="0"/>
        <pt x="329" y="-94" on="1"/>
        <pt x="422" y="-94" on="1"/>
        <pt x="422" y="-208" on="1"/>
      </contour>
    </TTGlyph>
    <TTGlyph name="braceleft.case" xMin="24" yMin="-184" xMax="422" yMax="871">
      <contour>
        <pt x="315" y="-184" on="1"/>
        <pt x="225" y="-184" on="0"/>
        <pt x="130" y="-89" on="0"/>
        <pt x="130" y="0" on="1"/>
        <pt x="130" y="223" on="1"/>
        <pt x="130" y="287" on="0"/>
        <pt x="66" y="287" on="1"/>
        <pt x="24" y="287" on="1"/>
        <pt x="24" y="400" on="1"/>
        <pt x="66" y="400" on="1"/>
        <pt x="130" y="400" on="0"/>
        <pt x="130" y="463" on="1"/>
        <pt x="130" y="686" on="1"/>
        <pt x="130" y="776" on="0"/>
        <pt x="225" y="871" on="0"/>
        <pt x="315" y="871" on="1"/>
        <pt x="422" y="871" on="1"/>
        <pt x="422" y="756" on="1"/>
        <pt x="329" y="756" on="1"/>
        <pt x="266" y="756" on="0"/>
        <pt x="266" y="692" on="1"/>
        <pt x="266" y="465" on="1"/>
        <pt x="266" y="416" on="0"/>
        <pt x="236" y="361" on="0"/>
        <pt x="191" y="346" on="1"/>
        <pt x="191" y="340" on="1"/>
        <pt x="236" y="325" on="0"/>
        <pt x="266" y="269" on="0"/>
        <pt x="266" y="222" on="1"/>
        <pt x="266" y="-6" on="1"/>
        <pt x="266" y="-70" on="0"/>
        <pt x="329" y="-70" on="1"/>
        <pt x="422" y="-70" on="1"/>
        <pt x="422" y="-184" on="1"/>
      </contour>
    </TTGlyph>
    <TTGlyph name="braceright" xMin="40" yMin="-208" xMax="438" yMax="847">
      <contour>
        <pt x="147" y="847" on="1"/>
        <pt x="237" y="847" on="0"/>
        <pt x="332" y="752" on="0"/>
        <pt x="332" y="662" on="1"/>
        <pt x="332" y="439" on="1"/>
        <pt x="332" y="376" on="0"/>
        <pt x="396" y="376" on="1"/>
        <pt x="438" y="376" on="1"/>
        <pt x="438" y="263" on="1"/>
        <pt x="396" y="263" on="1"/>
        <pt x="332" y="263" on="0"/>
        <pt x="332" y="199" on="1"/>
        <pt x="332" y="-24" on="1"/>
        <pt x="332" y="-113" on="0"/>
        <pt x="237" y="-208" on="0"/>
        <pt x="147" y="-208" on="1"/>
        <pt x="40" y="-208" on="1"/>
        <pt x="40" y="-94" on="1"/>
        <pt x="133" y="-94" on="1"/>
        <pt x="196" y="-94" on="0"/>
        <pt x="196" y="-30" on="1"/>
        <pt x="196" y="198" on="1"/>
        <pt x="196" y="247" on="0"/>
        <pt x="226" y="302" on="0"/>
        <pt x="271" y="316" on="1"/>
        <pt x="271" y="322" on="1"/>
        <pt x="226" y="337" on="0"/>
        <pt x="196" y="394" on="0"/>
        <pt x="196" y="441" on="1"/>
        <pt x="196" y="668" on="1"/>
        <pt x="196" y="732" on="0"/>
        <pt x="133" y="732" on="1"/>
        <pt x="40" y="732" on="1"/>
        <pt x="40" y="847" on="1"/>
      </contour>
    </TTGlyph>
</ttFont>
